<?xml version="1.0" encoding="UTF-8" standalone="no"?>
<svg
   xmlns:dc="http://purl.org/dc/elements/1.1/"
   xmlns:cc="http://creativecommons.org/ns#"
   xmlns:rdf="http://www.w3.org/1999/02/22-rdf-syntax-ns#"
   xmlns:svg="http://www.w3.org/2000/svg"
   xmlns="http://www.w3.org/2000/svg"
   xmlns:sodipodi="http://sodipodi.sourceforge.net/DTD/sodipodi-0.dtd"
   xmlns:inkscape="http://www.inkscape.org/namespaces/inkscape"
   version="1.1"
   x="0px"
   y="0px"
   viewBox="0 0 273.16122 88.377235"
   enable-background="new 0 0 100 100"
   xml:space="preserve"
   id="svg2"
   inkscape:version="1.0 (4035a4f, 2020-05-01)"
   sodipodi:docname="yasumi_logo_m.svg"
   width="273.16122"
   height="88.377235"
   inkscape:export-filename="/Users/sachatelgenhofoudekoehorst/Desktop/yasumi_logo_dg.png"
   inkscape:export-xdpi="300"
   inkscape:export-ydpi="300">
    <metadata
   id="metadata24">
        <rdf:RDF>
            <cc:Work
   rdf:about="">
                <dc:format>image/svg+xml</dc:format><dc:type
   rdf:resource="http://purl.org/dc/dcmitype/StillImage" /><dc:title></dc:title></cc:Work>
        </rdf:RDF>
    </metadata><defs
   id="defs22" /><sodipodi:namedview
   pagecolor="#ffffff"
   bordercolor="#666666"
   borderopacity="1"
   objecttolerance="10"
   gridtolerance="10"
   guidetolerance="10"
   inkscape:pageopacity="0"
   inkscape:pageshadow="2"
   inkscape:window-width="1440"
   inkscape:window-height="831"
   id="namedview20"
   showgrid="false"
   inkscape:zoom="2.1757368"
   inkscape:cx="145.92758"
   inkscape:cy="62.996702"
   inkscape:window-x="0"
   inkscape:window-y="0"
   inkscape:window-maximized="1"
   inkscape:current-layer="text33-1"
   showguides="true"
   inkscape:guide-bbox="true"
   fit-margin-top="0"
   fit-margin-left="0"
   fit-margin-right="0"
   fit-margin-bottom="0"
   inkscape:document-rotation="0" />
    <g
   id="g4"
   transform="translate(-7.8827541,-5.0900143)"><g
   id="g4491"
   transform="translate(91.473356,9.6552791)" />
        <g
   id="g7556"
   transform="matrix(0.27474628,0,0,0.27474628,2.6642601,99.143716)"><path
   id="path6700"
   d="m 162.45523,-299.07046 c -0.0649,0 -0.0649,0 -0.12976,0 0,0 0,0 -0.0649,0 -0.0649,0 -0.12976,0 -0.12976,0 -74.416206,0.19463 -134.623917,60.5321 -134.623917,134.94831 0,74.416212 60.207711,134.753678 134.623917,134.948318 0.0649,0 0.12976,0 0.12976,0 0,0 0.0649,0 0.0649,0 0.0649,0 0.0649,0 0.12976,0 74.54597,0 134.94831,-60.402352 134.94831,-134.948318 0,-74.54597 -60.40234,-134.94831 -134.94831,-134.94831 z m 5.38495,80.77434 c 14.33826,-0.38927 28.22237,-2.27076 41.65232,-5.51471 4.02249,15.89535 6.55278,34.25611 6.94205,54.3686 h -48.59437 z m 0,-10.83479 v -58.26133 c 14.5329,4.02249 29.32531,23.42131 38.66789,53.20077 -12.45677,2.98443 -25.36769,4.67129 -38.66789,5.06056 z M 157.07027,-287.522 v 58.45597 c -13.42995,-0.38927 -26.47063,-2.14101 -38.99228,-5.19032 9.47234,-29.97409 24.32963,-49.50267 38.99228,-53.26565 z m 0,69.22588 v 48.78901 h -48.91876 c 0.38927,-20.11249 2.91955,-38.47325 6.94205,-54.3686 13.49483,3.24395 27.57357,5.19032 41.97671,5.57959 z m -59.818435,48.78901 H 38.471467 c 1.167819,-27.76821 11.548461,-53.20078 28.092602,-73.31327 12.00262,6.61766 24.783777,12.0675 38.148851,16.08999 -4.41177,17.19294 -7.006932,36.59176 -7.461085,57.22328 z m 0,10.76992 c 0.389274,20.56664 2.984435,40.03034 7.396205,57.22327 -13.365073,4.087378 -26.081351,9.472338 -38.14885,16.089997 C 49.955048,-105.53641 39.639286,-130.96898 38.406587,-158.73719 Z m 10.899675,0 h 48.91876 v 48.72412 c -14.40314,0.38928 -28.48188,2.33565 -41.97671,5.64448 -4.0225,-15.89536 -6.55278,-34.25612 -6.94205,-54.3686 z m 48.91876,59.558916 v 58.520855 c -14.66265,-3.827856 -29.51994,-23.291561 -38.99228,-53.265654 12.52165,-3.11419 25.56233,-4.865928 38.99228,-5.255201 z m 10.76991,58.326222 v -58.391101 c 13.3002,0.389273 26.21112,2.14101 38.73277,5.12544 -9.40746,29.84434 -24.13499,49.243159 -38.73277,53.265661 z m 0,-69.161018 v -48.72412 h 48.59437 c -0.38927,20.04761 -2.91956,38.40837 -6.94205,54.30372 -13.42995,-3.24395 -27.31406,-5.19032 -41.65232,-5.5796 z m 59.42917,-48.72412 H 286.439 c -1.16783,27.76821 -11.54846,53.1359 -28.09261,73.313267 -12.13238,-6.682539 -24.97841,-12.132373 -38.47325,-16.219757 4.41177,-17.19293 7.00694,-36.52687 7.39621,-57.09351 z m 0,-10.76992 c -0.38927,-20.56664 -2.98444,-39.96546 -7.33133,-57.1584 13.49484,-4.08737 26.34087,-9.53721 38.40837,-16.15487 16.54415,20.11249 26.92478,45.54506 28.09261,73.37815 h -59.16965 z m 23.68083,-81.61778 c -10.76991,5.70935 -22.05886,10.44552 -33.93172,14.01386 -6.29326,-20.30712 -15.18168,-36.85126 -25.6272,-47.75094 22.96716,5.51472 43.46893,17.45246 59.55892,33.73708 z m -117.82026,-33.60732 c -10.44552,10.8348 -19.26906,27.37894 -25.49745,47.55631 -11.743094,-3.56835 -22.967158,-8.23964 -33.607316,-13.94899 15.895356,-16.21974 36.267356,-28.0926 59.104766,-33.60732 z M 73.960275,-77.184292 c 10.640157,-5.709353 21.929101,-10.380641 33.607325,-13.948984 6.29326,20.242244 15.1168,36.721512 25.56232,47.62118 -22.83741,-5.514714 -43.20941,-17.387567 -59.169645,-33.672196 z m 117.430985,33.801956 c 10.5104,-10.899668 19.33394,-27.443816 25.69208,-47.81582 11.87286,3.568343 23.16181,8.304511 33.93172,14.013864 -16.08999,16.349509 -36.65664,28.287242 -59.6238,33.801956 z"
   inkscape:connector-curvature="0"
   inkscape:export-xdpi="90.079002"
   inkscape:export-ydpi="90.079002" /><ellipse
   style="opacity:1;fill:none;fill-opacity:1;stroke:#000000;stroke-width:10;stroke-linecap:round;stroke-linejoin:miter;stroke-miterlimit:4;stroke-dasharray:none;stroke-opacity:1"
   id="path6717"
   cx="162.45523"
   cy="-164.12215"
   rx="138.46136"
   ry="138.46138"
   inkscape:export-xdpi="90.079002"
   inkscape:export-ydpi="90.079002" /><circle
   style="opacity:1;fill:#008080;fill-opacity:1;stroke:#000000;stroke-width:7.27305;stroke-linecap:round;stroke-linejoin:miter;stroke-miterlimit:4;stroke-dasharray:none;stroke-opacity:1"
   id="path7519"
   cx="110.84196"
   cy="-230.84927"
   r="18.536331"
   inkscape:export-xdpi="90.079002"
   inkscape:export-ydpi="90.079002" /><circle
   r="18.536331"
   cy="-104.96899"
   cx="161.37137"
   id="circle7550"
   style="opacity:1;fill:#008080;fill-opacity:1;stroke:#000000;stroke-width:7.27305;stroke-linecap:round;stroke-linejoin:miter;stroke-miterlimit:4;stroke-dasharray:none;stroke-opacity:1"
   inkscape:export-xdpi="90.079002"
   inkscape:export-ydpi="90.079002" />
            <g
   id="g7968"
   inkscape:export-xdpi="90.079002"
   inkscape:export-ydpi="90.079002"><path
   inkscape:connector-curvature="0"
   id="path7554"
   d="m 223.49055,-163.33743 c 0,0 77.92842,-57.63457 75.0873,-105.93396 -3.65293,-60.06985 -53.57581,-73.05791 -75.0873,-73.05791 -21.51149,0 -74.27556,12.98806 -75.0873,73.05791 -0.81175,44.64645 74.68141,105.52806 75.0873,105.93396 z"
   sodipodi:nodetypes="ccscc"
   style="fill:#008080;fill-opacity:1;stroke:none" /><path
   style="opacity:1"
   d="m 223.49633,-178.25341 c 0,0 64.94035,-48.02881 62.57275,-88.27831 -3.04411,-50.05821 -44.64651,-60.88159 -62.57275,-60.88159 -17.92624,0 -61.8963,10.82338 -62.57275,60.88159 -0.67646,37.20539 62.23451,87.94006 62.57275,88.27831 z m -43.63181,-88.95477 c 0,-24.0144 19.61741,-43.6318 43.63181,-43.6318 24.01439,0 43.6318,19.6174 43.6318,43.6318 0,24.01441 -19.61741,43.63181 -43.6318,43.63181 -24.0144,0 -43.63181,-19.6174 -43.63181,-43.63181 z"
   id="path6"
   inkscape:connector-curvature="0" />
                <g
   transform="matrix(2.1037974,0,0,2.1037974,14.261739,-477.6433)"
   id="g5677"><path
     id="path5654"
     d="m 112.458,96.828407 c -1.839,1.062 -3.626,2.149 -5.283,3.263003 -0.855,0.57 -1.735,1.165 -2.538,1.813 l -0.181,0.156 c -0.259,0.181 -0.492,0.388 -0.673,0.596 -0.363,1.606 -1.528,2.9 -3.108,3.419 -0.466,0.129 -0.932,0.207 -1.399,0.207 -0.621,0 -1.243,-0.129 -1.813,-0.362 -0.104,-0.052 -0.207,-0.104 -0.285,-0.13 -0.181,-0.104 -0.285,-0.156 -0.414,-0.233 l -0.104,-0.078 c -0.078,-0.052 -0.156,-0.103 -0.233,-0.155 -0.725,-0.57 -1.269,-1.347 -1.58,-2.253 -0.104,-0.362 -0.181,-0.725 -0.207,-1.113 v -0.233 c 0,-0.777 0.155,-1.476 0.492,-2.123003 l 0.078,-0.156 c 0.596,-1.062 1.528,-1.839 2.641,-2.176 1.114,-0.362 2.331,-0.285 3.392,0.207 0.078,0 0.129,-0.026 0.181,-0.052 0.518,-0.13 0.958,-0.311 1.424,-0.492 1.243,-0.466 2.408,-1.01 3.729,-1.606 l 1.321,-0.621 c 0.647,-0.31 1.321,-0.621 1.968,-0.932 0.363,-0.156 0.725,-0.285 1.088,-0.415 1.165,-0.388 2.046,-0.052 2.486,0.907 0.235,0.464 0.571,1.655 -0.982,2.562 z"
     inkscape:connector-curvature="0"
     style="fill:#000000" /><path
     style="fill:#000000"
     inkscape:connector-curvature="0"
     d="m 94.252146,88.475228 c 1.066049,1.83666 2.156983,3.62126 3.274631,5.2758 0.571882,0.85374 1.168819,1.73243 1.818583,2.534 l 0.1564,0.18065 c 0.181574,0.2586 0.389094,0.49115 0.59748,0.67169 1.6068,0.35946 2.90336,1.52161 3.42584,3.100462 0.13003,0.46571 0.20906,0.93154 0.21008,1.39854 0.001,0.621 -0.12626,1.24328 -0.358,1.81379 -0.0518,0.10411 -0.10354,0.20722 -0.12937,0.28528 -0.1036,0.18123 -0.15537,0.28534 -0.23209,0.41451 l -0.0778,0.10418 c -0.0518,0.0781 -0.10266,0.15622 -0.15449,0.23334 -0.5684,0.72625 -1.3442,1.27196 -2.24951,1.58496 -0.36177,0.1048 -0.724596,0.1826 -1.11254,0.20945 l -0.233,5.1e-4 c -0.776999,0.002 -1.476339,-0.15175 -2.12408,-0.48732 l -0.156171,-0.0777 c -1.063311,-0.59366 -1.842362,-1.52395 -2.181814,-2.6362 -0.364453,-1.11319 -0.290134,-2.33036 0.199527,-3.392442 -1.72e-4,-0.078 -0.02628,-0.12894 -0.0524,-0.18089 -0.13114,-0.51771 -0.313109,-0.95731 -0.495136,-1.42291 -0.468737,-1.24197 -1.015302,-2.40577 -1.614211,-3.72545 l -0.623909,-1.31963 c -0.311425,-0.64631 -0.623909,-1.31963 -0.936333,-1.96594 -0.1568,-0.36265 -0.286597,-0.72437 -0.417396,-1.08708 -0.390566,-1.16414 -0.05651,-2.04588 0.90152,-2.48799 0.463482,-0.23603 1.653738,-0.57465 2.564158,0.97635 z"
     id="path5675" /></g>
            </g>
        </g>
        
    </g><g
   style="display:none"
   transform="translate(-2.9752506,2.3099857)"
   inkscape:label="Yasumi Text"
   id="layer1"
   inkscape:groupmode="layer"><text
     id="text33"
     y="67.174889"
     x="95.911156"
     style="font-style:normal;font-variant:normal;font-weight:bold;font-stretch:normal;font-size:48px;line-height:1.25;font-family:Kameron;-inkscape-font-specification:'Kameron, Bold';font-variant-ligatures:normal;font-variant-caps:normal;font-variant-numeric:normal;font-variant-east-asian:normal;fill:#008080;fill-opacity:1;stroke:none"
     xml:space="preserve"
     transform="translate(-4.9075035,-7.4)"><tspan
       y="67.174889"
       x="95.911156"
       id="tspan31"
       sodipodi:role="line">YASUMI</tspan></text></g><g
   style="display:inline"
   inkscape:label="Yasumi Text Path"
   id="layer2"
   inkscape:groupmode="layer"><g
     style="font-style:normal;font-variant:normal;font-weight:bold;font-stretch:normal;font-size:48px;line-height:1.25;font-family:Kameron;-inkscape-font-specification:'Kameron, Bold';font-variant-ligatures:normal;font-variant-caps:normal;font-variant-numeric:normal;font-variant-east-asian:normal;display:inline;fill:#008080;fill-opacity:1;stroke:none;"
     id="text33-1"
     aria-label="YASUMI"><path
       style="fill:#008080;fill-opacity:1"
       id="path912"
       d="m 88.403404,31.428623 q 0.164063,0 0.679688,0.02344 0.515625,0 1.171875,0.02344 0.65625,0 1.3125,0.02344 0.65625,0 1.078125,0 1.078125,0 2.085937,0 1.007813,-0.02344 2.109375,-0.02344 1.125,-0.02344 2.390625,-0.02344 1.265621,-0.02344 2.835941,-0.02344 v 4.171875 h -0.72657 q -1.14843,0 -1.640621,0.1875 -0.492187,0.164063 -0.492187,0.632813 0.07031,0.140625 0.164062,0.375 0.117188,0.210937 0.234375,0.46875 0.140625,0.257812 0.257813,0.515625 0.117187,0.257812 0.234378,0.421875 0.14062,0.28125 0.46875,0.890625 0.35156,0.585937 0.77343,1.335937 0.44532,0.75 0.91407,1.570313 0.49218,0.820312 0.91406,1.570312 0.44531,0.75 0.77344,1.359375 0.32812,0.585938 0.46875,0.867188 l 4.61718,-7.664063 q 0.35157,-0.585937 0.58594,-1.03125 0.23438,-0.445312 0.28125,-0.773437 -0.0937,-0.375 -0.5625,-0.515625 -0.46875,-0.140625 -1.45312,-0.1875 -0.0937,0 -0.35157,0 -0.25781,-0.02344 -0.375,-0.02344 v -4.171875 q 1.38282,0.02344 2.625,0.02344 0.51563,0 1.05469,0.02344 0.5625,0 1.05469,0 0.49219,0 0.89062,0 0.39844,0 0.65625,0 1.125,0 2.32032,0 1.21875,0 2.8125,-0.04687 v 4.171875 q -0.77344,0 -1.24219,0.09375 -0.46875,0.07031 -0.84375,0.304688 -0.35156,0.210937 -0.67969,0.65625 -0.32812,0.421875 -0.79687,1.125 -0.58594,0.820312 -1.28907,1.875 -0.70312,1.054687 -1.45312,2.203125 -0.75,1.125 -1.5,2.296875 -0.75,1.148437 -1.42969,2.203125 -0.65625,1.03125 -1.21875,1.898437 -0.53906,0.84375 -0.89062,1.359375 v 6.140625 q 0,0.539063 0.0469,0.9375 0.0469,0.398438 0.28125,0.679688 0.23438,0.257812 0.67969,0.398437 0.46875,0.140625 1.3125,0.140625 h 1.14844 v 4.171875 q -0.86719,0 -1.71094,0 -0.82031,0 -1.71094,0 -0.89062,-0.02344 -1.875,-0.02344 -0.98437,-0.02344 -2.15625,-0.02344 -0.70312,0 -1.71094,0.02344 -0.98437,0 -2.015621,0 -1.007812,0 -1.898437,0.02344 -0.890625,0 -1.335938,0 v -4.171875 h 1.125 q 0.914063,0 1.382813,-0.210937 0.46875,-0.234375 0.679687,-0.5625 0.210938,-0.328125 0.210938,-0.679688 0.02344,-0.375 0.02344,-0.65625 v -6.234375 q -0.351562,-0.515625 -0.9375,-1.40625 -0.5625,-0.914062 -1.265625,-1.992187 -0.679687,-1.101563 -1.453125,-2.296875 -0.75,-1.195313 -1.453125,-2.273438 -0.679687,-1.101562 -1.265625,-1.992187 -0.5625,-0.914063 -0.890625,-1.453125 -0.5625,-0.867188 -0.914062,-1.359375 -0.328125,-0.492188 -0.726563,-0.75 -0.375,-0.28125 -0.914062,-0.351563 -0.539063,-0.07031 -1.453125,-0.09375 0,-1.03125 -0.02344,-2.0625 0,-1.054687 0,-2.109375 z" /><path
       style="fill:#008080;fill-opacity:1"
       id="path914"
       d="m 137.70419,31.428623 q 2.03906,5.53125 3.72656,10.078125 0.72656,1.945313 1.42969,3.867188 0.70312,1.898437 1.28906,3.515625 0.60937,1.59375 1.03125,2.742187 0.42187,1.125 0.5625,1.5 0.58594,1.617188 0.91406,2.554688 0.32813,0.9375 0.72656,1.429687 0.42188,0.492188 1.05469,0.65625 0.63281,0.140625 1.82813,0.164063 v 4.148437 q -1.38282,0 -2.69532,-0.02344 -1.28906,-0.02344 -3,-0.02344 -2.01562,0 -3.96093,0.02344 -1.92188,0 -4.17188,0.02344 v -3.867187 q 0.0937,0 0.25781,0 0.1875,0 0.375,0 0.1875,0 0.35157,0 0.16406,-0.02344 0.23437,-0.02344 1.125,-0.04687 1.54688,-0.234375 0.42187,-0.1875 0.42187,-0.65625 0,-0.28125 -0.11719,-0.679687 -0.11718,-0.421875 -0.30468,-0.960938 l -1.5,-4.429687 H 126.8995 q -0.0703,0.257812 -0.32813,1.007812 -0.25781,0.726563 -0.5625,1.570313 -0.28125,0.84375 -0.51562,1.570312 -0.23438,0.726563 -0.28125,0.914063 -0.11719,0.328125 -0.1875,0.609375 -0.0469,0.257812 -0.0469,0.421875 0,0.515625 0.30469,0.703125 0.32813,0.164062 1.07813,0.1875 0.0703,0 0.30468,0.02344 0.23438,0 0.51563,0 0.28125,0 0.51562,0 0.25782,0 0.35157,0 v 3.84375 q -1.42969,0 -2.88282,-0.02344 -1.45312,-0.02344 -3.14062,-0.02344 -0.82031,0 -1.54688,0 -0.70312,0 -1.38281,0.02344 -0.67969,0 -1.38281,0.02344 -0.70313,0 -1.5,0 v -4.171875 q 0.84375,-0.09375 1.35937,-0.164062 0.53907,-0.07031 0.89063,-0.257813 0.35156,-0.210937 0.60937,-0.585937 0.25782,-0.398438 0.53907,-1.101563 0.1875,-0.445312 0.58593,-1.453125 0.39844,-1.007812 0.91407,-2.367187 0.53906,-1.359375 1.17187,-2.953125 0.63281,-1.617188 1.28906,-3.28125 0.65625,-1.664063 1.28907,-3.28125 0.63281,-1.617188 1.17187,-2.976563 0.53906,-1.382812 0.9375,-2.390625 0.39844,-1.03125 0.58594,-1.5 l 1.07812,-4.171875 z m -9.72657,16.757813 h 8.64844 l -4.19531,-12.328125 -0.0469,-0.02344 z" /><path
       style="fill:#008080;fill-opacity:1"
       id="path916"
       d="m 175.2159,39.983311 h -4.5 q -0.0937,-0.304688 -0.16406,-0.585938 -0.0469,-0.28125 -0.11719,-0.5625 -0.39843,-2.085937 -1.78125,-3.1875 -1.38281,-1.125 -4.19531,-1.125 -1.14844,0 -2.0625,0.28125 -0.91406,0.28125 -1.57031,0.796875 -0.63281,0.515625 -0.98438,1.21875 -0.35156,0.703125 -0.35156,1.570313 0,1.335937 0.82031,2.203125 0.82032,0.867187 2.22657,1.570312 1.40625,0.679688 3.25781,1.335938 1.85156,0.632812 3.91406,1.523437 1.35938,0.5625 2.55469,1.335938 1.21875,0.75 2.13281,1.78125 0.91406,1.007812 1.42969,2.367187 0.53906,1.335938 0.53906,3.070313 0,1.851562 -0.72656,3.515625 -0.72656,1.640625 -2.08594,2.90625 -1.33594,1.242187 -3.28125,1.96875 -1.94531,0.726562 -4.38281,0.726562 -1.17188,0 -2.34375,-0.210937 -1.14844,-0.1875 -2.22656,-0.5625 -1.05469,-0.375 -1.99219,-0.914063 -0.91406,-0.539062 -1.61719,-1.21875 v 2.296875 h -5.13281 v -9.515625 h 4.5 q 0.14062,0.609375 0.28125,1.125 0.23437,1.195313 0.67969,2.132813 0.46875,0.914062 1.24218,1.546875 0.77344,0.632812 1.89844,0.960937 1.125,0.328125 2.69531,0.328125 1.19532,0 2.15625,-0.28125 0.98438,-0.28125 1.6875,-0.796875 0.70313,-0.539062 1.07813,-1.3125 0.375,-0.796875 0.375,-1.78125 0,-1.335937 -0.82031,-2.226562 -0.79688,-0.914063 -2.13282,-1.59375 -1.3125,-0.679688 -2.97656,-1.242188 -1.66406,-0.585937 -3.375,-1.289062 -3.70312,-1.523438 -5.50781,-3.585938 -1.78125,-2.0625 -1.78125,-4.992187 0,-1.851563 0.67969,-3.445313 0.70312,-1.59375 2.01562,-2.765625 1.33594,-1.171875 3.23438,-1.828125 1.89843,-0.679687 4.33593,-0.679687 2.10938,0 4.14844,0.515625 2.0625,0.515625 3.86719,1.945312 0,-0.328125 -0.0234,-0.65625 0,-0.328125 0,-0.609375 v -0.632812 q 0.14063,0 0.60938,0 0.49218,0 1.125,0.02344 0.65625,0 1.35937,0 0.72656,0 1.28906,0 z" /><path
       style="fill:#008080;fill-opacity:1"
       id="path918"
       d="m 179.50497,31.428623 q 0.35156,0 1.10156,0.02344 0.77344,0 1.66406,0.02344 0.89063,0 1.78125,0.02344 0.91406,0 1.57031,0 0.91407,0 1.78125,0 0.89063,0 1.80469,0 0.91406,-0.02344 1.89844,-0.02344 1.00781,-0.02344 2.13281,-0.04687 v 4.171875 h -0.77344 q -0.84375,0 -1.3125,0.234375 -0.44531,0.210938 -0.67968,0.585938 -0.21094,0.351562 -0.25782,0.84375 -0.0469,0.46875 -0.0469,0.960937 v 12.210938 q 0,1.875 0.28125,3.328125 0.30469,1.429687 1.00781,2.414062 0.70313,0.960938 1.89844,1.476563 1.19531,0.492187 3,0.492187 1.64062,0 2.71875,-0.46875 1.07812,-0.46875 1.71094,-1.40625 0.63281,-0.9375 0.89062,-2.320312 0.25781,-1.382813 0.25781,-3.210938 V 38.037998 q 0,-0.445312 -0.0469,-0.867187 -0.0469,-0.445313 -0.28125,-0.796875 -0.23438,-0.351563 -0.72656,-0.5625 -0.46875,-0.210938 -1.3125,-0.210938 h -0.84375 v -4.171875 q 0.30468,0.02344 1.07812,0.04687 0.77344,0 1.71094,0 0.9375,0 1.875,0 0.9375,0 1.61719,0 0.375,0 0.98437,0 0.60938,0 1.33594,0 0.75,-0.02344 1.54687,-0.02344 0.82032,-0.02344 1.57032,-0.02344 v 4.171875 h -1.10157 q -0.82031,0 -1.24218,0.28125 -0.39844,0.257813 -0.58594,0.65625 -0.16406,0.398438 -0.16406,0.867188 0,0.445312 0,0.820312 v 12.140625 q 0,3.023438 -0.67969,5.34375 -0.67969,2.296875 -2.15625,3.867188 -1.45313,1.546875 -3.79688,2.34375 -2.32031,0.773437 -5.625,0.773437 -3.32812,0 -5.71875,-0.726562 -2.36718,-0.75 -3.89062,-2.25 -1.5,-1.523438 -2.20313,-3.796875 -0.70312,-2.296875 -0.70312,-5.390625 v -13.125 q 0,-0.257813 -0.0469,-0.5625 -0.0469,-0.328125 -0.25781,-0.585938 -0.21094,-0.28125 -0.63281,-0.46875 -0.39844,-0.1875 -1.125,-0.1875 h -1.00781 z" /><path
       style="fill:#008080;fill-opacity:1"
       id="path920"
       d="m 213.30184,31.428623 q 0.32813,0 1.14844,0.02344 0.84375,0 1.85156,0.02344 1.00781,0 2.03906,0 1.03125,0 1.75782,0 0.63281,0 1.47656,0 0.86719,0 1.80469,0 0.96093,-0.02344 1.92187,-0.02344 0.96094,-0.02344 1.85156,-0.02344 l 3.5625,10.734375 q 0.65625,2.015625 1.28907,3.9375 0.65625,1.921875 1.14843,3.445313 0.49219,1.5 0.79688,2.4375 0.32812,0.914062 0.32812,0.914062 0.21094,-0.796875 0.75,-2.4375 0.53907,-1.664062 1.24219,-3.75 0.72656,-2.109375 1.52344,-4.429687 0.79687,-2.320313 1.52344,-4.429688 0.72656,-2.132812 1.28906,-3.84375 0.58594,-1.710937 0.84375,-2.578125 0.84375,0 1.875,0.02344 1.05469,0 2.10937,0.02344 1.07813,0 2.0625,0 0.98438,0 1.6875,0 0.5625,0 1.47657,0 0.9375,0 1.875,0 0.9375,-0.02344 1.6875,-0.02344 0.75,-0.02344 1.00781,-0.02344 v 4.171875 h -1.19531 q -0.72657,0 -1.14844,0.117188 -0.39844,0.09375 -0.60938,0.304687 -0.1875,0.1875 -0.23437,0.492188 -0.0469,0.304687 -0.0469,0.703125 v 9.328125 q 0,4.054687 0.0234,9.210937 0,0.632813 0.0703,1.054688 0.0703,0.421875 0.28125,0.679687 0.23438,0.234375 0.65625,0.328125 0.42188,0.09375 1.125,0.09375 h 1.14844 v 4.171875 q -0.89062,0 -1.73437,0 -0.84375,-0.02344 -1.75782,-0.02344 -0.89062,0 -1.89843,0 -0.98438,-0.02344 -2.13282,-0.02344 -1.00781,0 -1.80468,0.02344 -0.77344,0 -1.47657,0 -0.67968,0 -1.33593,0.02344 -0.63282,0 -1.33594,0 v -4.171875 h 0.96094 q 0.79687,0 1.24218,-0.1875 0.46875,-0.210937 0.70313,-0.585937 0.25781,-0.398438 0.32812,-0.960938 0.0703,-0.5625 0.0703,-1.265625 V 35.155186 l -1.33594,3.679687 -8.29688,23.25 h -4.3125 q -0.21093,-0.5625 -0.63281,-1.734375 -0.42187,-1.171875 -0.98437,-2.71875 -0.53907,-1.570312 -1.17188,-3.398437 -0.63281,-1.851563 -1.28906,-3.726563 -0.65625,-1.898437 -1.3125,-3.726562 -0.63281,-1.828125 -1.19531,-3.375 -0.53907,-1.570313 -0.96094,-2.742188 -0.39844,-1.195312 -0.60938,-1.757812 l -0.65625,-1.828125 q -0.11718,-0.328125 -0.25781,-0.65625 -0.11719,-0.351563 -0.21094,-0.609375 -0.11718,-0.304688 -0.21093,-0.585938 v 20.601563 q 0,0.703125 0.0703,1.125 0.0937,0.398437 0.30469,0.609375 0.23437,0.210937 0.63281,0.28125 0.42187,0.07031 1.10156,0.07031 h 1.125 v 4.171875 q -0.67969,0 -1.3125,0 -0.63281,-0.02344 -1.3125,-0.02344 -0.67969,0 -1.45312,0 -0.75,-0.02344 -1.66407,-0.02344 -0.98437,0 -1.78125,0.02344 -0.79687,0 -1.5,0 -0.70312,0 -1.38281,0.02344 -0.65625,0 -1.35937,0 v -4.171875 h 1.14843 q 0.84375,0 1.28907,-0.164062 0.44531,-0.1875 0.63281,-0.515625 0.1875,-0.328125 0.21094,-0.796875 0.0469,-0.46875 0.0703,-1.078125 l 0.0234,-17.625 q 0,-0.5625 -0.0937,-0.960938 -0.0703,-0.398437 -0.30469,-0.65625 -0.21094,-0.28125 -0.63281,-0.398437 -0.42188,-0.117188 -1.10157,-0.117188 h -1.10156 z" /><path
       style="fill:#008080;fill-opacity:1"
       id="path922"
       d="m 258.72372,31.428623 q 1.05468,0.02344 1.92187,0.04687 0.86719,0 1.61719,0 0.75,0 1.42969,0 0.70312,0 1.38281,0 1.40625,0 2.48437,0 1.10157,0 2.01563,0 0.9375,0 1.78125,0 0.86719,-0.02344 1.80469,-0.04687 v 4.171875 h -0.98438 q -0.84375,0 -1.33594,0.164063 -0.46875,0.140625 -0.72656,0.445312 -0.23437,0.28125 -0.30469,0.703125 -0.0469,0.398438 -0.0469,0.914063 v 17.953125 q 0,0.632812 0.0469,1.054687 0.0469,0.398438 0.28125,0.65625 0.23438,0.234375 0.70313,0.328125 0.49219,0.09375 1.38281,0.09375 h 0.98438 v 4.171875 q -0.86719,0 -1.6875,0 -0.82032,-0.02344 -1.6875,-0.02344 -0.84375,0 -1.82813,0 -0.96094,-0.02344 -2.10937,-0.02344 -2.15625,0 -3.82032,0.02344 -1.64062,0.02344 -3.30468,0.02344 v -4.171875 h 0.9375 q 0.91406,0 1.40625,-0.164062 0.49218,-0.164063 0.72656,-0.492188 0.23437,-0.328125 0.25781,-0.820312 0.0469,-0.492188 0.0469,-1.148438 V 38.295811 q 0,-0.679688 -0.0469,-1.171875 -0.0469,-0.515625 -0.28125,-0.84375 -0.23437,-0.351563 -0.72656,-0.515625 -0.49219,-0.164063 -1.38281,-0.164063 h -0.9375 z" /></g></g>
</svg>
