<?xml version="1.0" encoding="UTF-8" standalone="no"?>
<svg
   id="yasumi-logo"
   height="91"
   width="273.161"
   aria-label="Yasumi logo"
   version="1.1"
   sodipodi:docname="yasumi_logo-dark.svg"
   inkscape:version="1.4 (e7c3feb100, 2024-10-09)"
   xmlns:inkscape="http://www.inkscape.org/namespaces/inkscape"
   xmlns:sodipodi="http://sodipodi.sourceforge.net/DTD/sodipodi-0.dtd"
   xmlns="http://www.w3.org/2000/svg"
   xmlns:svg="http://www.w3.org/2000/svg">
  <defs
     id="defs8" />
  <sodipodi:namedview
     id="namedview8"
     pagecolor="#ffffff"
     bordercolor="#666666"
     borderopacity="1.0"
     inkscape:showpageshadow="2"
     inkscape:pageopacity="0.0"
     inkscape:pagecheckerboard="0"
     inkscape:deskcolor="#d1d1d1"
     inkscape:zoom="1.6327367"
     inkscape:cx="22.661339"
     inkscape:cy="-42.872804"
     inkscape:current-layer="g6" />
  <g
     transform="matrix(0.27475,0,0,0.27475,-5.218,94.054)"
     id="g6"
     style="display:inline">
    <rect
       style="display:none;fill:#1e2129;fill-opacity:1;stroke:none;stroke-opacity:1"
       id="rect8"
       width="322.15851"
       height="127.39348"
       x="-22.661339"
       y="-16.536654"
       transform="matrix(3.6396724,0,0,3.6396724,18.991811,-342.32575)"
       inkscape:label="bg-black" />
    <path
       d="m 162.455,-299.07 h -0.13 -0.194 c -74.416,0.194 -134.624,60.532 -134.624,134.948 0,74.416 60.208,134.754 134.624,134.948 h 0.324 c 74.546,0 134.949,-60.402 134.949,-134.948 0,-74.546 -60.404,-134.948 -134.949,-134.948 z m 5.385,80.774 a 200.062,200.062 0 0 0 41.653,-5.515 c 4.022,15.896 6.552,34.256 6.942,54.369 H 167.84 Z m 0,-10.835 v -58.261 c 14.533,4.022 29.325,23.421 38.668,53.2 -12.457,2.985 -25.368,4.672 -38.668,5.061 z m -10.77,-58.391 v 58.456 c -13.43,-0.39 -26.47,-2.141 -38.992,-5.19 9.472,-29.974 24.33,-49.503 38.992,-53.266 z m 0,69.226 v 48.789 h -48.918 c 0.389,-20.113 2.92,-38.473 6.942,-54.369 13.494,3.244 27.573,5.19 41.976,5.58 z m -59.818,48.789 h -58.78 c 1.167,-27.768 11.548,-53.2 28.092,-73.313 12.003,6.617 24.784,12.067 38.149,16.09 -4.412,17.193 -7.007,36.591 -7.461,57.223 z m 0,10.77 c 0.39,20.566 2.984,40.03 7.396,57.223 a 202.037,202.037 0 0 0 -38.149,16.09 c -16.544,-20.112 -26.86,-45.545 -28.092,-73.313 z m 10.9,0 h 48.918 v 48.724 a 198.91,198.91 0 0 0 -41.976,5.644 c -4.023,-15.895 -6.553,-34.256 -6.942,-54.368 z m 48.918,59.559 v 58.52 c -14.662,-3.827 -29.52,-23.291 -38.992,-53.265 12.522,-3.114 25.562,-4.866 38.992,-5.255 z m 10.77,58.326 v -58.391 c 13.3,0.39 26.211,2.14 38.733,5.125 -9.408,29.845 -24.135,49.243 -38.733,53.266 z m 0,-69.161 v -48.724 h 48.595 c -0.39,20.047 -2.92,38.408 -6.943,54.304 -13.43,-3.244 -27.314,-5.19 -41.652,-5.58 z m 59.43,-48.724 h 59.169 c -1.168,27.768 -11.548,53.136 -28.093,73.313 a 199.506,199.506 0 0 0 -38.473,-16.22 c 4.412,-17.193 7.007,-36.527 7.396,-57.093 z m 0,-10.77 c -0.39,-20.567 -2.985,-39.966 -7.332,-57.159 a 201.08,201.08 0 0 0 38.408,-16.154 c 16.545,20.112 26.925,45.545 28.093,73.378 h -59.17 z m 23.68,-81.618 c -10.77,5.71 -22.059,10.446 -33.932,14.014 -6.293,-20.307 -15.181,-36.851 -25.627,-47.751 22.967,5.515 43.47,17.452 59.56,33.737 z m -117.82,-33.607 c -10.446,10.835 -19.27,27.379 -25.498,47.556 a 184.32,184.32 0 0 1 -33.607,-13.949 c 15.896,-16.22 36.268,-28.092 59.105,-33.607 z M 73.96,-77.184 c 10.64,-5.71 21.93,-10.38 33.608,-13.95 6.293,20.243 15.116,36.722 25.562,47.622 C 110.293,-49.027 89.92,-60.9 73.96,-77.184 Z m 117.431,33.802 c 10.51,-10.9 19.334,-27.444 25.692,-47.816 11.873,3.568 23.162,8.304 33.932,14.014 -16.09,16.35 -36.657,28.287 -59.624,33.802 z"
       id="path1"
       style="fill:#cccccc;fill-opacity:1;stroke:none" />
    <circle
       cy="-164.12199"
       cx="162.455"
       fill="none"
       stroke="#000000"
       stroke-width="10"
       stroke-linecap="round"
       r="138.461"
       id="circle1"
       style="stroke:#cccccc;stroke-opacity:1;fill:none;fill-opacity:0.7019608" />
    <circle
       r="18.535999"
       cy="-230.849"
       cx="110.842"
       fill="#008080"
       stroke="#000000"
       stroke-width="7.273"
       stroke-linecap="round"
       id="circle2" />
    <circle
       cx="161.371"
       cy="-104.969"
       r="18.535999"
       fill="#008080"
       stroke="#000000"
       stroke-width="7.273"
       stroke-linecap="round"
       id="circle3" />
    <path
       d="m 223.49,-163.337 c 0,0 77.929,-57.635 75.088,-105.934 -3.653,-60.07 -53.576,-73.058 -75.087,-73.058 -21.512,0 -74.276,12.988 -75.088,73.058 -0.811,44.646 74.682,105.528 75.088,105.934 z"
       fill="#008080"
       id="path3" />
    <path
       d="m 223.496,-178.253 c 0,0 64.94,-48.03 62.573,-88.279 -3.044,-50.058 -44.646,-60.881 -62.573,-60.881 -17.926,0 -61.896,10.823 -62.572,60.881 -0.677,37.206 62.234,87.94 62.572,88.279 z m -43.631,-88.955 c 0,-24.015 19.617,-43.632 43.631,-43.632 24.015,0 43.632,19.617 43.632,43.632 0,24.014 -19.617,43.632 -43.632,43.632 -24.014,0 -43.631,-19.618 -43.631,-43.632 z"
       id="path4" />
    <path
       d="m 250.85,-273.936 c -3.868,2.234 -7.628,4.521 -11.114,6.865 -1.799,1.199 -3.65,2.45 -5.34,3.814 l -0.38,0.328 a 7.899,7.899 0 0 0 -1.416,1.254 9.819,9.819 0 0 1 -6.538,7.193 c -0.98,0.271 -1.961,0.435 -2.944,0.435 -1.306,0 -2.615,-0.271 -3.814,-0.761 -0.219,-0.11 -0.435,-0.219 -0.6,-0.274 -0.38,-0.219 -0.599,-0.328 -0.87,-0.49 l -0.22,-0.164 c -0.163,-0.11 -0.327,-0.217 -0.49,-0.326 -1.525,-1.2 -2.67,-2.834 -3.323,-4.74 -0.22,-0.762 -0.381,-1.525 -0.436,-2.341 v -0.49 c 0,-1.635 0.326,-3.106 1.035,-4.467 l 0.164,-0.328 c 1.254,-2.234 3.215,-3.87 5.556,-4.578 a 9.802,9.802 0 0 1 7.136,0.435 c 0.165,0 0.272,-0.054 0.381,-0.109 1.09,-0.273 2.016,-0.654 2.996,-1.035 2.615,-0.98 5.066,-2.125 7.845,-3.379 l 2.78,-1.306 c 1.36,-0.652 2.778,-1.307 4.14,-1.96 0.763,-0.33 1.525,-0.6 2.288,-0.874 2.451,-0.816 4.305,-0.11 5.23,1.908 0.495,0.976 1.202,3.482 -2.065,5.39 z"
       id="path5" />
    <path
       d="m 212.55,-291.51 c 2.242,3.865 4.537,7.62 6.888,11.1 1.203,1.796 2.46,3.645 3.826,5.33 l 0.33,0.38 a 7.9,7.9 0 0 0 1.256,1.414 9.819,9.819 0 0 1 7.208,6.523 c 0.273,0.98 0.44,1.96 0.441,2.942 a 10.16,10.16 0 0 1 -0.753,3.816 c -0.109,0.219 -0.217,0.436 -0.272,0.6 -0.218,0.381 -0.327,0.6 -0.488,0.872 l -0.164,0.22 c -0.109,0.164 -0.216,0.328 -0.325,0.49 -1.196,1.528 -2.828,2.676 -4.732,3.335 -0.761,0.22 -1.525,0.384 -2.34,0.44 l -0.491,0.001 c -1.635,0.005 -3.106,-0.319 -4.469,-1.025 l -0.328,-0.163 c -2.237,-1.25 -3.876,-3.206 -4.59,-5.546 a 9.802,9.802 0 0 1 0.42,-7.137 c 0,-0.165 -0.056,-0.272 -0.11,-0.381 -0.277,-1.09 -0.66,-2.014 -1.042,-2.993 -0.987,-2.613 -2.136,-5.062 -3.396,-7.838 l -1.313,-2.776 c -0.655,-1.36 -1.313,-2.777 -1.97,-4.136 -0.33,-0.763 -0.603,-1.524 -0.878,-2.287 -0.822,-2.45 -0.119,-4.304 1.897,-5.234 0.975,-0.497 3.479,-1.21 5.394,2.054 z"
       id="path6" />
  </g>
  <g
     id="g8"
     style="display:inline">
    <g
       aria-label="YASUMI"
       style="line-height:1.25;-inkscape-font-specification:'Kameron, Bold';font-variant-ligatures:normal;font-variant-caps:normal;font-variant-numeric:normal;font-variant-east-asian:normal"
       font-weight="700"
       font-size="48px"
       font-family="Kameron"
       fill="#008080"
       id="g7">
      <path
         d="m 88.403,31.429 q 0.164,0 0.68,0.023 0.516,0 1.172,0.024 0.656,0 1.312,0.023 h 3.165 q 1.007,-0.023 2.109,-0.023 1.125,-0.024 2.39,-0.024 1.266,-0.023 2.836,-0.023 V 35.6 h -0.726 q -1.149,0 -1.64,0.188 -0.493,0.164 -0.493,0.633 0.07,0.14 0.164,0.375 0.117,0.21 0.235,0.469 0.14,0.257 0.257,0.515 0.118,0.258 0.235,0.422 0.14,0.281 0.468,0.89 0.352,0.587 0.774,1.337 0.445,0.75 0.914,1.57 0.492,0.82 0.914,1.57 0.445,0.75 0.773,1.36 0.329,0.586 0.47,0.867 l 4.616,-7.664 q 0.352,-0.586 0.586,-1.032 0.235,-0.445 0.282,-0.773 -0.094,-0.375 -0.563,-0.516 -0.469,-0.14 -1.453,-0.187 h -0.352 Q 107.271,35.6 107.153,35.6 v -4.17 q 1.383,0.023 2.625,0.023 0.516,0 1.055,0.024 h 4.922 q 1.219,0 2.812,-0.047 v 4.17 q -0.773,0 -1.242,0.093 -0.468,0.07 -0.843,0.305 -0.352,0.21 -0.68,0.656 -0.328,0.422 -0.797,1.125 -0.586,0.82 -1.29,1.875 -0.702,1.055 -1.452,2.203 -0.75,1.125 -1.5,2.297 -0.75,1.149 -1.43,2.203 -0.656,1.032 -1.219,1.899 -0.539,0.844 -0.89,1.36 v 6.14 q 0,0.539 0.047,0.937 0.047,0.399 0.28,0.68 0.235,0.258 0.68,0.398 0.47,0.141 1.313,0.141 h 1.149 v 4.172 h -3.422 q -0.891,-0.024 -1.875,-0.024 -0.985,-0.023 -2.157,-0.023 -0.703,0 -1.71,0.023 h -2.016 q -1.008,0 -1.899,0.024 h -1.336 v -4.172 h 1.125 q 0.914,0 1.383,-0.21 0.469,-0.235 0.68,-0.563 0.21,-0.329 0.21,-0.68 Q 99.7,56.084 99.7,55.803 V 49.568 Q 99.349,49.053 98.763,48.162 98.2,47.248 97.497,46.17 q -0.68,-1.102 -1.453,-2.297 -0.75,-1.195 -1.453,-2.273 -0.68,-1.102 -1.266,-1.993 -0.562,-0.914 -0.89,-1.453 -0.563,-0.867 -0.914,-1.36 -0.328,-0.491 -0.727,-0.75 -0.375,-0.28 -0.914,-0.35 -0.54,-0.071 -1.453,-0.094 0,-1.032 -0.024,-2.063 v -2.11 z m 49.301,0 q 2.04,5.53 3.727,10.078 0.726,1.945 1.43,3.867 0.703,1.898 1.289,3.516 0.609,1.593 1.03,2.742 l 0.563,1.5 q 0.586,1.617 0.914,2.554 0.328,0.938 0.727,1.43 0.422,0.492 1.055,0.656 0.632,0.141 1.828,0.164 v 4.149 q -1.383,0 -2.696,-0.024 -1.289,-0.023 -3,-0.023 -2.015,0 -3.96,0.023 -1.922,0 -4.172,0.024 v -3.867 h 0.984 q 0.164,-0.024 0.234,-0.024 1.125,-0.047 1.547,-0.234 0.422,-0.188 0.422,-0.656 0,-0.282 -0.117,-0.68 -0.117,-0.422 -0.305,-0.961 l -1.5,-4.43 H 126.9 q -0.07,0.258 -0.328,1.008 -0.257,0.727 -0.562,1.57 -0.281,0.844 -0.516,1.57 -0.234,0.727 -0.281,0.915 -0.117,0.328 -0.188,0.61 -0.046,0.257 -0.046,0.421 0,0.516 0.304,0.703 0.328,0.164 1.078,0.188 0.07,0 0.305,0.023 h 1.383 v 3.844 q -1.43,0 -2.883,-0.024 -1.453,-0.023 -3.14,-0.023 h -1.547 q -0.704,0 -1.383,0.023 -0.68,0 -1.383,0.024 h -1.5 v -4.172 q 0.844,-0.094 1.36,-0.164 0.538,-0.07 0.89,-0.258 0.352,-0.21 0.61,-0.586 0.257,-0.398 0.538,-1.101 0.188,-0.446 0.586,-1.454 0.399,-1.007 0.914,-2.367 l 1.172,-2.953 q 0.633,-1.617 1.29,-3.281 0.656,-1.664 1.288,-3.281 0.633,-1.618 1.172,-2.977 0.54,-1.383 0.938,-2.39 0.398,-1.032 0.586,-1.5 l 1.078,-4.172 z m -9.726,16.757 h 8.648 l -4.195,-12.328 -0.047,-0.023 z m 47.238,-8.203 h -4.5 q -0.094,-0.304 -0.164,-0.586 -0.047,-0.28 -0.117,-0.562 -0.399,-2.086 -1.782,-3.188 -1.382,-1.125 -4.195,-1.125 -1.148,0 -2.062,0.282 -0.914,0.28 -1.57,0.796 -0.634,0.516 -0.985,1.22 -0.352,0.702 -0.352,1.57 0,1.335 0.82,2.203 0.821,0.867 2.227,1.57 1.406,0.68 3.258,1.336 1.852,0.633 3.914,1.523 1.36,0.563 2.555,1.336 1.219,0.75 2.133,1.782 0.914,1.007 1.43,2.367 0.538,1.336 0.538,3.07 0,1.852 -0.726,3.516 -0.727,1.64 -2.086,2.906 -1.336,1.242 -3.281,1.969 -1.946,0.726 -4.383,0.726 -1.172,0 -2.344,-0.21 -1.148,-0.188 -2.227,-0.563 -1.054,-0.375 -1.992,-0.914 -0.914,-0.54 -1.617,-1.219 v 2.297 h -5.133 v -9.516 h 4.5 q 0.14,0.61 0.282,1.125 0.234,1.196 0.68,2.133 0.468,0.914 1.241,1.547 0.774,0.633 1.899,0.96 1.125,0.329 2.695,0.329 1.195,0 2.156,-0.281 0.985,-0.282 1.688,-0.797 0.703,-0.54 1.078,-1.313 0.375,-0.797 0.375,-1.78 0,-1.337 -0.82,-2.227 -0.797,-0.915 -2.133,-1.594 -1.313,-0.68 -2.977,-1.242 -1.664,-0.586 -3.375,-1.29 -3.703,-1.523 -5.507,-3.585 -1.782,-2.063 -1.782,-4.993 0,-1.851 0.68,-3.445 0.703,-1.594 2.016,-2.766 1.336,-1.171 3.234,-1.828 1.898,-0.68 4.336,-0.68 2.11,0 4.148,0.516 2.063,0.516 3.868,1.946 0,-0.329 -0.024,-0.657 v -1.242 h 0.61 q 0.492,0 1.125,0.024 h 2.648 z m 4.289,-8.554 q 0.352,0 1.102,0.023 0.773,0 1.664,0.024 0.89,0 1.78,0.023 h 5.157 q 0.914,-0.023 1.899,-0.023 1.007,-0.024 2.132,-0.047 V 35.6 h -0.773 q -0.844,0 -1.313,0.234 -0.445,0.21 -0.68,0.586 -0.21,0.351 -0.257,0.844 -0.047,0.468 -0.047,0.96 v 12.211 q 0,1.875 0.281,3.329 0.305,1.43 1.008,2.414 0.703,0.96 1.899,1.476 1.195,0.492 3,0.492 1.64,0 2.718,-0.468 1.078,-0.47 1.711,-1.407 0.633,-0.937 0.89,-2.32 0.259,-1.383 0.259,-3.21 V 38.037 q 0,-0.445 -0.047,-0.867 -0.047,-0.446 -0.282,-0.797 -0.234,-0.352 -0.726,-0.563 -0.469,-0.21 -1.313,-0.21 h -0.843 v -4.172 q 0.304,0.023 1.078,0.046 h 7.523 q 0.75,-0.023 1.547,-0.023 0.82,-0.023 1.57,-0.023 V 35.6 h -1.101 q -0.82,0 -1.242,0.282 -0.399,0.258 -0.586,0.656 -0.164,0.398 -0.164,0.867 v 12.961 q 0,3.024 -0.68,5.344 -0.68,2.297 -2.156,3.867 -1.453,1.547 -3.797,2.344 -2.32,0.773 -5.625,0.773 -3.328,0 -5.719,-0.726 -2.367,-0.75 -3.89,-2.25 -1.5,-1.524 -2.204,-3.797 -0.703,-2.297 -0.703,-5.39 V 37.404 q 0,-0.258 -0.047,-0.562 -0.047,-0.328 -0.257,-0.586 -0.211,-0.282 -0.633,-0.469 -0.399,-0.188 -1.125,-0.188 h -1.008 z m 33.797,0 q 0.328,0 1.148,0.023 0.844,0 1.852,0.024 h 7.078 q 0.96,-0.024 1.922,-0.024 0.96,-0.023 1.851,-0.023 l 3.563,10.734 q 0.656,2.016 1.289,3.937 0.656,1.922 1.148,3.446 0.493,1.5 0.797,2.437 l 0.328,0.914 q 0.211,-0.797 0.75,-2.437 0.54,-1.664 1.243,-3.75 l 1.523,-4.43 1.523,-4.43 q 0.727,-2.132 1.29,-3.843 0.585,-1.711 0.843,-2.578 0.844,0 1.875,0.023 1.055,0 2.11,0.024 h 7.101 q 0.938,-0.024 1.688,-0.024 0.75,-0.023 1.008,-0.023 V 35.6 h -1.196 q -0.726,0 -1.148,0.118 -0.399,0.093 -0.61,0.304 -0.187,0.188 -0.234,0.493 -0.047,0.304 -0.047,0.703 v 9.328 q 0,4.054 0.024,9.21 0,0.634 0.07,1.055 0.07,0.422 0.281,0.68 0.234,0.234 0.656,0.328 0.422,0.094 1.125,0.094 h 1.149 v 4.172 h -1.735 q -0.843,-0.024 -1.757,-0.024 h -1.899 q -0.984,-0.023 -2.133,-0.023 -1.007,0 -1.804,0.023 h -1.477 q -0.68,0 -1.336,0.024 h -1.336 v -4.172 h 0.961 q 0.797,0 1.242,-0.188 0.47,-0.21 0.703,-0.585 0.258,-0.399 0.329,-0.961 0.07,-0.563 0.07,-1.266 V 35.155 l -1.336,3.68 -8.297,23.25 h -4.312 q -0.211,-0.563 -0.633,-1.735 -0.422,-1.171 -0.985,-2.718 -0.539,-1.57 -1.171,-3.399 -0.633,-1.851 -1.29,-3.726 -0.656,-1.899 -1.312,-3.727 -0.633,-1.828 -1.195,-3.375 -0.54,-1.57 -0.961,-2.742 -0.399,-1.195 -0.61,-1.758 l -0.656,-1.828 q -0.117,-0.328 -0.258,-0.656 -0.117,-0.352 -0.21,-0.61 -0.118,-0.304 -0.212,-0.586 v 20.602 q 0,0.703 0.07,1.125 0.094,0.398 0.305,0.61 0.235,0.21 0.633,0.28 0.422,0.071 1.102,0.071 h 1.125 v 4.172 h -1.313 q -0.633,-0.024 -1.312,-0.024 h -1.453 q -0.75,-0.023 -1.664,-0.023 -0.985,0 -1.782,0.023 h -1.5 q -0.703,0 -1.383,0.024 h -1.359 v -4.172 h 1.149 q 0.843,0 1.289,-0.164 0.445,-0.188 0.632,-0.516 0.188,-0.328 0.211,-0.797 0.047,-0.468 0.07,-1.078 l 0.024,-17.625 q 0,-0.562 -0.094,-0.96 -0.07,-0.4 -0.304,-0.657 -0.211,-0.281 -0.633,-0.398 -0.422,-0.118 -1.102,-0.118 h -1.101 z m 45.422,0 q 1.054,0.023 1.922,0.046 h 10.711 l 1.804,-0.046 V 35.6 h -0.984 q -0.844,0 -1.336,0.165 -0.469,0.14 -0.727,0.445 -0.234,0.281 -0.304,0.703 -0.047,0.398 -0.047,0.914 V 55.78 q 0,0.633 0.047,1.055 0.047,0.398 0.28,0.656 0.235,0.234 0.704,0.328 0.492,0.094 1.383,0.094 h 0.984 v 4.172 h -1.687 q -0.82,-0.024 -1.688,-0.024 h -1.828 q -0.96,-0.023 -2.11,-0.023 -2.156,0 -3.82,0.023 -1.64,0.024 -3.304,0.024 v -4.172 h 0.937 q 0.914,0 1.406,-0.164 0.493,-0.164 0.727,-0.492 0.234,-0.328 0.258,-0.82 0.047,-0.493 0.047,-1.149 V 38.296 q 0,-0.68 -0.047,-1.172 -0.047,-0.516 -0.281,-0.844 -0.235,-0.351 -0.727,-0.515 -0.492,-0.165 -1.383,-0.165 h -0.937 z"
         id="path7" />
    </g>
  </g>
</svg>
