<svg xmlns="http://www.w3.org/2000/svg" height="91" width="273.161" aria-label="Yasumi logo">
    <g transform="matrix(.27475 0 0 .27475 -5.218 94.054)">
        <path d="M162.455-299.07h-.13-.194c-74.416.194-134.624 60.532-134.624 134.948 0 74.416 60.208 134.754 134.624 134.948h.324c74.546 0 134.949-60.402 134.949-134.948S237-299.07 162.455-299.07zm5.385 80.774a200.062 200.062 0 0041.653-5.515c4.022 15.896 6.552 34.256 6.942 54.369H167.84zm0-10.835v-58.261c14.533 4.022 29.325 23.421 38.668 53.2-12.457 2.985-25.368 4.672-38.668 5.061zm-10.77-58.391v58.456c-13.43-.39-26.47-2.141-38.992-5.19 9.472-29.974 24.33-49.503 38.992-53.266zm0 69.226v48.789h-48.918c.389-20.113 2.92-38.473 6.942-54.369 13.494 3.244 27.573 5.19 41.976 5.58zm-59.818 48.789h-58.78c1.167-27.768 11.548-53.2 28.092-73.313 12.003 6.617 24.784 12.067 38.149 16.09-4.412 17.193-7.007 36.591-7.461 57.223zm0 10.77c.39 20.566 2.984 40.03 7.396 57.223a202.037 202.037 0 00-38.149 16.09c-16.544-20.112-26.86-45.545-28.092-73.313zm10.9 0h48.918v48.724a198.91 198.91 0 00-41.976 5.644c-4.023-15.895-6.553-34.256-6.942-54.368zm48.918 59.559v58.52c-14.662-3.827-29.52-23.291-38.992-53.265 12.522-3.114 25.562-4.866 38.992-5.255zm10.77 58.326v-58.391c13.3.39 26.211 2.14 38.733 5.125-9.408 29.845-24.135 49.243-38.733 53.266zm0-69.161v-48.724h48.595c-.39 20.047-2.92 38.408-6.943 54.304-13.43-3.244-27.314-5.19-41.652-5.58zm59.43-48.724h59.169c-1.168 27.768-11.548 53.136-28.093 73.313a199.506 199.506 0 00-38.473-16.22c4.412-17.193 7.007-36.527 7.396-57.093zm0-10.77c-.39-20.567-2.985-39.966-7.332-57.159a201.08 201.08 0 0038.408-16.154c16.545 20.112 26.925 45.545 28.093 73.378h-59.17zm23.68-81.618c-10.77 5.71-22.059 10.446-33.932 14.014-6.293-20.307-15.181-36.851-25.627-47.751 22.967 5.515 43.47 17.452 59.56 33.737zm-117.82-33.607c-10.446 10.835-19.27 27.379-25.498 47.556a184.32 184.32 0 01-33.607-13.949c15.896-16.22 36.268-28.092 59.105-33.607zM73.96-77.184c10.64-5.71 21.93-10.38 33.608-13.95 6.293 20.243 15.116 36.722 25.562 47.622-22.837-5.515-43.21-17.388-59.17-33.672zm117.431 33.802c10.51-10.9 19.334-27.444 25.692-47.816 11.873 3.568 23.162 8.304 33.932 14.014-16.09 16.35-36.657 28.287-59.624 33.802z"/>
        <circle cy="-164.122" cx="162.455" fill="none" stroke="#000" stroke-width="10" stroke-linecap="round"
                r="138.461"/>
        <circle r="18.536" cy="-230.849" cx="110.842" fill="teal" stroke="#000" stroke-width="7.273"
                stroke-linecap="round"/>
        <circle cx="161.371" cy="-104.969" r="18.536" fill="teal" stroke="#000" stroke-width="7.273"
                stroke-linecap="round"/>
        <path d="M223.49-163.337s77.929-57.635 75.088-105.934c-3.653-60.07-53.576-73.058-75.087-73.058-21.512 0-74.276 12.988-75.088 73.058-.811 44.646 74.682 105.528 75.088 105.934z"
              fill="teal"/>
        <path d="M223.496-178.253s64.94-48.03 62.573-88.279c-3.044-50.058-44.646-60.881-62.573-60.881-17.926 0-61.896 10.823-62.572 60.881-.677 37.206 62.234 87.94 62.572 88.279zm-43.631-88.955c0-24.015 19.617-43.632 43.631-43.632 24.015 0 43.632 19.617 43.632 43.632 0 24.014-19.617 43.632-43.632 43.632-24.014 0-43.631-19.618-43.631-43.632z"/>
        <path d="M250.85-273.936c-3.868 2.234-7.628 4.521-11.114 6.865-1.799 1.199-3.65 2.45-5.34 3.814l-.38.328a7.899 7.899 0 00-1.416 1.254 9.819 9.819 0 01-6.538 7.193c-.98.271-1.961.435-2.944.435-1.306 0-2.615-.271-3.814-.761-.219-.11-.435-.219-.6-.274-.38-.219-.599-.328-.87-.49l-.22-.164c-.163-.11-.327-.217-.49-.326-1.525-1.2-2.67-2.834-3.323-4.74-.22-.762-.381-1.525-.436-2.341v-.49c0-1.635.326-3.106 1.035-4.467l.164-.328c1.254-2.234 3.215-3.87 5.556-4.578a9.802 9.802 0 017.136.435c.165 0 .272-.054.381-.109 1.09-.273 2.016-.654 2.996-1.035 2.615-.98 5.066-2.125 7.845-3.379l2.78-1.306c1.36-.652 2.778-1.307 4.14-1.96.763-.33 1.525-.6 2.288-.874 2.451-.816 4.305-.11 5.23 1.908.495.976 1.202 3.482-2.065 5.39z"/>
        <path d="M212.55-291.51c2.242 3.865 4.537 7.62 6.888 11.1 1.203 1.796 2.46 3.645 3.826 5.33l.33.38a7.9 7.9 0 001.256 1.414 9.819 9.819 0 017.208 6.523c.273.98.44 1.96.441 2.942a10.16 10.16 0 01-.753 3.816c-.109.219-.217.436-.272.6-.218.381-.327.6-.488.872l-.164.22c-.109.164-.216.328-.325.49-1.196 1.528-2.828 2.676-4.732 3.335-.761.22-1.525.384-2.34.44l-.491.001c-1.635.005-3.106-.319-4.469-1.025l-.328-.163c-2.237-1.25-3.876-3.206-4.59-5.546a9.802 9.802 0 01.42-7.137c0-.165-.056-.272-.11-.381-.277-1.09-.66-2.014-1.042-2.993-.987-2.613-2.136-5.062-3.396-7.838l-1.313-2.776c-.655-1.36-1.313-2.777-1.97-4.136-.33-.763-.603-1.524-.878-2.287-.822-2.45-.119-4.304 1.897-5.234.975-.497 3.479-1.21 5.394 2.054z"/>
    </g>
    <g>
        <g aria-label="YASUMI"
           style="line-height:1.25;-inkscape-font-specification:'Kameron, Bold';font-variant-ligatures:normal;font-variant-caps:normal;font-variant-numeric:normal;font-variant-east-asian:normal"
           font-weight="700" font-size="48" font-family="Kameron" fill="teal">
            <path d="M88.403 31.429q.164 0 .68.023.516 0 1.172.024.656 0 1.312.023h3.165q1.007-.023 2.109-.023 1.125-.024 2.39-.024 1.266-.023 2.836-.023V35.6h-.726q-1.149 0-1.64.188-.493.164-.493.633.07.14.164.375.117.21.235.469.14.257.257.515.118.258.235.422.14.281.468.89.352.587.774 1.337.445.75.914 1.57.492.82.914 1.57.445.75.773 1.36.329.586.47.867l4.616-7.664q.352-.586.586-1.032.235-.445.282-.773-.094-.375-.563-.516-.469-.14-1.453-.187h-.352q-.257-.024-.375-.024V31.43q1.383.023 2.625.023.516 0 1.055.024h4.922q1.219 0 2.812-.047V35.6q-.773 0-1.242.093-.468.07-.843.305-.352.21-.68.656-.328.422-.797 1.125-.586.82-1.29 1.875-.702 1.055-1.452 2.203-.75 1.125-1.5 2.297-.75 1.149-1.43 2.203-.656 1.032-1.219 1.899-.539.844-.89 1.36v6.14q0 .539.047.937.047.399.28.68.235.258.68.398.47.141 1.313.141h1.149v4.172h-3.422q-.891-.024-1.875-.024-.985-.023-2.157-.023-.703 0-1.71.023h-2.016q-1.008 0-1.899.024h-1.336v-4.172h1.125q.914 0 1.383-.21.469-.235.68-.563.21-.329.21-.68.024-.375.024-.656v-6.235q-.351-.515-.937-1.406-.563-.914-1.266-1.992-.68-1.102-1.453-2.297-.75-1.195-1.453-2.273-.68-1.102-1.266-1.993-.562-.914-.89-1.453-.563-.867-.914-1.36-.328-.491-.727-.75-.375-.28-.914-.35-.54-.071-1.453-.094 0-1.032-.024-2.063v-2.11zM137.704 31.429q2.04 5.53 3.727 10.078.726 1.945 1.43 3.867.703 1.898 1.289 3.516.609 1.593 1.03 2.742l.563 1.5q.586 1.617.914 2.554.328.938.727 1.43.422.492 1.055.656.632.141 1.828.164v4.149q-1.383 0-2.696-.024-1.289-.023-3-.023-2.015 0-3.96.023-1.922 0-4.172.024v-3.867h.984q.164-.024.234-.024 1.125-.047 1.547-.234.422-.188.422-.656 0-.282-.117-.68-.117-.422-.305-.961l-1.5-4.43H126.9q-.07.258-.328 1.008-.257.727-.562 1.57-.281.844-.516 1.57-.234.727-.281.915-.117.328-.188.61-.046.257-.046.421 0 .516.304.703.328.164 1.078.188.07 0 .305.023h1.383v3.844q-1.43 0-2.883-.024-1.453-.023-3.14-.023h-1.547q-.704 0-1.383.023-.68 0-1.383.024h-1.5v-4.172q.844-.094 1.36-.164.538-.07.89-.258.352-.21.61-.586.257-.398.538-1.101.188-.446.586-1.454.399-1.007.914-2.367l1.172-2.953q.633-1.617 1.29-3.281.656-1.664 1.288-3.281.633-1.618 1.172-2.977.54-1.383.938-2.39.398-1.032.586-1.5l1.078-4.172zm-9.726 16.757h8.648l-4.195-12.328-.047-.023zM175.216 39.983h-4.5q-.094-.304-.164-.586-.047-.28-.117-.562-.399-2.086-1.782-3.188-1.382-1.125-4.195-1.125-1.148 0-2.062.282-.914.28-1.57.796-.634.516-.985 1.22-.352.702-.352 1.57 0 1.335.82 2.203.821.867 2.227 1.57 1.406.68 3.258 1.336 1.852.633 3.914 1.523 1.36.563 2.555 1.336 1.219.75 2.133 1.782.914 1.007 1.43 2.367.538 1.336.538 3.07 0 1.852-.726 3.516-.727 1.64-2.086 2.906-1.336 1.242-3.281 1.969-1.946.726-4.383.726-1.172 0-2.344-.21-1.148-.188-2.227-.563-1.054-.375-1.992-.914-.914-.54-1.617-1.219v2.297h-5.133v-9.516h4.5q.14.61.282 1.125.234 1.196.68 2.133.468.914 1.241 1.547.774.633 1.899.96 1.125.329 2.695.329 1.195 0 2.156-.281.985-.282 1.688-.797.703-.54 1.078-1.313.375-.797.375-1.78 0-1.337-.82-2.227-.797-.915-2.133-1.594-1.313-.68-2.977-1.242-1.664-.586-3.375-1.29-3.703-1.523-5.507-3.585-1.782-2.063-1.782-4.993 0-1.851.68-3.445.703-1.594 2.016-2.766 1.336-1.171 3.234-1.828 1.898-.68 4.336-.68 2.11 0 4.148.516 2.063.516 3.868 1.946 0-.329-.024-.657v-1.242h.61q.492 0 1.125.024H175.216zM179.505 31.429q.352 0 1.102.023.773 0 1.664.024.89 0 1.78.023h5.157q.914-.023 1.899-.023 1.007-.024 2.132-.047V35.6h-.773q-.844 0-1.313.234-.445.21-.68.586-.21.351-.257.844-.047.468-.047.96v12.211q0 1.875.281 3.329.305 1.43 1.008 2.414.703.96 1.899 1.476 1.195.492 3 .492 1.64 0 2.718-.468 1.078-.47 1.711-1.407t.89-2.32q.259-1.383.259-3.21V38.037q0-.445-.047-.867-.047-.446-.282-.797-.234-.352-.726-.563-.469-.21-1.313-.21h-.843v-4.172q.304.023 1.078.046h7.523q.75-.023 1.547-.023.82-.023 1.57-.023V35.6h-1.101q-.82 0-1.242.282-.399.258-.586.656-.164.398-.164.867v12.961q0 3.024-.68 5.344-.68 2.297-2.156 3.867-1.453 1.547-3.797 2.344-2.32.773-5.625.773-3.328 0-5.719-.726-2.367-.75-3.89-2.25-1.5-1.524-2.204-3.797-.703-2.297-.703-5.39V37.404q0-.258-.047-.562-.047-.328-.257-.586-.211-.282-.633-.469-.399-.188-1.125-.188h-1.008zM213.302 31.429q.328 0 1.148.023.844 0 1.852.024H223.38q.96-.024 1.922-.024.96-.023 1.851-.023l3.563 10.734q.656 2.016 1.289 3.937.656 1.922 1.148 3.446.493 1.5.797 2.437l.328.914q.211-.797.75-2.437.54-1.664 1.243-3.75l1.523-4.43 1.523-4.43q.727-2.132 1.29-3.843.585-1.711.843-2.578.844 0 1.875.023 1.055 0 2.11.024h7.101q.938-.024 1.688-.024.75-.023 1.008-.023V35.6h-1.196q-.726 0-1.148.118-.399.093-.61.304-.187.188-.234.493-.047.304-.047.703v9.328q0 4.054.024 9.21 0 .634.07 1.055.07.422.281.68.234.234.656.328.422.094 1.125.094h1.149v4.172h-1.735q-.843-.024-1.757-.024h-1.899q-.984-.023-2.133-.023-1.007 0-1.804.023h-1.477q-.68 0-1.336.024h-1.336v-4.172h.961q.797 0 1.242-.188.47-.21.703-.585.258-.399.329-.961.07-.563.07-1.266V35.155l-1.336 3.68-8.297 23.25h-4.312q-.211-.563-.633-1.735-.422-1.171-.985-2.718-.539-1.57-1.171-3.399-.633-1.851-1.29-3.726-.656-1.899-1.312-3.727-.633-1.828-1.195-3.375-.54-1.57-.961-2.742-.399-1.195-.61-1.758l-.656-1.828q-.117-.328-.258-.656-.117-.352-.21-.61-.118-.304-.212-.586v20.602q0 .703.07 1.125.094.398.305.61.235.21.633.28.422.071 1.102.071h1.125v4.172h-1.313q-.633-.024-1.312-.024h-1.453q-.75-.023-1.664-.023-.985 0-1.782.023h-1.5q-.703 0-1.383.024h-1.359v-4.172h1.149q.843 0 1.289-.164.445-.188.632-.516.188-.328.211-.797.047-.468.07-1.078l.024-17.625q0-.562-.094-.96-.07-.4-.304-.657-.211-.281-.633-.398-.422-.118-1.102-.118h-1.101zM258.724 31.429q1.054.023 1.922.046h10.711l1.804-.046V35.6h-.984q-.844 0-1.336.165-.469.14-.727.445-.234.281-.304.703-.047.398-.047.914V55.78q0 .633.047 1.055.047.398.28.656.235.234.704.328.492.094 1.383.094h.984v4.172h-1.687q-.82-.024-1.688-.024h-1.828q-.96-.023-2.11-.023-2.156 0-3.82.023-1.64.024-3.304.024v-4.172h.937q.914 0 1.406-.164.493-.164.727-.492.234-.328.258-.82.047-.493.047-1.149V38.296q0-.68-.047-1.172-.047-.516-.281-.844-.235-.351-.727-.515-.492-.165-1.383-.165h-.937z"/>
        </g>
    </g>
</svg>