<?xml version="1.0" encoding="UTF-8" standalone="no"?>
<svg
   aria-label="World map with version number"
   viewBox="0 0 370.176 240.542"
   version="1.1"
   id="world-map"
   sodipodi:docname="map.svg"
   inkscape:version="1.3.2 (091e20ef0f, 2023-11-25, custom)"
   xmlns:inkscape="http://www.inkscape.org/namespaces/inkscape"
   xmlns:sodipodi="http://sodipodi.sourceforge.net/DTD/sodipodi-0.dtd"
   xmlns="http://www.w3.org/2000/svg"
   xmlns:svg="http://www.w3.org/2000/svg">
  <defs
     id="defs32" />
  <sodipodi:namedview
     id="namedview32"
     pagecolor="#ffffff"
     bordercolor="#666666"
     borderopacity="1.0"
     inkscape:showpageshadow="2"
     inkscape:pageopacity="0.0"
     inkscape:pagecheckerboard="0"
     inkscape:deskcolor="#d1d1d1"
     inkscape:zoom="1.9622222"
     inkscape:cx="225"
     inkscape:cy="124.85844"
     inkscape:current-layer="g31" />
  <path
     d="M-31.509-13.911c-2.463.993-.971 4.832 1.558 3.876 2.5-.946.935-4.882-1.558-3.876m6.866-.02c-2.674.8-1.336 4.875 1.306 3.895 2.356-.874 1.138-4.628-1.306-3.896m6.607.024c-2.593.939-1.28 4.83 1.314 3.872 2.461-.908 1.14-4.76-1.314-3.872M-37.88-7.31c-2.622.68-1.486 4.824 1.05 4.052 2.528-.769 1.484-4.708-1.05-4.052m6.612.024c-2.516.82-1.454 4.783 1.056 4.028 2.58-.775 1.417-4.833-1.056-4.028m6.617 0c-2.47.827-1.468 4.786 1.053 4.028 2.575-.773 1.52-4.89-1.053-4.028m6.615-.001c-2.628.899-1.318 4.867 1.294 3.963 2.481-.858 1.219-4.823-1.294-3.963m6.615-.007c-2.555.932-1.27 4.88 1.314 3.983 2.589-.9 1.188-4.895-1.314-3.983M-71.217-.672c-2.504.826-1.462 4.901 1.053 4.082 2.544-.828 1.443-4.905-1.053-4.082m6.876-.028c-2.568.487-2.056 4.495.527 4.185 2.692-.322 2.17-4.698-.527-4.185m19.847.018c-2.545.594-1.794 4.65.788 4.16 2.74-.518 1.897-4.787-.788-4.16m6.612.01c-2.54.827-1.511 4.932 1.055 4.082 2.523-.834 1.413-4.886-1.055-4.082m6.879-.006c-2.614.394-2.061 4.575.527 4.153 2.618-.427 2.107-4.55-.527-4.153m6.614-.021c-2.578.458-2.044 4.536.527 4.178 2.693-.376 2.073-4.64-.527-4.178m6.615-.001c-2.754.523-1.875 4.772.788 4.155 2.54-.588 1.802-4.648-.788-4.155m6.615.021c-2.665.58-1.856 4.659.79 4.12 2.677-.543 1.842-4.693-.79-4.12m146.313.007c-2.543.829-1.445 4.897 1.058 4.082 2.543-.828 1.445-4.896-1.058-4.082M-77.571 5.943c-2.654.346-2.168 4.605.525 4.205 2.632-.391 2.084-4.545-.525-4.205m6.88.01c-2.645.036-2.661 4.121 0 4.173 2.715.054 2.674-4.208 0-4.172m6.614.013c-2.817.108-2.44 4.37.263 4.177 2.528-.181 2.265-4.273-.263-4.177m13.23-.004c-2.71.173-2.408 4.37.263 4.18 2.73-.193 2.443-4.352-.264-4.18m6.615.01c-2.502.269-2.286 4.352.264 4.17 2.737-.194 2.519-4.468-.264-4.17m6.614-.006c-2.488.315-2.293 4.358.265 4.177 2.79-.198 2.514-4.529-.265-4.177m6.616-.03c-2.612.393-2.139 4.549.527 4.224 2.684-.328 2.12-4.623-.527-4.224m6.878.017c-2.82.038-2.447 4.384.263 4.19 2.536-.182 2.258-4.224-.263-4.19m6.614.012c-2.766.14-2.439 4.37.265 4.178 2.625-.187 2.374-4.311-.265-4.178m6.616-.003c-2.722.173-2.45 4.373.263 4.18 2.727-.193 2.485-4.354-.263-4.18m6.614.007c-2.65.22-2.4 4.363.264 4.174 2.734-.194 2.527-4.406-.264-4.174m133.085-.003c-2.487.315-2.294 4.359.264 4.177 2.741-.195 2.522-4.53-.264-4.177m6.614-.03c-2.64.395-2.172 4.644.527 4.18 2.622-.451 2.08-4.57-.527-4.18m6.615 0c-2.614.393-2.122 4.51.53 4.221 2.687-.294 2.118-4.62-.53-4.221m-246.831 6.874c-2.425.996-.807 4.736 1.557 3.839 2.513-.954.97-4.878-1.557-3.84m6.617.032c-2.362 1.045-.809 4.7 1.555 3.808 2.658-1.004 1.03-4.953-1.555-3.808m6.601.044c-2.355 1.261-.477 4.883 1.826 3.689 2.448-1.27.587-4.98-1.826-3.689m6.616 0c-2.36 1.279-.294 5.023 2.044 3.613 2.274-1.371.294-4.88-2.044-3.613m6.869-.074c-2.505.963-.915 4.844 1.57 3.807 2.465-1.027.92-4.765-1.57-3.807m6.62 0c-2.482.975-.934 4.802 1.572 3.838 2.506-.964.918-4.816-1.571-3.838m6.614-.001c-2.439.976-.88 4.782 1.571 3.84 2.518-.97.972-4.858-1.57-3.84m19.847.075c-2.31 1.246-.485 4.886 1.825 3.689 2.499-1.296.621-5.008-1.825-3.689m6.628 0c-2.327 1.296-.302 4.965 2.059 3.65 2.326-1.296.26-4.941-2.059-3.65m6.862-.074c-2.478.973-.933 4.819 1.564 3.838 2.478-.973.933-4.819-1.564-3.838m6.615-.001c-2.467.987-.903 4.791 1.57 3.84 2.518-.97.971-4.858-1.57-3.84m6.63 0c-2.386.994-.819 4.736 1.555 3.839 2.653-1.003.966-4.89-1.555-3.84m6.615.031c-2.363 1.046-.81 4.696 1.556 3.809 2.743-1.029 1.03-4.953-1.556-3.809m6.601.045c-2.355 1.26-.477 4.883 1.826 3.689 2.448-1.27.587-4.98-1.826-3.689m53.443-.074c-2.478.973-.933 4.819 1.564 3.838 2.478-.973.933-4.819-1.564-3.838m73.027.074c-2.355 1.261-.477 4.883 1.828 3.689 2.447-1.27.585-4.98-1.828-3.689m6.617 0c-2.363 1.28-.304 5.001 2.05 3.613 2.305-1.36.278-4.875-2.05-3.613m6.874-.074c-2.477.973-.932 4.819 1.566 3.838 2.477-.973.931-4.819-1.566-3.838m6.614 0c-2.476.972-.931 4.819 1.567 3.838 2.497-.98.96-4.83-1.567-3.838m-246.31 6.645c-2.373 1.03-.89 4.752 1.555 3.845 2.52-.936.957-4.936-1.555-3.845m6.599.045c-2.442 1.266-.49 4.924 1.826 3.688 2.357-1.257.477-4.882-1.826-3.688m6.872-.076c-2.643 1-.963 4.912 1.534 3.84 2.379-1.022.852-4.741-1.534-3.84m6.615 0c-2.52.962-.971 4.857 1.57 3.84 2.473-.99.874-4.772-1.57-3.84m6.621 0c-2.478.973-.933 4.82 1.564 3.839 2.478-.973.934-4.82-1.564-3.839m6.615 0c-2.481.974-.924 4.817 1.564 3.876 2.484-.94.953-4.864-1.564-3.876m6.63.03c-2.413 1.05-.945 4.772 1.555 3.846 2.52-.935.957-4.936-1.554-3.845m26.706-.03c-2.477.972-.933 4.818 1.565 3.838 2.477-.973.933-4.82-1.565-3.839m6.615 0c-2.478.973-.933 4.82 1.564 3.839 2.478-.973.933-4.82-1.564-3.839m6.628 0c-2.47.996-.947 4.804 1.557 3.876 2.505-.93.936-4.881-1.557-3.876m6.617.03c-2.373 1.032-.89 4.753 1.555 3.846 2.52-.936.956-4.936-1.555-3.845m6.599.045c-2.586 1.34-.298 5.036 2.048 3.611 2.211-1.342.152-4.752-2.048-3.611m93.391-.076c-2.518.961-.969 4.869 1.568 3.84 2.407-.977.862-4.767-1.568-3.84m6.621 0c-2.47.97-.958 4.849 1.564 3.84 2.472-.99.934-4.82-1.564-3.84m13.243 0c-2.46.992-.915 4.793 1.557 3.876 2.523-.937.965-4.893-1.557-3.876m6.617.03c-2.374 1.032-.89 4.753 1.555 3.846 2.521-.936.956-4.936-1.555-3.845m6.597.044c-2.431 1.28-.497 4.914 1.831 3.689 2.432-1.28.498-4.914-1.83-3.689m6.873-.075c-2.653 1.008-.957 4.92 1.556 3.809 2.368-1.048.873-4.73-1.556-3.809m6.615 0c-2.522.961-.971 4.857 1.572 3.84 2.481-.994.904-4.784-1.572-3.84m6.62 0c-2.469.97-.958 4.849 1.566 3.84 2.471-.99.931-4.82-1.566-3.84m6.614 0c-2.484.976-.923 4.8 1.572 3.876 2.514-.932.937-4.86-1.572-3.876m6.628 0c-2.458.992-.915 4.791 1.559 3.876 2.616-.97.97-4.895-1.559-3.876m6.602.075c-2.43 1.279-.559 4.966 1.828 3.689 2.347-1.258.5-4.914-1.828-3.689m6.617 0c-2.35 1.254-.5 4.913 1.828 3.689 2.432-1.28.492-4.926-1.828-3.689m13.49-.075c-2.489.978-.983 4.86 1.567 3.84 2.471-.99.932-4.82-1.566-3.84m6.614 0c-2.476.973-.93 4.82 1.567 3.839 2.476-.973.931-4.82-1.567-3.839m-325.973 6.618c-2.788 1.01-1.118 4.964 1.555 3.836 2.313-.976.792-4.686-1.555-3.836m6.615 0c-2.745.994-1.072 4.936 1.556 3.836 2.357-.987.784-4.684-1.556-3.836m6.615 0c-2.623.96-.977 4.856 1.571 3.836 2.45-.98.767-4.692-1.57-3.836m20.113-.024c-2.708.806-1.346 4.9 1.308 3.897 2.35-.89 1.14-4.624-1.308-3.897m13.223.024c-2.745.994-1.072 4.936 1.556 3.836 2.357-.987.785-4.684-1.556-3.836m6.615 0c-2.707.987-1.084 4.917 1.568 3.836 2.41-.981.78-4.692-1.568-3.836m6.622 0c-2.502.936-.988 4.857 1.564 3.836 2.446-.979.765-4.707-1.564-3.836m6.614-.003c-2.492.97-.986 4.86 1.564 3.84 2.479-.993.904-4.8-1.564-3.84m6.628.03c-2.447 1.04-.957 4.797 1.558 3.846 2.507-.948.899-4.889-1.558-3.845m33.324-.028c-2.506.938-.977 4.854 1.565 3.873 2.499-.965.875-4.787-1.565-3.873m6.615-.003c-2.476.964-.948 4.846 1.564 3.876 2.486-.96.922-4.844-1.564-3.876m6.869.003c-2.66.95-1.291 4.839 1.316 3.872 2.353-.872 1.11-4.74-1.316-3.872m6.617 0c-2.621.949-1.305 4.838 1.314 3.872 2.503-.923 1.153-4.765-1.314-3.872m6.615 0c-2.745.994-1.072 4.936 1.555 3.836 2.358-.986.785-4.684-1.555-3.836m59.803-.003c-2.476.964-.948 4.846 1.564 3.876 2.486-.96.922-4.844-1.564-3.876m6.878-.02c-2.708.805-1.347 4.9 1.308 3.896 2.35-.89 1.14-4.624-1.308-3.897m19.838.024c-2.7.984-1.082 4.94 1.555 3.836 2.39-1 .803-4.696-1.555-3.836m26.73-.024c-2.666.799-1.36 4.905 1.306 3.897 2.349-.888 1.14-4.63-1.306-3.897m6.607.024c-2.612.945-1.271 4.826 1.314 3.872 2.502-.924 1.153-4.765-1.314-3.872m6.616 0c-2.699.984-1.082 4.94 1.555 3.836 2.355-.986.784-4.69-1.555-3.836m6.614 0c-2.67.974-1.077 4.9 1.572 3.836 2.447-.984.767-4.69-1.572-3.836m6.62 0c-2.5.936-.987 4.857 1.567 3.836 2.47-.989.788-4.717-1.567-3.836m6.615-.003c-2.495.971-.977 4.857 1.566 3.876 2.485-.96.92-4.844-1.566-3.876m6.614.03c-2.46 1.027-.934 4.793 1.572 3.846 2.506-.948.934-4.89-1.572-3.846m6.874-.027c-2.616.947-1.325 4.87 1.313 3.873 2.36-.893 1.143-4.762-1.313-3.873m6.615 0c-2.747.994-1.074 4.936 1.556 3.836 2.354-.986.783-4.683-1.556-3.836m6.614 0c-2.698.984-1.082 4.94 1.556 3.836 2.39-1 .802-4.696-1.556-3.836m6.615 0c-2.53.927-.974 4.854 1.572 3.836 2.45-.98.764-4.693-1.572-3.836m6.62 0c-2.506.941-.976 4.854 1.566 3.873 2.493-.963.905-4.802-1.566-3.873m6.614.027c-2.46 1.027-.934 4.793 1.572 3.846 2.506-.948.934-4.89-1.572-3.846m6.63 0c-2.412 1.049-.944 4.772 1.557 3.845 2.503-.928.928-4.922-1.556-3.845m-332.604 6.595c-2.654.889-1.262 4.982 1.307 4.012 2.446-.922 1.165-4.84-1.307-4.012m6.616-.001c-2.566.884-1.222 4.947 1.313 4.013 2.56-.943 1.214-4.884-1.313-4.013m6.878-.044c-2.592.6-1.784 4.625.789 4.155 2.758-.504 1.875-4.77-.789-4.155m6.614 0c-2.638.611-1.498 4.849 1.05 4.073 2.515-.764 1.456-4.653-1.05-4.073m6.622.021c-2.598.687-1.508 4.82 1.046 4.052 2.562-.769 1.472-4.717-1.046-4.052m6.608.024c-2.471.827-1.469 4.786 1.053 4.028 2.574-.773 1.519-4.89-1.053-4.028m6.614 0c-2.645.885-1.299 4.923 1.308 3.976 2.374-.864 1.14-4.796-1.308-3.976m6.615-.001c-2.619.896-1.241 4.971 1.307 4.013 2.534-.952 1.233-4.882-1.307-4.013m6.622 0c-2.543.894-1.221 4.896 1.306 4.043 2.619-.883 1.241-4.939-1.306-4.043m6.872-.023c-2.619.679-1.568 4.854 1.05 4.052 2.51-.768 1.448-4.7-1.05-4.052m6.62 0c-2.596.687-1.504 4.828 1.045 4.052 2.523-.767 1.483-4.72-1.044-4.052m6.615 0c-2.537.69-1.482 4.812 1.046 4.052 2.558-.768 1.532-4.753-1.046-4.052m6.607.024c-2.648.887-1.28 4.969 1.308 3.954 2.347-.92 1.136-4.772-1.308-3.954m33.335 0c-2.51.83-1.456 4.783 1.056 4.028 2.574-.773 1.483-4.869-1.056-4.028m6.617 0c-2.474.829-1.447 4.82 1.053 4.069 2.568-.772 1.537-4.936-1.053-4.07m6.615 0c-2.654.89-1.263 4.983 1.307 4.013 2.446-.922 1.165-4.84-1.307-4.012m6.615-.008c-2.551.931-1.203 4.928 1.314 4.02 2.6-.94 1.229-4.947-1.314-4.02m53.445-.037c-2.465.571-1.753 4.62.79 4.155 2.757-.504 1.874-4.772-.79-4.155m6.622.021c-2.598.687-1.505 4.828 1.043 4.052 2.524-.767 1.484-4.72-1.043-4.052m6.605.024c-2.514.823-1.455 4.783 1.056 4.028 2.582-.775 1.494-4.863-1.056-4.028m6.617 0c-2.648.887-1.28 4.969 1.307 3.954 2.348-.92 1.137-4.772-1.307-3.954m20.109-.024c-2.518.653-1.803 4.627.788 4.135 2.76-.525 1.859-4.82-.788-4.135m13.235 0c-2.597.687-1.507 4.82 1.047 4.052 2.561-.769 1.472-4.717-1.047-4.052m6.608.024c-2.47.827-1.468 4.786 1.053 4.028 2.575-.773 1.52-4.89-1.053-4.028m6.615-.008c-2.618.948-1.305 4.932 1.307 3.984 2.457-.893 1.167-4.88-1.307-3.984m6.616 0c-2.598.94-1.196 4.925 1.312 4.02 2.572-.929 1.21-4.933-1.312-4.02m6.874-.037c-2.572.588-1.805 4.557.793 4.134 2.773-.451 1.868-4.742-.793-4.134m6.62.021c-2.62.679-1.57 4.854 1.047 4.052 2.511-.768 1.45-4.7-1.048-4.052m6.62 0c-2.598.687-1.508 4.82 1.048 4.052 2.561-.769 1.471-4.717-1.048-4.052m6.604.024c-2.508.83-1.455 4.783 1.059 4.028 2.574-.773 1.521-4.88-1.059-4.028m6.62 0c-2.471.827-1.481 4.735 1.048 4.079 2.63-.682 1.54-4.946-1.048-4.08m6.615-.007c-2.598.94-1.249 4.98 1.307 4.02 2.532-.952 1.228-4.938-1.307-4.02m6.874-.037c-2.649.605-1.818 4.653.793 4.156 2.704-.516 1.884-4.767-.793-4.156m6.62.021c-2.612.677-1.599 4.872 1.047 4.053 2.509-.776 1.45-4.7-1.047-4.053m6.614 0c-2.625.68-1.487 4.825 1.048 4.052 2.53-.769 1.484-4.708-1.048-4.052m6.61.024c-2.525.835-1.49 4.794 1.058 4.028 2.574-.773 1.521-4.88-1.059-4.028m6.62-.001c-2.643.904-1.283 4.97 1.307 3.955 2.342-.918 1.16-4.799-1.307-3.955m6.615 0c-2.463.842-1.484 4.736 1.048 4.08 2.754-.713 1.627-4.996-1.048-4.08m6.614-.007c-2.555.932-1.267 4.94 1.313 4.05 2.585-.89 1.22-4.973-1.313-4.05m6.874-.037c-2.574.589-1.788 4.646.794 4.156 2.754-.524 1.876-4.766-.794-4.156m-359.303 6.632c-2.574.47-2.052 4.493.527 4.184 2.699-.323 2.15-4.674-.527-4.184m6.615-.001c-2.568.487-2.056 4.493.528 4.185 2.811-.334 2.188-4.701-.528-4.185m6.617.02c-2.634.582-1.855 4.739.789 4.135 2.65-.605 1.808-4.707-.789-4.134m6.615-.003c-2.544.594-1.794 4.65.789 4.16 2.74-.518 1.897-4.787-.789-4.16m6.621 0c-2.447.583-1.705 4.637.783 4.16 2.736-.522 1.894-4.798-.783-4.16m6.869.004c-2.652.396-2.103 4.616.529 4.154 2.609-.459 2.11-4.548-.529-4.154m6.615-.021c-2.572.47-2.053 4.497.524 4.184 2.665-.323 2.166-4.676-.524-4.184m6.615-.001c-2.568.487-2.056 4.493.528 4.185 2.736-.325 2.156-4.695-.528-4.185m6.615 0c-2.7.514-1.897 4.688.79 4.142 2.674-.543 1.81-4.638-.79-4.142m6.617.02c-2.63.58-1.868 4.66.789 4.122 2.743-.556 1.868-4.707-.789-4.121m6.621-.003c-2.445.583-1.768 4.608.782 4.158 2.744-.484 1.896-4.796-.782-4.158m6.869.004c-2.66.398-2.075 4.651.53 4.157 2.595-.493 2.114-4.553-.53-4.157m6.615-.021c-2.589.46-2.074 4.598.528 4.174 2.63-.429 2.084-4.638-.528-4.174m6.615-.001c-2.568.487-2.056 4.495.527 4.185 2.692-.323 2.17-4.698-.527-4.185m6.615 0c-2.705.515-1.884 4.766.791 4.155 2.65-.605 1.82-4.653-.791-4.155m26.722.022c-2.66.397-2.051 4.573.528 4.153 2.619-.427 2.107-4.547-.528-4.153m6.615-.021c-2.572.47-2.053 4.497.524 4.184 2.665-.323 2.166-4.676-.524-4.184m59.799.02c-2.636.58-1.859 4.658.789 4.158 2.724-.515 1.849-4.74-.79-4.158m6.615.01c-2.629.682-1.537 4.946 1.05 4.08 2.471-.828 1.48-4.735-1.05-4.08m6.876-.009c-2.653.396-2.103 4.616.529 4.154 2.609-.459 2.11-4.549-.53-4.154m6.355.006c-2.504.826-1.462 4.9 1.053 4.082 2.543-.828 1.443-4.905-1.053-4.082m6.876-.007c-2.778.454-1.859 4.748.789 4.17 2.464-.536 1.759-4.587-.79-4.17m6.616 0c-2.69.586-1.876 4.744.79 4.134 2.605-.595 1.809-4.7-.79-4.134m6.617 0c-2.639.581-1.847 4.737.788 4.17 2.656-.57 1.863-4.754-.788-4.17m6.615-.003c-2.545.594-1.794 4.65.788 4.16 2.74-.518 1.897-4.787-.788-4.16m6.611.024c-2.567.771-1.5 4.914 1.056 4.068 2.514-.832 1.435-4.817-1.056-4.068m6.879-.02c-2.66.397-2.052 4.573.528 4.153 2.619-.427 2.107-4.547-.528-4.153m6.353.006c-2.478.818-1.476 4.76 1.05 4.106 2.643-.685 1.439-4.926-1.05-4.106m6.877-.029c-2.759.525-1.867 4.771.788 4.193 2.544-.554 1.814-4.687-.788-4.193m6.618.022c-2.635.58-1.857 4.738.789 4.134 2.65-.605 1.85-4.715-.789-4.134m6.615-.003c-2.625.612-1.865 4.662.788 4.16 2.739-.517 1.897-4.787-.788-4.16m6.614-.013c-2.63.681-1.55 4.975 1.048 4.105 2.474-.828 1.482-4.76-1.048-4.105m6.61.023c-2.538.827-1.508 4.932 1.058 4.082 2.535-.84 1.447-4.897-1.058-4.082m6.879-.006c-2.66.397-2.05 4.573.53 4.153 2.618-.427 2.105-4.547-.53-4.153m6.615-.023c-2.752.524-1.874 4.773.788 4.156 2.46-.57 1.775-4.642-.788-4.156m6.614 0c-2.76.525-1.865 4.764.794 4.193 2.654-.57 1.828-4.69-.794-4.193m6.62.022c-2.64.581-1.85 4.735.788 4.17 2.704-.578 1.855-4.753-.788-4.17m6.615-.003c-2.474.578-1.794 4.613.788 4.158 2.746-.484 1.897-4.786-.788-4.158m6.614.013c-2.63.682-1.542 4.937 1.053 4.08 2.508-.83 1.469-4.734-1.053-4.08m6.874-.01c-2.651.397-2.072 4.48.527 4.164 2.661-.323 2.11-4.557-.527-4.163m6.615-.001c-2.593.424-2.043 4.424.526 4.177 2.657-.255 2.175-4.619-.526-4.177m6.614-.022c-2.754.524-1.876 4.766.794 4.156 2.603-.595 1.815-4.65-.794-4.156m6.62.022c-2.638.58-1.86 4.658.789 4.157 2.722-.514 1.849-4.738-.789-4.157m6.615-.003c-2.55.595-1.837 4.656.788 4.16 2.739-.517 1.897-4.787-.788-4.16m-352.43 6.645c-2.81.177-2.442 4.373.264 4.18 2.665-.189 2.401-4.348-.265-4.18m13.23.01c-2.601.28-2.406 4.36.264 4.17 2.737-.194 2.52-4.468-.264-4.17m33.338-.01c-2.721.173-2.45 4.373.263 4.18 2.683-.19 2.44-4.352-.263-4.18m6.614.01c-2.601.28-2.406 4.36.264 4.17 2.738-.194 2.52-4.468-.264-4.17m33.337-.007c-2.766.14-2.439 4.37.264 4.178 2.689-.191 2.423-4.314-.264-4.178m6.616-.003c-2.71.172-2.408 4.37.263 4.18 2.727-.193 2.485-4.354-.263-4.18m53.18.01c-2.501.27-2.285 4.352.265 4.17 2.786-.197 2.513-4.467-.265-4.17m39.952 0c-2.501.27-2.285 4.352.265 4.17 2.786-.197 2.513-4.467-.265-4.17m26.723-.006c-2.768.106-2.44 4.369.264 4.177 2.676-.19 2.33-4.276-.264-4.177m13.233-.003c-2.616.168-2.33 4.364.26 4.18 2.735-.195 2.53-4.36-.26-4.18m13.226.003c-2.622.335-2.17 4.522.527 4.194 2.67-.325 2.1-4.529-.527-4.194m13.493 0c-2.817.108-2.44 4.369.264 4.177 2.676-.19 2.33-4.276-.264-4.177m6.615-.003c-2.71.171-2.405 4.37.264 4.18 2.678-.19 2.482-4.355-.264-4.18m39.952.002c-2.815.142-2.44 4.37.264 4.178 2.67-.19 2.387-4.312-.264-4.178m6.614-.002c-2.709.171-2.407 4.37.265 4.18 2.725-.194 2.484-4.355-.265-4.18m6.615.01c-2.675.287-2.183 4.681.529 4.163 2.535-.484 2.103-4.445-.53-4.163m39.956-.01c-2.633.169-2.413 4.37.262 4.18 2.733-.194 2.529-4.36-.262-4.18m-346.844.232c-2.356.987-.784 4.69 1.555 3.837 2.712-.99 1.112-4.953-1.555-3.837m13.217.076c-2.203 1.194-.49 4.828 1.831 3.648 2.535-1.288.583-4.956-1.831-3.648m6.628 0c-2.28 1.278-.366 4.828 2 3.636 2.398-1.208.373-4.967-2-3.636m6.614 0c-2.318 1.3-.221 4.897 2.06 3.648 2.354-1.29.309-4.976-2.06-3.648m6.862-.076c-2.45.98-.767 4.692 1.571 3.837 2.624-.96.978-4.856-1.57-3.837m19.847.076c-2.203 1.194-.49 4.828 1.832 3.648 2.534-1.288.582-4.956-1.832-3.648m6.615 0c-2.344 1.278-.318 4.937 2.072 3.545 2.3-1.34.247-4.81-2.072-3.545m13.49-.076c-2.451.98-.767 4.693 1.57 3.837 2.53-.928.973-4.855-1.57-3.837m33.09.076c-2.306 1.292-.28 4.95 2.059 3.649 2.32-1.292.29-4.967-2.06-3.65m39.953 0c-2.333 1.308-.312 4.878 2.059 3.612 2.34-1.25.275-4.92-2.06-3.611m20.108-.076c-2.39 1-.803 4.696 1.555 3.837 2.7-.985 1.082-4.94-1.555-3.837m6.636 0c-2.306 1.003-.825 4.69 1.534 3.837 2.747-.995 1.097-4.98-1.534-3.837m19.823.076c-2.315 1.298-.287 4.864 2.06 3.611 2.366-1.264.293-4.93-2.06-3.611m6.862-.076c-2.45.98-.766 4.693 1.571 3.837 2.53-.928.973-4.855-1.57-3.837m13.245 0c-2.358.987-.785 4.684 1.555 3.837 2.758-.999 1.102-4.949-1.555-3.837m13.217.076c-2.335 1.265-.323 4.938 2.05 3.575 2.322-1.333.26-4.828-2.05-3.575m13.242 0c-2.305 1.292-.16 4.862 2.059 3.648 2.356-1.289.31-4.976-2.059-3.648m20.109-.045c-2.445 1.094-.55 4.917 1.812 3.693 2.487-1.29.683-4.81-1.812-3.693m6.6.045c-2.224 1.205-.491 4.869 1.832 3.688 2.535-1.287.6-5.007-1.831-3.688m6.614 0c-2.333 1.272-.277 4.987 2.051 3.649 2.318-1.33.325-4.945-2.05-3.65m6.627 0c-2.328 1.305-.27 4.944 2.059 3.65 2.347-1.304.31-4.977-2.059-3.65m6.615 0c-2.313 1.297-.164 4.84 2.072 3.65 2.376-1.266.29-4.974-2.072-3.65m26.71 0c-2.334 1.273-.286 4.991 2.05 3.613 2.302-1.357.31-4.9-2.05-3.612m6.627 0c-2.333 1.308-.272 4.928 2.059 3.648 2.355-1.293.31-4.976-2.059-3.648m6.861-.076c-2.463.987-.804 4.758 1.566 3.84 2.493-.967.987-4.86-1.566-3.84m6.615 0c-2.45.982-.768 4.69 1.571 3.837 2.678-.977 1.045-4.884-1.571-3.837m6.617 0c-2.373.968-.76 4.686 1.569 3.837 2.72-.992 1.114-4.93-1.57-3.837m-346.073 6.646c-2.382 1.025-.783 4.7 1.568 3.808 2.61-.99.969-4.9-1.568-3.808m6.628 0c-2.53 1.12-.548 4.917 1.813 3.693 2.441-1.266.613-4.767-1.813-3.693m6.601.045c-2.357 1.258-.477 4.882 1.826 3.688 2.47-1.281.58-4.973-1.826-3.688m6.87-.075c-2.498.96-.917 4.836 1.558 3.838 2.467-.995.956-4.805-1.558-3.838m6.621 0c-2.478.973-.933 4.819 1.564 3.838 2.478-.973.934-4.819-1.564-3.838m6.615 0c-2.478.973-.933 4.819 1.564 3.838 2.497-.98.962-4.83-1.564-3.838m6.63-.001c-2.385.994-.817 4.74 1.555 3.839 2.512-.954.967-4.89-1.555-3.84m6.615.032c-2.362 1.044-.808 4.7 1.555 3.808 2.693-1.017.97-4.925-1.555-3.808m6.601.045c-2.355 1.26-.477 4.882 1.826 3.688 2.448-1.27.587-4.98-1.826-3.688m6.616 0c-2.336 1.265-.286 4.99 2.051 3.612 2.305-1.36.279-4.875-2.05-3.612m6.874-.075c-2.478.973-.933 4.819 1.564 3.838 2.478-.973.934-4.819-1.564-3.838m13.23 0c-2.443.959-.847 4.77 1.57 3.838 2.525-.973.947-4.827-1.57-3.838m6.63-.001c-2.386.994-.819 4.736 1.555 3.839 2.653-1.003.966-4.89-1.555-3.84m6.599.077c-2.439 1.283-.475 4.882 1.828 3.688 2.454-1.273.562-4.947-1.828-3.688m79.92-.045c-2.528 1.117-.54 4.987 1.81 3.733 2.377-1.267.581-4.79-1.81-3.733m6.601.045c-2.35 1.254-.501 4.913 1.826 3.688 2.444-1.285.556-4.96-1.826-3.688m6.616 0c-2.36 1.278-.288 5.018 2.044 3.648 2.29-1.344.31-4.924-2.044-3.648m13.49-.075c-2.478.973-.934 4.819 1.564 3.838 2.478-.973.933-4.819-1.564-3.838m6.614 0c-2.445.96-.88 4.782 1.571 3.838 2.525-.972.947-4.827-1.57-3.838m6.63-.001c-2.386.994-.819 4.736 1.555 3.839 2.653-1.003.965-4.89-1.555-3.84m6.615.032c-2.537 1.122-.522 4.943 1.812 3.733 2.442-1.267.632-4.815-1.812-3.733m6.6.045c-2.311 1.238-.473 4.88 1.827 3.688 2.465-1.279.611-4.995-1.826-3.688m6.876-.075c-2.478.973-.933 4.819 1.564 3.838 2.478-.973.934-4.819-1.564-3.838m6.615 0c-2.478.973-.933 4.819 1.564 3.838 2.478-.973.933-4.819-1.564-3.838m6.614-.001c-2.467.988-.87 4.787 1.565 3.839 2.492-.97.986-4.86-1.565-3.84m6.631 0c-2.386.995-.818 4.74 1.555 3.84 2.603-.987.971-4.892-1.555-3.84m6.613.032c-2.526 1.118-.547 4.975 1.815 3.733 2.432-1.28.633-4.816-1.815-3.733m6.602.045c-2.355 1.26-.477 4.882 1.828 3.688 2.463-1.279.611-4.993-1.828-3.688m6.617 0c-2.342 1.269-.36 4.907 2.013 3.672 2.398-1.247.363-4.96-2.013-3.672m6.874-.075c-2.477.973-.932 4.819 1.566 3.838 2.477-.973.931-4.819-1.566-3.838m6.614 0c-2.476.973-.931 4.819 1.567 3.838 2.497-.98.96-4.83-1.567-3.838m6.615-.001c-2.471.99-.873 4.771 1.572 3.839 2.518-.961.97-4.856-1.572-3.84m6.63 0c-2.386.996-.81 4.738 1.556 3.877 2.662-.969.987-4.935-1.556-3.876m6.6.076c-2.438 1.283-.474 4.882 1.83 3.688 2.453-1.273.56-4.947-1.83-3.688m6.619 0c-2.373 1.286-.302 5 2.072 3.581 2.291-1.368.235-4.832-2.072-3.581m6.869-.075c-2.506.964-.919 4.815 1.571 3.838 2.482-.975.934-4.802-1.571-3.838m6.62 0c-2.477.973-.932 4.819 1.566 3.838 2.476-.973.931-4.819-1.567-3.838m13.232.03c-2.381 1.025-.775 4.698 1.57 3.845 2.666-.97.983-4.943-1.57-3.845m-339.446 6.615c-2.402 1.043-.914 4.756 1.555 3.845 2.667-.985.952-4.934-1.555-3.845m20.093-.03c-2.49.977-.987 4.86 1.564 3.839 2.461-.985.9-4.808-1.564-3.84m6.614 0c-2.478.973-.933 4.82 1.564 3.839 2.478-.973.934-4.82-1.564-3.839m6.615 0c-2.486.977-.925 4.801 1.57 3.876 2.513-.932.938-4.86-1.57-3.876m6.63.031c-2.401 1.043-.913 4.76 1.555 3.845 2.52-.935.957-4.936-1.555-3.845m6.856-.028c-2.589.938-1.153 4.764 1.315 3.872 2.554-.923 1.143-4.762-1.315-3.872m6.615 0c-2.664.972-.965 4.887 1.555 3.837 2.392-.997.803-4.696-1.555-3.837m6.622-.002c-2.493.97-.987 4.86 1.564 3.839 2.44-.977.849-4.779-1.564-3.84m19.86.031c-2.414 1.048-.946 4.771 1.554 3.845 2.52-.935.957-4.936-1.554-3.845m6.855-.028c-2.59.938-1.218 4.799 1.314 3.872 2.506-.916 1.152-4.764-1.314-3.872m6.615 0c-2.704.98-.953 4.905 1.534 3.837 2.385-1.025.838-4.695-1.534-3.837m6.615-.002c-2.52.96-.971 4.856 1.571 3.839 2.445-.979.85-4.763-1.57-3.84m59.815 0c-2.47.996-.947 4.804 1.557 3.876 2.505-.93.936-4.881-1.557-3.876m6.617.031c-2.401 1.043-.913 4.76 1.555 3.845 2.52-.935.956-4.936-1.555-3.845m13.471-.028c-2.664.977-.957 4.916 1.555 3.806 2.375-1.05.86-4.69-1.555-3.806m13.236-.003c-2.478.973-.933 4.82 1.564 3.839 2.478-.973.933-4.82-1.564-3.839m6.615 0c-2.486.977-.925 4.801 1.57 3.876 2.513-.932.938-4.86-1.57-3.876m6.63 0c-2.434.995-.958 4.807 1.555 3.876 2.522-.936.962-4.905-1.555-3.876m6.863-.02c-2.641.79-1.275 4.849 1.307 3.896 2.5-.924 1.192-4.645-1.307-3.896m6.607.023c-2.581.935-1.198 4.645 1.308 3.896 2.65-.791 1.19-4.8-1.308-3.896m6.616-.002c-2.66 1.01-.966 4.885 1.57 3.808 2.425-1.029.84-4.723-1.57-3.808m6.621 0c-2.49.977-.986 4.86 1.564 3.839 2.472-.99.934-4.82-1.564-3.84m6.615 0c-2.478.973-.933 4.82 1.564 3.839 2.478-.973.933-4.82-1.564-3.839m6.628.03c-2.45 1.05-.935 4.77 1.557 3.846 2.504-.929.932-4.911-1.557-3.845m6.6.045c-2.447 1.27-.585 4.98 1.827 3.688 2.31-1.239.474-4.88-1.826-3.688m6.873-.073c-2.585.935-1.215 4.8 1.312 3.873 2.582-.948 1.167-4.77-1.312-3.873m6.614-.002c-2.653 1.002-.965 4.889 1.556 3.839 2.384-.995.818-4.736-1.556-3.84m6.615 0c-2.522.961-.971 4.857 1.572 3.84 2.481-.994.904-4.784-1.572-3.84m6.62 0c-2.49.978-.984 4.86 1.566 3.84 2.471-.99.931-4.82-1.566-3.84m6.614 0c-2.484.977-.923 4.8 1.572 3.876 2.514-.932.937-4.86-1.572-3.876m6.63.031c-2.412 1.048-.944 4.771 1.557 3.845 2.521-.935.957-4.936-1.556-3.845m6.858-.028c-2.583.935-1.212 4.806 1.312 3.873 2.538-.938 1.175-4.773-1.312-3.873m6.614-.002c-2.693 1.017-.97 4.924 1.556 3.808 2.36-1.044.807-4.701-1.556-3.808m6.615 0c-2.521.96-.971 4.856 1.572 3.839 2.47-.99.873-4.772-1.572-3.84m19.862 0c-2.468.996-.947 4.804 1.559 3.876 2.524-.936.965-4.893-1.559-3.876m6.617.031c-2.383 1.036-.923 4.759 1.556 3.845 2.667-.984.953-4.934-1.556-3.845m-312.752 6.617c-2.47.99-.93 4.806 1.564 3.843 2.492-.962.905-4.83-1.564-3.843m6.88-.054c-2.666.799-1.36 4.905 1.306 3.897 2.348-.888 1.14-4.63-1.307-3.897m6.607.024c-2.621.95-1.303 4.842 1.314 3.872 2.366-.877 1.141-4.76-1.314-3.872m6.615 0c-2.745.994-1.069 4.943 1.555 3.836 2.313-.976.791-4.686-1.555-3.836m6.615 0c-2.67.974-1.075 4.9 1.571 3.836 2.45-.984.768-4.689-1.57-3.836m6.62 0c-2.506.937-.977 4.854 1.565 3.873 2.457-.949.78-4.75-1.564-3.873m6.614 0c-2.505.941-.977 4.854 1.564 3.873 2.494-.963.907-4.802-1.564-3.873m13.486 0c-2.615.947-1.325 4.871 1.314 3.873 2.36-.892 1.142-4.762-1.314-3.873m6.615 0c-2.584.935-1.287 4.687 1.307 3.896 2.565-.782 1.177-4.795-1.307-3.896m6.616 0c-2.695.983-1.05 4.927 1.554 3.836 2.39-1 .803-4.696-1.554-3.836m66.67 0c-2.653.949-1.312 4.867 1.317 3.873 2.346-.887 1.111-4.74-1.316-3.873m6.617 0c-2.621.95-1.303 4.842 1.314 3.872 2.366-.877 1.141-4.76-1.314-3.872m6.615 0c-2.745.994-1.072 4.936 1.555 3.836 2.358-.986.785-4.683-1.555-3.836m6.615 0c-2.702.985-1.052 4.904 1.568 3.836 2.41-.982.78-4.692-1.568-3.836m6.622 0c-2.503.936-.988 4.858 1.564 3.836 2.446-.979.764-4.707-1.564-3.836m6.614.03c-2.492.993-.96 4.817 1.564 3.843 2.481-.958.803-4.786-1.564-3.843m6.878-.053c-2.713.787-1.348 4.9 1.308 3.896 2.355-.89 1.116-4.598-1.308-3.896m6.608.023c-2.615.947-1.325 4.871 1.314 3.873 2.344-.887 1.108-4.75-1.314-3.873m6.615 0c-2.735.99-1.067 4.967 1.534 3.836 2.306-1.003.825-4.69-1.534-3.836m6.615 0c-2.7.985-1.082 4.94 1.555 3.836 2.39-1 .803-4.696-1.555-3.836m6.615 0c-2.53.927-.973 4.854 1.57 3.836 2.451-.98.767-4.693-1.57-3.836m6.621 0c-2.505.942-.977 4.854 1.564 3.873 2.484-.959.875-4.79-1.564-3.873m6.615.028c-2.46 1.026-.935 4.792 1.57 3.845 2.506-.947.935-4.89-1.57-3.845m6.879-.052c-2.666.799-1.36 4.905 1.306 3.897 2.349-.888 1.14-4.63-1.306-3.897m6.607.024c-2.622.95-1.305 4.838 1.314 3.872 2.502-.923 1.153-4.765-1.314-3.872m6.616 0c-2.688.98-1.082 4.964 1.532 3.836 2.35-1.013.82-4.693-1.532-3.836m6.614 0c-2.67.973-1.074 4.912 1.57 3.836 2.407-.981.777-4.692-1.57-3.836m6.615 0c-2.535.929-.963 4.85 1.572 3.873 2.46-.95.78-4.736-1.572-3.873m6.62-.003c-2.495.971-.977 4.857 1.566 3.876 2.485-.96.92-4.843-1.566-3.876m6.614.03c-2.46 1.027-.934 4.793 1.572 3.846 2.506-.947.934-4.89-1.572-3.845m6.88-.052c-2.665.798-1.358 4.905 1.307 3.897 2.365-.894 1.174-4.64-1.307-3.897m6.609.024c-2.778 1.006-1.12 4.98 1.532 3.836 2.35-1.013.82-4.688-1.532-3.836m6.614 0c-2.706.987-1.084 4.917 1.57 3.836 2.407-.981.777-4.692-1.57-3.836m6.615 0c-2.53.927-.974 4.854 1.572 3.836 2.45-.98.764-4.693-1.572-3.836m20.103 0c-2.654.949-1.312 4.867 1.318 3.873 2.347-.887 1.11-4.74-1.318-3.873m-299.504 6.622c-2.471.827-1.469 4.786 1.053 4.029 2.574-.774 1.519-4.89-1.053-4.029m6.614 0c-2.645.886-1.299 4.923 1.308 3.976 2.374-.864 1.14-4.796-1.308-3.976m6.615 0c-2.608.873-1.241 4.898 1.307 3.976 2.559-.926 1.192-4.813-1.307-3.976m6.879-.031c-2.638.542-1.821 4.637.789 4.142 2.747-.522 1.89-4.694-.789-4.142m6.615.007c-2.61.677-1.597 4.872 1.05 4.053 2.506-.776 1.45-4.7-1.05-4.053m6.614 0c-2.622.68-1.486 4.825 1.05 4.053 2.528-.77 1.484-4.71-1.05-4.053m6.612.024c-2.514.823-1.455 4.783 1.056 4.029 2.582-.776 1.494-4.864-1.056-4.029m6.617 0c-2.644.886-1.299 4.923 1.308 3.976 2.375-.864 1.14-4.796-1.308-3.976m6.615-.001c-2.647.906-1.265 4.98 1.307 4.013 2.534-.952 1.233-4.882-1.307-4.013m6.616 0c-2.572.886-1.205 4.892 1.312 4.043 2.593-.874 1.221-4.916-1.312-4.043m73.288 0c-2.647.906-1.263 4.984 1.307 4.013 2.353-.889 1.18-4.864-1.307-4.013m6.615 0c-2.574.887-1.256 4.96 1.314 4.013 2.561-.943 1.213-4.884-1.314-4.013m6.876-.044c-2.65.605-1.82 4.652.792 4.156 2.754-.524 1.876-4.765-.792-4.156m6.617.021c-2.439.632-1.774 4.621.79 4.135 2.76-.525 1.858-4.82-.79-4.135m6.622 0c-2.598.687-1.508 4.82 1.046 4.052 2.562-.769 1.472-4.717-1.046-4.052m6.605.024c-2.514.823-1.455 4.783 1.056 4.028 2.582-.775 1.494-4.863-1.056-4.028m6.617 0c-2.648.887-1.28 4.97 1.307 3.954 2.348-.92 1.137-4.772-1.307-3.954m6.615-.001c-2.647.906-1.265 4.98 1.307 4.013 2.534-.952 1.233-4.882-1.307-4.013m6.615-.006c-2.544.927-1.233 4.928 1.314 4.05 2.613-.901 1.24-4.982-1.314-4.05m6.879-.017c-2.518.653-1.803 4.627.788 4.135 2.76-.525 1.859-4.82-.788-4.135m6.614 0c-2.622.68-1.486 4.825 1.05 4.053 2.528-.77 1.484-4.71-1.05-4.053m6.621 0c-2.586.684-1.469 4.809 1.047 4.053 2.561-.77 1.472-4.718-1.047-4.053m6.608.024c-2.47.827-1.468 4.786 1.053 4.029 2.575-.774 1.52-4.89-1.053-4.029m6.615-.001c-2.638.903-1.3 4.923 1.307 3.977 2.46-.893 1.17-4.824-1.307-3.977m6.875-.044c-2.648.605-1.86 4.756.788 4.137 2.625-.612 1.86-4.741-.788-4.137m6.615 0c-2.649.605-1.818 4.652.793 4.156 2.755-.524 1.876-4.765-.793-4.156m6.62.021c-2.612.677-1.599 4.872 1.047 4.053 2.508-.776 1.45-4.7-1.048-4.053m6.615 0c-2.625.68-1.49 4.816 1.053 4.052 2.564-.77 1.471-4.706-1.053-4.052m6.61.024c-2.509.83-1.456 4.783 1.058 4.028 2.574-.773 1.521-4.88-1.059-4.028m6.62 0c-2.656.889-1.262 4.983 1.307 4.012 2.358-.89 1.157-4.837-1.307-4.012m6.615-.001c-2.649.905-1.265 4.98 1.307 4.013 2.532-.952 1.233-4.882-1.307-4.013m6.874-.023c-2.622.67-1.82 4.631.793 4.135 2.76-.525 1.86-4.813-.793-4.135m6.62 0c-2.612.677-1.599 4.872 1.047 4.053 2.509-.776 1.45-4.7-1.047-4.053m-272.79 6.631c-2.598.423-2.042 4.421.527 4.178 2.684-.255 2.205-4.623-.527-4.178m6.615-.021c-2.685.512-1.85 4.758.79 4.155 2.65-.605 1.82-4.653-.79-4.155m6.617.021c-2.584.57-1.813 4.727.789 4.134 2.719-.62 1.879-4.722-.789-4.134m6.621-.003c-2.445.583-1.768 4.608.782 4.158 2.744-.484 1.896-4.796-.782-4.158m6.869.004c-2.653.397-2.142 4.668.53 4.157 2.587-.496 2.072-4.546-.53-4.157m6.615 0c-2.609.393-2.073 4.519.527 4.157 2.679-.373 2.098-4.552-.527-4.157m6.615-.022c-2.754.523-1.875 4.772.789 4.155 2.46-.57 1.775-4.642-.789-4.155m6.615.021c-2.694.587-1.868 4.742.791 4.171 2.626-.564 1.794-4.734-.791-4.17m6.617 0c-2.635.58-1.858 4.659.789 4.157 2.693-.51 1.89-4.748-.789-4.158m60.057.001c-2.66.398-2.051 4.574.528 4.153 2.619-.427 2.107-4.547-.528-4.153m6.615 0c-2.603.392-2.035 4.47.527 4.163 2.696-.323 2.097-4.558-.527-4.163m6.615-.021c-2.759.504-1.875 4.771.788 4.154 2.466-.57 1.754-4.62-.788-4.154m6.615.02c-2.673.582-1.834 4.735.79 4.171 2.656-.57 1.822-4.74-.79-4.17m6.617 0c-2.636.58-1.805 4.726.789 4.17 2.723-.583 1.891-4.761-.79-4.17m6.615.01c-2.621.679-1.56 4.973 1.05 4.08 2.462-.843 1.484-4.737-1.05-4.08m6.876-.01c-2.646.396-2.147 4.623.529 4.154 2.602-.456 2.066-4.543-.53-4.154m6.616 0c-2.609.393-2.074 4.519.527 4.157 2.678-.373 2.098-4.552-.527-4.157m6.615 0c-2.598.422-2.042 4.42.527 4.177 2.684-.255 2.205-4.623-.527-4.178m6.614 0c-2.737.594-1.87 4.742.792 4.134 2.604-.595 1.808-4.698-.792-4.134m6.618 0c-2.639.581-1.848 4.735.789 4.17 2.703-.578 1.857-4.753-.79-4.17m13.227.02c-2.567.772-1.54 4.928 1.056 4.07 2.515-.832 1.435-4.818-1.056-4.07m6.88-.019c-2.614.394-2.061 4.575.527 4.153 2.618-.427 2.107-4.55-.528-4.153m6.615-.021c-2.58.458-2.05 4.493.527 4.184 2.711-.325 2.07-4.646-.527-4.184m6.615.02c-2.78.452-1.86 4.741.79 4.17 2.58-.553 1.817-4.595-.79-4.17m6.618 0c-2.64.581-1.85 4.737.789 4.17 2.654-.57 1.86-4.754-.789-4.17m6.615 0c-2.593.572-1.85 4.735.788 4.17 2.723-.582 1.89-4.761-.788-4.17m6.61.02c-2.56.77-1.56 4.964 1.052 4.07 2.466-.843 1.453-4.822-1.053-4.07m6.88-.019c-2.652.397-2.125 4.6.529 4.153 2.608-.438 2.063-4.541-.53-4.153m6.615 0c-2.609.393-2.082 4.4.519 4.178 2.698-.232 2.127-4.576-.52-4.178m6.616-.021c-2.575.47-2.051 4.493.529 4.184 2.698-.323 2.148-4.674-.53-4.184m6.615-.001c-2.76.524-1.865 4.763.794 4.192 2.654-.57 1.828-4.69-.794-4.192m6.615.018c-2.657.612-1.85 4.66.793 4.16 2.739-.517 1.898-4.78-.793-4.16m6.879-.028c-2.702.36-2.154 4.696.529 4.189 2.553-.484 2.077-4.536-.53-4.189m13.23.032c-2.654.397-2.072 4.474.53 4.163 2.695-.322 2.095-4.556-.53-4.163M-104.03 85.87c-2.814.142-2.439 4.37.265 4.178 2.56-.182 2.325-4.308-.265-4.178m5.85.23c-2.391 1-.804 4.696 1.554 3.836 2.7-.984 1.082-4.94-1.555-3.836m6.601.076c-2.355 1.26-.5 4.854 1.826 3.648 2.449-1.27.569-4.93-1.826-3.648m6.616 0c-2.198 1.191-.485 4.846 1.825 3.648 2.5-1.297.6-4.962-1.825-3.648m6.615 0c-2.33 1.262-.26 4.975 2.072 3.582 2.29-1.37.235-4.833-2.072-3.582m6.875-.076c-2.468.988-.871 4.788 1.564 3.84 2.492-.971.987-4.86-1.564-3.84m6.614 0c-2.45.98-.766 4.693 1.571 3.836 2.53-.927.973-4.854-1.57-3.836m73.042.076c-2.323 1.302-.303 4.964 2.059 3.649 2.32-1.292.29-4.967-2.06-3.65m6.863-.075c-2.459.984-.867 4.796 1.564 3.84 2.49-.98.986-4.86-1.564-3.84m19.86 0c-2.358.987-.786 4.684 1.555 3.836 2.758-.998 1.102-4.948-1.556-3.836m13.217.076c-2.321 1.258-.28 5.006 2.02 3.649 2.322-1.37.339-4.927-2.02-3.65m6.628 0c-2.31 1.295-.246 4.93 2.06 3.65 2.347-1.305.309-4.977-2.06-3.65m13.493-.075c-2.392.997-.803 4.696 1.555 3.836 2.665-.971.965-4.886-1.555-3.836m6.615 0c-2.358.987-.785 4.684 1.555 3.836 2.745-.993 1.072-4.936-1.555-3.836m6.6.076c-2.311 1.239-.496 4.852 1.827 3.648 2.5-1.296.606-4.951-1.826-3.648m6.616 0c-2.332 1.271-.323 4.938 2.05 3.575 2.317-1.33.291-4.853-2.05-3.575m6.627 0c-2.294 1.286-.302 5.01 2.008 3.649 2.334-1.377.38-4.988-2.008-3.65m6.615 0c-2.274 1.275-.144 4.854 2.059 3.649 2.356-1.289.31-4.976-2.059-3.648m6.878-.076c-2.392.997-.801 4.7 1.555 3.836 2.521-.923.968-4.887-1.555-3.836m6.613 0c-2.389 1.001-.801 4.69 1.556 3.836 2.746-.993 1.074-4.935-1.556-3.836m6.618.03c-2.445 1.095-.55 4.918 1.812 3.694 2.455-1.273.667-4.802-1.812-3.693m6.6.045c-2.362 1.28-.303 5 2.051 3.612 2.305-1.36.278-4.875-2.05-3.612m6.614 0c-2.333 1.272-.285 4.99 2.051 3.612 2.302-1.357.31-4.9-2.05-3.612m6.627 0c-2.328 1.305-.238 4.925 2.059 3.649 2.35-1.304.31-4.977-2.059-3.65m6.86-.075c-2.45.98-.764 4.693 1.573 3.836 2.529-.927.973-4.854-1.572-3.836m6.63 0c-2.389 1-.801 4.696 1.556 3.836 2.699-.984 1.082-4.94-1.556-3.836m6.615 0c-2.355.987-.783 4.684 1.556 3.836 2.76-.998 1.103-4.948-1.556-3.836m19.846.076c-2.328 1.304-.27 4.943 2.059 3.649 2.347-1.304.31-4.977-2.059-3.65m-286.029 6.54c-2.403.957-.858 4.774 1.568 3.84 2.523-.973.944-4.839-1.568-3.84m6.612.075c-2.431 1.28-.516 4.898 1.826 3.65 2.39-1.275.493-4.87-1.826-3.65m6.617 0c-2.355 1.261-.477 4.883 1.826 3.688 2.469-1.28.607-4.99-1.826-3.688m6.616 0c-2.375 1.284-.3 4.971 2.072 3.65 2.338-1.303.233-4.896-2.072-3.65m6.875-.074c-2.478.972-.933 4.819 1.564 3.838 2.478-.973.934-4.819-1.564-3.838m6.615 0c-2.478.972-.933 4.819 1.564 3.838 2.478-.973.933-4.819-1.564-3.838m6.614 0c-2.479.973-.872 4.77 1.571 3.838 2.528-.965.947-4.827-1.57-3.838m113.241 0c-2.478.972-.933 4.819 1.564 3.838 2.478-.973.933-4.819-1.564-3.838m13.23 0c-2.473.97-.903 4.79 1.57 3.838 2.525-.972.947-4.827-1.57-3.838m6.63-.001c-2.387.995-.81 4.737 1.555 3.876 2.66-.969.985-4.935-1.555-3.876m13.216.075c-2.456 1.316-.287 4.992 2.052 3.613 2.307-1.36.283-4.864-2.052-3.613m6.876-.074c-2.478.972-.933 4.819 1.564 3.838 2.478-.973.934-4.819-1.564-3.838m6.615 0c-2.478.972-.933 4.819 1.564 3.838 2.478-.973.933-4.819-1.564-3.838m6.614 0c-2.472.97-.902 4.79 1.571 3.838 2.525-.972.947-4.827-1.57-3.838m6.63-.001c-2.385.994-.915 4.785 1.555 3.84 2.648-1.015.965-4.89-1.555-3.84m6.597.075c-2.431 1.28-.497 4.914 1.831 3.69 2.432-1.28.498-4.914-1.83-3.69m6.617 0c-2.35 1.255-.5 4.914 1.828 3.69 2.46-1.295.58-4.975-1.828-3.69m6.617 0c-2.373 1.287-.302 4.971 2.072 3.65 2.333-1.3.264-4.917-2.072-3.65m6.874-.074c-2.477.972-.932 4.819 1.566 3.838 2.477-.973.931-4.819-1.566-3.838m6.614 0c-2.476.972-.931 4.819 1.567 3.838 2.497-.98.96-4.83-1.567-3.838m6.615.03c-2.455 1.043-.92 4.767 1.572 3.808 2.516-.967.968-4.886-1.572-3.809m13.23.045c-2.4 1.264-.464 4.878 1.83 3.688 2.442-1.266.497-4.912-1.83-3.688m13.488-.074c-2.527.971-.948 4.826 1.571 3.838 2.482-.975.934-4.802-1.571-3.838M-97.94 99.333c-2.584.936-1.249 4.812 1.315 3.873 2.549-.934 1.145-4.763-1.315-3.873m6.615 0c-2.664.972-.965 4.887 1.555 3.837 2.392-.997.803-4.697-1.555-3.837m6.622-.003c-2.493.97-.987 4.86 1.564 3.84 2.468-.988.87-4.788-1.564-3.84m19.86.03c-2.414 1.05-.946 4.772 1.554 3.846 2.52-.935.957-4.936-1.554-3.845m79.888-.03c-2.486.975-.925 4.8 1.57 3.875 2.513-.932.938-4.86-1.57-3.876m6.63.03c-2.373 1.032-.89 4.753 1.555 3.846 2.52-.936.956-4.936-1.555-3.845m6.856-.028c-2.585.936-1.25 4.812 1.315 3.873 2.549-.934 1.144-4.763-1.315-3.873m13.237-.003c-2.493.97-.987 4.86 1.564 3.84 2.44-.977.849-4.78-1.564-3.84m13.229.03c-2.461 1.027-.935 4.794 1.57 3.846 2.506-.947.934-4.89-1.57-3.845m6.63-.03c-2.433.994-.958 4.806 1.555 3.875 2.522-.936.962-4.905-1.555-3.876m6.856.003c-2.584.936-1.247 4.818 1.314 3.873 2.502-.924 1.152-4.766-1.314-3.873m6.615 0c-2.542.927-1.16 4.766 1.314 3.872 2.588-.935 1.162-4.775-1.314-3.872m13.236-.003c-2.49.978-.986 4.86 1.564 3.84 2.472-.99.934-4.82-1.564-3.84m6.615 0c-2.478.973-.933 4.82 1.564 3.839 2.478-.973.933-4.82-1.564-3.839m6.614.03c-2.466 1.03-.911 4.766 1.571 3.846 2.51-.931.935-4.89-1.57-3.845m6.614.045c-2.448 1.27-.587 4.98 1.826 3.688 2.356-1.26.477-4.882-1.826-3.688m6.873-.073c-2.593.938-1.223 4.793 1.312 3.872 2.588-.939 1.167-4.77-1.312-3.872m6.614-.003c-2.661 1.005-.968 4.869 1.57 3.84 2.402-.976.793-4.733-1.57-3.84m6.615 0c-2.522.961-.971 4.857 1.572 3.84 2.481-.994.904-4.784-1.572-3.84m6.62 0c-2.49.978-.984 4.86 1.566 3.84 2.471-.99.931-4.82-1.566-3.84m6.614 0c-2.484.977-.923 4.801 1.572 3.876 2.514-.932.937-4.86-1.572-3.876m6.628.03c-2.447 1.05-.934 4.77 1.559 3.846 2.521-.935.96-4.924-1.559-3.845m6.602.045c-2.448 1.27-.585 4.98 1.828 3.688 2.355-1.26.476-4.882-1.828-3.688m-246.069 6.542c-2.707.987-1.084 4.917 1.568 3.836 2.41-.981.78-4.692-1.568-3.836m6.622 0c-2.507.937-.978 4.854 1.564 3.873 2.457-.949.78-4.75-1.564-3.873m26.715 0c-2.745.994-1.069 4.943 1.555 3.836 2.313-.976.792-4.686-1.555-3.836m66.682-.016c-2.575.695-1.587 4.593 1.043 3.963 2.58-.618 1.507-4.652-1.043-3.963m6.605.017c-2.661.932-1.312 4.866 1.316 3.872 2.353-.89 1.086-4.714-1.316-3.872m6.617-.001c-2.621.949-1.303 4.842 1.314 3.872 2.366-.877 1.141-4.76-1.314-3.872m6.615 0c-2.745.994-1.072 4.936 1.555 3.836 2.358-.986.785-4.684-1.555-3.836m6.615 0c-2.702.985-1.052 4.904 1.568 3.836 2.41-.982.78-4.692-1.568-3.836m6.622 0c-2.507.937-.978 4.854 1.564 3.873 2.457-.949.78-4.75-1.564-3.873m6.614 0c-2.505.942-.977 4.854 1.564 3.873 2.484-.959.875-4.79-1.564-3.873m6.878-.017c-2.56.709-1.55 4.579 1.047 3.964 2.612-.617 1.557-4.686-1.047-3.964m6.608.017c-2.621.95-1.303 4.842 1.314 3.872 2.351-.872 1.107-4.749-1.314-3.872m6.615 0c-2.594.939-1.281 4.83 1.314 3.872 2.502-.923 1.152-4.765-1.314-3.872m6.615 0c-2.7.984-1.082 4.94 1.555 3.836 2.39-1 .803-4.696-1.555-3.836m6.622 0c-2.507.937-.978 4.854 1.564 3.873 2.457-.949.78-4.75-1.564-3.873m6.614 0c-2.505.942-.977 4.854 1.564 3.873 2.484-.959.875-4.79-1.564-3.873m13.494-.024c-2.666.799-1.36 4.905 1.306 3.897 2.349-.888 1.14-4.63-1.306-3.897m6.607.024c-2.594.939-1.28 4.834 1.314 3.872 2.352-.872 1.107-4.749-1.314-3.872m6.616 0c-2.747.994-1.074 4.936 1.555 3.836 2.39-1 .802-4.69-1.555-3.836m19.849.03c-2.49.997-.958 4.817 1.566 3.843 2.482-.958.87-4.818-1.566-3.843m6.879-.054c-2.71.806-1.347 4.9 1.307 3.897 2.35-.89 1.14-4.624-1.307-3.897m6.61.024c-2.617.947-1.326 4.87 1.312 3.873 2.344-.887 1.108-4.75-1.313-3.873m6.615 0c-2.76.998-1.103 4.948 1.556 3.836 2.354-.986.783-4.684-1.556-3.836m-239.45 6.598c-2.439.633-1.773 4.621.79 4.135 2.76-.525 1.858-4.82-.79-4.135m6.613.024c-2.538.826-1.47 4.864 1.055 4.042 2.55-.83 1.43-4.851-1.055-4.042m6.617 0c-2.482.818-1.445 4.82 1.053 4.069 2.574-.774 1.43-4.888-1.053-4.069m73.29-.024c-2.612.677-1.557 4.86 1.05 4.053 2.506-.777 1.45-4.7-1.05-4.053m6.611.024c-2.531.824-1.49 4.793 1.056 4.029 2.58-.775 1.417-4.834-1.056-4.029m6.618 0c-2.475.82-1.467 4.786 1.053 4.029 2.582-.776 1.49-4.872-1.053-4.029m6.614-.001c-2.643.905-1.257 5.003 1.294 4.013 2.337-.906 1.205-4.868-1.294-4.013m6.877-.03c-2.672.542-1.864 4.684.79 4.145 2.673-.543 1.865-4.685-.79-4.145m6.617-.014c-2.616.605-1.831 4.654.789 4.156 2.753-.523 1.875-4.772-.79-4.156m6.615.022c-2.44.632-1.734 4.615.79 4.134 2.759-.526 1.858-4.82-.79-4.134m6.612.023c-2.526.823-1.552 4.836 1.053 4.029 2.534-.785 1.434-4.838-1.053-4.029m6.615 0c-2.514.823-1.455 4.783 1.056 4.029 2.582-.776 1.494-4.864-1.056-4.029m13.232 0c-2.647.905-1.265 4.98 1.307 4.013 2.534-.953 1.233-4.883-1.307-4.014m6.876-.03c-2.67.542-1.822 4.676.791 4.145 2.692-.548 1.899-4.692-.79-4.145m6.617.008c-2.518.652-1.803 4.626.788 4.134 2.76-.524 1.859-4.82-.788-4.134m26.458.023c-2.654.89-1.263 4.982 1.307 4.013 2.483-.936 1.18-4.846-1.307-4.013m26.719 0c-2.538.827-1.469 4.865 1.058 4.042 2.548-.83 1.429-4.851-1.058-4.042m6.614 0c-2.532.83-1.468 4.828 1.059 4.07 2.574-.774 1.51-4.91-1.059-4.07m-212.724 6.609c-2.61.393-2.079 4.475.527 4.163 2.696-.323 2.097-4.559-.527-4.163m73.29 0c-2.655.397-2.144 4.738.528 4.17 2.563-.546 2.088-4.562-.529-4.17m6.615 0c-2.646.395-2.124 4.519.525 4.164 2.656-.356 2.112-4.559-.525-4.164m6.615 0c-2.608.392-2.03 4.44.527 4.194 2.694-.26 2.112-4.592-.527-4.194m6.615 0c-2.603.404-2.039 4.42.527 4.176 2.691-.255 2.182-4.598-.527-4.177m6.615.02c-2.718.518-1.857 4.72.79 4.15 2.651-.569 1.886-4.659-.79-4.15m6.617-.02c-2.636.58-1.805 4.726.789 4.17 2.703-.579 1.857-4.753-.79-4.17m6.876 0c-2.643.396-2.158 4.666.528 4.157 2.548-.482 2.079-4.547-.528-4.156m6.615 0c-2.646.395-2.147 4.622.529 4.153 2.609-.457 2.11-4.548-.53-4.153m6.616 0c-2.604.392-2.131 4.516.528 4.164 2.689-.356 2.097-4.56-.528-4.164m6.615 0c-2.78.432-1.86 4.746.789 4.17 2.469-.539 1.776-4.57-.79-4.17m13.233-.002c-2.639.582-1.847 4.738.788 4.171 2.656-.57 1.863-4.755-.788-4.17m60.056 0c-2.645.396-2.145 4.623.53 4.154 2.608-.457 2.108-4.548-.53-4.154m6.615 0c-2.654.397-2.072 4.475.53 4.164 2.695-.323 2.095-4.556-.53-4.164m-206.893 6.875c-2.446.979-.764 4.707 1.565 3.836 2.502-.936.988-4.858-1.565-3.836m6.631 0c-2.391.997-.802 4.696 1.555 3.836 2.668-.973 1.039-4.919-1.555-3.836m6.615 0c-2.357.986-.785 4.683 1.555 3.836 2.745-.994 1.072-4.936-1.555-3.836m6.601.075c-2.29 1.227-.45 4.869 1.826 3.688 2.499-1.295.625-5.001-1.826-3.688m6.616 0c-2.345 1.279-.283 4.99 2.072 3.582 2.286-1.366.265-4.857-2.072-3.582m39.952 0c-2.202 1.193-.469 4.857 1.831 3.688 2.534-1.287.602-5.006-1.831-3.688m6.628 0c-2.329 1.305-.269 4.97 2.059 3.582 2.278-1.359.26-4.882-2.06-3.582m6.863-.075c-2.459.983-.867 4.795 1.564 3.839 2.49-.98.986-4.86-1.564-3.84m6.614 0c-2.45.981-.767 4.692 1.571 3.837 2.623-.96.978-4.856-1.57-3.836m6.63 0c-2.392.997-.803 4.695 1.555 3.836 2.702-.986.98-4.893-1.555-3.836m6.601.075c-2.355 1.26-.5 4.854 1.826 3.648 2.466-1.278.594-4.943-1.826-3.648m6.616 0c-2.203 1.194-.49 4.828 1.831 3.648 2.535-1.287.583-4.956-1.831-3.648m6.628 0c-2.295 1.278-.36 4.901 2 3.673 2.391-1.244.356-4.985-2-3.673m6.614 0c-2.328 1.305-.239 4.925 2.06 3.65 2.347-1.304.309-4.978-2.06-3.65m6.862-.075c-2.44.976-.78 4.747 1.564 3.839 2.494-.966.987-4.86-1.564-3.84m6.631 0c-2.392.998-.803 4.697 1.555 3.837 2.665-.972.965-4.886-1.555-3.836m73.026.075c-2.328 1.305-.27 4.943 2.059 3.65 2.347-1.305.31-4.978-2.059-3.65m13.478-.075c-2.41.979-.778 4.692 1.57 3.836 2.674-.976 1.042-4.896-1.57-3.836m6.628 0c-2.355.986-.783 4.683 1.556 3.836 2.746-.994 1.074-4.936-1.556-3.836m19.846.075c-2.328 1.305-.27 4.943 2.059 3.65 2.32-1.29.29-4.968-2.059-3.65m-239.428 6.54c-2.388 1.007-.842 4.74 1.534 3.875 2.66-.968.959-4.925-1.534-3.875m6.578.075c-2.432 1.28-.5 4.914 1.828 3.689 2.445-1.286.563-4.948-1.828-3.689m6.872-.075c-2.496.962-.966 4.913 1.534 3.84 2.375-1.02.912-4.782-1.534-3.84m6.621 0c-2.477.973-.933 4.82 1.565 3.839 2.477-.973.933-4.82-1.565-3.839m6.615 0c-2.468.969-.9 4.807 1.564 3.839 2.478-.974.933-4.82-1.564-3.839m39.952 0c-2.478.973-.933 4.82 1.564 3.839 2.478-.973.933-4.82-1.564-3.839m6.628 0c-2.457.99-.924 4.794 1.557 3.839 2.517-.969.946-4.848-1.557-3.839m6.617 0c-2.384.993-.914 4.788 1.555 3.839 2.507-.966.967-4.89-1.555-3.84m6.615.031c-2.528 1.118-.54 4.987 1.81 3.734 2.377-1.268.581-4.791-1.81-3.734m6.601.045c-2.35 1.255-.501 4.913 1.826 3.689 2.444-1.286.556-4.96-1.826-3.689m6.87-.075c-2.516.968-.942 4.86 1.555 3.839 2.419-.99.935-4.797-1.555-3.839m6.621 0c-2.478.973-.933 4.82 1.564 3.839 2.478-.973.933-4.82-1.564-3.839m6.615 0c-2.478.973-.934 4.82 1.564 3.839 2.478-.973.933-4.82-1.564-3.839m6.627 0c-2.418.993-.868 4.774 1.558 3.839 2.509-.967.97-4.878-1.558-3.84m6.618.031c-2.528 1.118-.54 4.988 1.81 3.734 2.341-1.25.568-4.785-1.81-3.734m73.272-.03c-2.476.973-.931 4.82 1.567 3.839 2.497-.98.96-4.83-1.567-3.839m6.615 0c-2.437.975-.878 4.782 1.572 3.839 2.518-.97.97-4.857-1.572-3.84m6.654 0c-2.381 1.022-.846 4.742 1.532 3.876 2.651-.965.984-4.957-1.532-3.876m33.298.001c-2.482.975-.934 4.803 1.572 3.839 2.526-.972.947-4.827-1.572-3.839m6.63.03c-2.526 1.118-.534 4.995 1.81 3.734 2.3-1.236.574-4.787-1.81-3.734m-259.554 6.615c-2.414 1.049-.946 4.772 1.554 3.845 2.503-.928.928-4.923-1.554-3.845m6.855-.027c-2.584.935-1.247 4.817 1.314 3.872 2.502-.924 1.153-4.765-1.314-3.872m6.616 0c-2.665.972-.966 4.886 1.554 3.836 2.392-.997.803-4.696-1.554-3.836m6.614-.003c-2.613.99-.977 4.859 1.571 3.839 2.444-.978.783-4.732-1.57-3.84m6.62 0c-2.493.968-.987 4.86 1.565 3.84 2.482-.994.872-4.785-1.565-3.84m6.615 0c-2.481.975-.924 4.818 1.564 3.876 2.484-.94.953-4.864-1.564-3.875m6.628.03c-2.45 1.05-.935 4.769 1.557 3.845 2.504-.928.932-4.91-1.557-3.845m6.858-.027c-2.584.935-1.247 4.817 1.314 3.872 2.502-.924 1.153-4.765-1.314-3.872m46.567 0c-2.584.935-1.247 4.817 1.314 3.872 2.502-.924 1.152-4.765-1.314-3.872m6.615 0c-2.665.972-.965 4.886 1.555 3.836 2.392-.997.802-4.696-1.555-3.836m6.622-.003c-2.493.97-.987 4.86 1.564 3.839 2.44-.977.849-4.779-1.564-3.84m6.614 0c-2.47.97-.958 4.85 1.564 3.84 2.472-.99.934-4.82-1.564-3.84m6.615.032c-2.464 1.018-.935 4.792 1.57 3.845 2.514-.951.903-4.869-1.57-3.845m6.614.044c-2.499 1.296-.618 5.012 1.825 3.688 2.22-1.203.487-4.886-1.825-3.688m86.518-.024c-2.609 1.163-.627 5.042 1.826 3.712 2.227-1.207.534-4.762-1.826-3.712m39.952-.02c-2.466 1.028-.91 4.764 1.572 3.844 2.53-.938.963-4.902-1.572-3.845m-252.684 6.594c-2.634.901-1.322 4.863 1.314 3.866 2.348-.888 1.107-4.694-1.314-3.866m6.615-.006c-2.595.939-1.32 4.694 1.307 3.895 2.615-.794 1.168-4.791-1.307-3.895m6.616 0c-2.504.912-1.2 4.792 1.306 3.968 2.618-.86 1.22-4.89-1.306-3.968m6.62 0c-2.603.972-.931 5.007 1.565 3.907 2.4-1.058.805-4.792-1.564-3.907m6.871-.016c-2.601.673-1.571 4.59 1.05 3.963 2.592-.62 1.442-4.609-1.05-3.963m6.615-.007c-2.588.735-1.457 4.813 1.053 4.059 2.564-.77 1.571-4.805-1.053-4.06m6.614.03c-2.457.841-1.498 4.706 1.053 4.008 2.594-.708 1.533-4.893-1.053-4.008m6.615-.006c-2.588.937-1.303 4.858 1.314 3.873 2.494-.939 1.155-4.767-1.314-3.873m46.567 0c-2.745.994-1.072 4.936 1.555 3.836 2.358-.986.785-4.684-1.555-3.836m6.615 0c-2.512.916-1.14 4.745 1.313 3.969 2.65-.839 1.203-4.887-1.313-3.969m6.878-.037c-2.623.607-1.533 4.787 1.05 4.036 2.532-.735 1.439-4.613-1.05-4.036m6.358.067c-2.491.998-.912 4.969 1.564 3.877 2.43-1.07.89-4.859-1.564-3.877m6.878-.046c-2.565.69-1.55 4.577 1.047 3.963 2.62-.62 1.533-4.659-1.047-3.963m112.977.016c-2.505.937-.976 4.854 1.567 3.873 2.455-.949.78-4.75-1.567-3.873m6.615.03c-2.49.997-.958 4.817 1.566 3.843 2.49-.962.902-4.83-1.566-3.843m13.488-.03c-2.616.947-1.325 4.87 1.313 3.873 2.344-.887 1.108-4.75-1.313-3.873m-246.066 6.593c-2.748.521-1.89 4.695.788 4.142 2.594-.534 1.862-4.645-.788-4.142m6.617-.003c-2.634.542-1.835 4.679.789 4.145 2.69-.547 1.898-4.698-.789-4.145m6.615.008c-2.518.652-1.803 4.627.788 4.134 2.76-.524 1.86-4.82-.788-4.134m6.62 0c-2.605.69-1.483 4.9 1.045 4.065 2.477-.817 1.461-4.728-1.044-4.065m6.605.024c-2.516.82-1.454 4.783 1.056 4.028 2.58-.775 1.417-4.833-1.056-4.028m6.617 0c-2.481.83-1.426 4.89 1.053 4.082 2.54-.828 1.547-4.953-1.053-4.082m60.06-.032c-2.633.542-1.834 4.679.79 4.145 2.69-.547 1.897-4.698-.79-4.145m6.622.008c-2.593.686-1.593 4.949 1.044 4.066 2.47-.828 1.464-4.73-1.044-4.066m6.615 0c-2.598.687-1.505 4.828 1.043 4.052 2.524-.768 1.484-4.72-1.043-4.052m6.608.024c-2.482.818-1.446 4.82 1.053 4.069 2.573-.774 1.43-4.888-1.053-4.07m100.008-.03c-2.736.554-1.892 4.696.789 4.144 2.637-.542 1.878-4.685-.789-4.145m6.615 0c-2.67.543-1.82 4.677.793 4.145 2.691-.547 1.898-4.691-.793-4.145m6.62.008c-2.44.633-1.776 4.621.788 4.135 2.76-.525 1.857-4.821-.788-4.135m6.614 0c-2.632.682-1.508 4.963 1.048 4.106 2.49-.834 1.516-4.77-1.048-4.106m6.61.024c-2.527.837-1.469 4.828 1.058 4.069 2.566-.772 1.5-4.915-1.059-4.07m6.88-.028c-2.75.523-1.879 4.745.788 4.121 2.463-.575 1.762-4.605-.788-4.12m6.355.028c-2.654.888-1.273 4.953 1.307 4.043 2.503-.884 1.188-4.88-1.307-4.043M-51.11 159.15c-2.661.514-1.836 4.714.789 4.15 2.648-.569 1.885-4.665-.789-4.15m6.876-.03c-2.55.27-2.29 4.4.264 4.217 2.748-.196 2.516-4.513-.264-4.217m6.614.01c-2.643.396-2.159 4.665.528 4.157 2.548-.482 2.079-4.547-.528-4.157m6.616 0c-2.61.393-2.126 4.488.524 4.195 2.655-.294 2.126-4.594-.524-4.195m6.614 0c-2.607.393-2.037 4.42.527 4.177 2.707-.257 2.103-4.573-.527-4.177m59.799-.004c-2.624.612-1.81 4.73.789 4.174 2.7-.579 1.868-4.794-.79-4.174m6.876.004c-2.643.396-2.159 4.665.528 4.157 2.548-.482 2.079-4.547-.528-4.157m6.615 0c-2.663.399-2.086 4.692.529 4.167 2.577-.517 2.08-4.558-.53-4.167m6.616 0c-2.602.392-2.132 4.52.525 4.164 2.655-.356 2.112-4.561-.525-4.164m93.133 0c-2.781.433-1.858 4.747.788 4.17 2.471-.538 1.778-4.57-.788-4.17m6.614.02c-2.765.526-1.85 4.717.794 4.15 2.646-.569 1.844-4.65-.794-4.15m6.62-.024c-2.627.613-1.852 4.74.788 4.174 2.72-.582 1.903-4.802-.788-4.174m6.615.013c-2.443.633-1.763 4.707.788 4.161 2.725-.585 1.884-4.853-.788-4.16m6.873-.01c-2.643.396-2.159 4.662.53 4.157 2.59-.487 2.071-4.546-.53-4.157m6.615 0c-2.654.397-2.074 4.426.527 4.177 2.67-.256 2.116-4.572-.527-4.177m6.615 0c-2.781.433-1.858 4.747.788 4.17 2.471-.538 1.778-4.57-.788-4.17m6.614-.022c-2.757.524-1.865 4.77.789 4.192 2.593-.563 1.817-4.687-.789-4.192m-246.828 6.927c-2.491 1.106-.538 4.912 1.812 3.693 2.44-1.265.643-4.783-1.812-3.693m6.602.045c-2.198 1.191-.463 4.875 1.825 3.688 2.5-1.296.618-5.012-1.825-3.688m6.615 0c-2.348 1.272-.29 4.963 2.072 3.612 2.319-1.326.248-4.87-2.072-3.612m6.875-.075c-2.472.989-.934 4.82 1.564 3.839 2.49-.978.987-4.86-1.564-3.84m66.41.076c-2.397 1.266-.488 4.85 1.83 3.648 2.466-1.279.599-4.93-1.83-3.648m6.619 0c-2.199 1.191-.485 4.846 1.825 3.648 2.5-1.296.599-4.961-1.825-3.648m6.614 0c-2.348 1.273-.282 4.96 2.073 3.65 2.334-1.301.265-4.917-2.073-3.65m13.49-.075c-2.44.976-.78 4.747 1.564 3.839 2.494-.967.987-4.86-1.564-3.84m86.518 0c-2.44.977-.78 4.748 1.566 3.84 2.493-.967.987-4.86-1.566-3.84m6.617 0c-2.41.978-.778 4.693 1.57 3.837 2.708-.988.983-4.872-1.57-3.836m6.628 0c-2.355.986-.783 4.683 1.556 3.836 2.746-.994 1.071-4.936-1.556-3.836m6.604.075c-2.22 1.204-.487 4.887 1.826 3.688 2.497-1.295.616-5.012-1.826-3.688m6.615 0c-2.347 1.272-.291 4.963 2.071 3.612 2.32-1.326.249-4.87-2.071-3.612m6.627 0c-2.323 1.302-.301 4.964 2.059 3.65 2.347-1.308.31-4.978-2.059-3.65m6.861-.075c-2.45.98-.881 4.79 1.566 3.839 2.493-.97.985-4.86-1.566-3.84m6.617 0c-2.41.978-.778 4.693 1.57 3.837 2.672-.974.968-4.865-1.57-3.836m-246.328 6.69c-2.395 1.26-.49 4.908 1.828 3.689 2.433-1.28.5-4.914-1.828-3.69m6.872-.074c-2.59.992-.996 4.817 1.533 3.85 2.457-.94.98-4.812-1.533-3.85m6.621 0c-2.477.973-.933 4.82 1.565 3.839 2.477-.973.933-4.82-1.565-3.84m73.028.076c-2.35 1.255-.501 4.913 1.826 3.689 2.444-1.286.557-4.961-1.826-3.69m6.616 0c-2.341 1.27-.314 4.987 2.072 3.65 2.33-1.307.266-4.916-2.072-3.65m6.875-.074c-2.478.973-.933 4.82 1.564 3.839 2.478-.973.933-4.82-1.564-3.84m13.242 0c-2.47.997-.947 4.805 1.558 3.876 2.523-.936.965-4.892-1.558-3.875m86.505 0c-2.495.98-.863 4.767 1.572 3.875 2.534-.928.968-4.871-1.572-3.875m6.63 0c-2.386.994-.81 4.736 1.556 3.875 2.662-.968.987-4.934-1.556-3.876m20.093 0c-2.477.974-.931 4.82 1.566 3.84 2.477-.973.932-4.82-1.566-3.84m6.614 0c-2.476.974-.93 4.82 1.567 3.84 2.476-.973.931-4.82-1.567-3.84m6.615 0c-2.482.976-.934 4.803 1.572 3.84 2.526-.972.947-4.827-1.572-3.84m26.718 0c-2.527.972-.948 4.828 1.571 3.84 2.482-.975.934-4.803-1.571-3.84m-272.787 6.619c-2.584.935-1.247 4.817 1.314 3.872 2.502-.924 1.153-4.765-1.314-3.872m6.615 0c-2.75.995-.97 4.888 1.555 3.836 2.393-.997.804-4.69-1.555-3.836m6.615-.003c-2.511.953-.967 4.89 1.555 3.839 2.385-.995.818-4.74-1.555-3.84m79.904.004c-2.665.972-.965 4.886 1.555 3.836 2.392-.997.802-4.696-1.555-3.836m6.615-.003c-2.52.96-.972 4.856 1.57 3.839 2.446-.979.851-4.763-1.57-3.84m133.09 0c-2.492.97-.983 4.86 1.567 3.84 2.477-.992.902-4.8-1.566-3.84m6.614.031c-2.46 1.026-.934 4.793 1.572 3.846 2.506-.948.934-4.89-1.572-3.846m26.718-.03c-2.51.953-.968 4.89 1.556 3.839 2.384-.994.817-4.74-1.556-3.84m-266.172 6.618c-2.584.936-1.244 4.809 1.307 3.969 2.539-.836 1.208-4.88-1.307-3.969m6.616 0c-2.547.929-1.253 4.794 1.312 3.969 2.616-.84 1.18-4.878-1.312-3.969m259.556 0c-2.63.962-1.021 5.054 1.572 3.908 2.4-1.063.807-4.778-1.572-3.908m-265.91 6.593c-2.728.519-1.856 4.687.788 4.143 2.638-.543 1.821-4.638-.788-4.143m6.617.019c-2.615.61-1.83 4.657.789 4.124 2.691-.548 1.887-4.749-.789-4.124m-6.354 6.645c-2.762.175-2.44 4.373.264 4.18 2.666-.189 2.402-4.349-.264-4.18m6.616 0c-2.71.172-2.408 4.37.263 4.18 2.727-.193 2.485-4.355-.263-4.18m-.783 6.923c-2.436 1.286-.499 4.855 1.828 3.648 2.45-1.27.575-4.917-1.828-3.648z"
     style="fill:teal;fill-opacity:1;stroke:none;stroke-width:.264583;stroke-opacity:1"
     transform="translate(152.549 14.074)"
     id="path1" />
  <g
     style="display:inline"
     id="g30">
    <path
       fill="teal"
       d="M73.252-37.739s7.375-5.454 7.106-10.025c-.346-5.685-5.07-6.915-7.106-6.915-2.036 0-7.03 1.23-7.107 6.915-.076 4.225 7.068 9.987 7.107 10.025z"
       style="stroke-width:.0946414"
       transform="translate(101.502 112.28)"
       id="path2" />
    <path
       d="M73.252-39.15s6.146-4.546 5.922-8.355c-.288-4.738-4.225-5.762-5.922-5.762-1.696 0-5.858 1.024-5.922 5.762-.064 3.521 5.89 8.323 5.922 8.355zm-4.13-8.42a4.14 4.14 0 0 1 4.13-4.128 4.14 4.14 0 0 1 4.13 4.129 4.14 4.14 0 0 1-4.13 4.13 4.14 4.14 0 0 1-4.13-4.13z"
       style="stroke-width:.0946414"
       transform="translate(101.502 112.28)"
       id="path3" />
    <path
       d="M75.841-48.206c-.366.212-.722.428-1.052.65-.17.113-.345.232-.505.36l-.036.032a.748.748 0 0 0-.134.119.93.93 0 0 1-.619.68.96.96 0 0 1-.64-.03c-.02-.01-.04-.021-.056-.026-.036-.021-.057-.031-.083-.047l-.02-.015-.047-.031a.964.964 0 0 1-.314-.449 1.042 1.042 0 0 1-.042-.221v-.047c0-.154.031-.294.098-.422l.016-.032a.908.908 0 0 1 .526-.433.928.928 0 0 1 .675.041c.016 0 .026-.005.036-.01.103-.026.19-.062.284-.098.247-.093.48-.201.742-.32l.263-.123.392-.186c.072-.031.144-.057.217-.082.232-.078.407-.01.495.18.046.092.113.33-.196.51z"
       style="stroke-width:.0946414"
       transform="translate(101.502 112.28)"
       id="path4" />
    <path
       d="M72.216-49.869c.212.366.43.721.652 1.05.114.17.233.345.362.505l.031.036a.748.748 0 0 0 .12.134.93.93 0 0 1 .681.617c.026.093.042.186.042.278a.962.962 0 0 1-.071.362.514.514 0 0 0-.026.056c-.02.036-.03.057-.046.083l-.015.02-.031.047a.965.965 0 0 1-.448.316c-.072.02-.144.036-.222.041H73.2a.893.893 0 0 1-.423-.096l-.031-.016a.908.908 0 0 1-.434-.525.928.928 0 0 1 .04-.675c0-.016-.006-.026-.011-.036-.026-.103-.063-.19-.099-.284-.093-.247-.202-.479-.321-.741l-.124-.263-.187-.392c-.031-.072-.057-.144-.083-.216-.078-.232-.011-.407.18-.495.092-.047.329-.115.51.194z"
       style="stroke-width:.0946414"
       transform="translate(101.502 112.28)"
       id="path5" />
    <g
       style="display:inline"
       id="g9">
      <path
         fill="teal"
         d="M73.252-37.739s7.375-5.454 7.106-10.025c-.346-5.685-5.07-6.915-7.106-6.915-2.036 0-7.03 1.23-7.107 6.915-.076 4.225 7.068 9.987 7.107 10.025z"
         style="stroke-width:.0946414"
         transform="translate(128.215 198.622)"
         id="path6" />
      <path
         d="M73.252-39.15s6.146-4.546 5.922-8.355c-.288-4.738-4.225-5.762-5.922-5.762-1.696 0-5.858 1.024-5.922 5.762-.064 3.521 5.89 8.323 5.922 8.355zm-4.13-8.42a4.14 4.14 0 0 1 4.13-4.128 4.14 4.14 0 0 1 4.13 4.129 4.14 4.14 0 0 1-4.13 4.13 4.14 4.14 0 0 1-4.13-4.13z"
         style="stroke-width:.0946414"
         transform="translate(128.215 198.622)"
         id="path7" />
      <path
         d="M75.841-48.206c-.366.212-.722.428-1.052.65-.17.113-.345.232-.505.36l-.036.032a.748.748 0 0 0-.134.119.93.93 0 0 1-.619.68.96.96 0 0 1-.64-.03c-.02-.01-.04-.021-.056-.026-.036-.021-.057-.031-.083-.047l-.02-.015-.047-.031a.964.964 0 0 1-.314-.449 1.042 1.042 0 0 1-.042-.221v-.047c0-.154.031-.294.098-.422l.016-.032a.908.908 0 0 1 .526-.433.928.928 0 0 1 .675.041c.016 0 .026-.005.036-.01.103-.026.19-.062.284-.098.247-.093.48-.201.742-.32l.263-.123.392-.186c.072-.031.144-.057.217-.082.232-.078.407-.01.495.18.046.092.113.33-.196.51z"
         style="stroke-width:.0946414"
         transform="translate(128.215 198.622)"
         id="path8" />
      <path
         d="M72.216-49.869c.212.366.43.721.652 1.05.114.17.233.345.362.505l.031.036a.748.748 0 0 0 .12.134.93.93 0 0 1 .681.617c.026.093.042.186.042.278a.962.962 0 0 1-.071.362.514.514 0 0 0-.026.056c-.02.036-.03.057-.046.083l-.015.02-.031.047a.965.965 0 0 1-.448.316c-.072.02-.144.036-.222.041H73.2a.893.893 0 0 1-.423-.096l-.031-.016a.908.908 0 0 1-.434-.525.928.928 0 0 1 .04-.675c0-.016-.006-.026-.011-.036-.026-.103-.063-.19-.099-.284-.093-.247-.202-.479-.321-.741l-.124-.263-.187-.392c-.031-.072-.057-.144-.083-.216-.078-.232-.011-.407.18-.495.092-.047.329-.115.51.194z"
         style="stroke-width:.0946414"
         transform="translate(128.215 198.622)"
         id="path9" />
    </g>
    <g
       style="display:inline"
       id="g13">
      <path
         fill="teal"
         d="M73.252-37.739s7.375-5.454 7.106-10.025c-.346-5.685-5.07-6.915-7.106-6.915-2.036 0-7.03 1.23-7.107 6.915-.076 4.225 7.068 9.987 7.107 10.025z"
         style="stroke-width:.0946414"
         transform="translate(267.953 218.765)"
         id="path10" />
      <path
         d="M73.252-39.15s6.146-4.546 5.922-8.355c-.288-4.738-4.225-5.762-5.922-5.762-1.696 0-5.858 1.024-5.922 5.762-.064 3.521 5.89 8.323 5.922 8.355zm-4.13-8.42a4.14 4.14 0 0 1 4.13-4.128 4.14 4.14 0 0 1 4.13 4.129 4.14 4.14 0 0 1-4.13 4.13 4.14 4.14 0 0 1-4.13-4.13z"
         style="stroke-width:.0946414"
         transform="translate(267.953 218.765)"
         id="path11" />
      <path
         d="M75.841-48.206c-.366.212-.722.428-1.052.65-.17.113-.345.232-.505.36l-.036.032a.748.748 0 0 0-.134.119.93.93 0 0 1-.619.68.96.96 0 0 1-.64-.03c-.02-.01-.04-.021-.056-.026-.036-.021-.057-.031-.083-.047l-.02-.015-.047-.031a.964.964 0 0 1-.314-.449 1.042 1.042 0 0 1-.042-.221v-.047c0-.154.031-.294.098-.422l.016-.032a.908.908 0 0 1 .526-.433.928.928 0 0 1 .675.041c.016 0 .026-.005.036-.01.103-.026.19-.062.284-.098.247-.093.48-.201.742-.32l.263-.123.392-.186c.072-.031.144-.057.217-.082.232-.078.407-.01.495.18.046.092.113.33-.196.51z"
         style="stroke-width:.0946414"
         transform="translate(267.953 218.765)"
         id="path12" />
      <path
         d="M72.216-49.869c.212.366.43.721.652 1.05.114.17.233.345.362.505l.031.036a.748.748 0 0 0 .12.134.93.93 0 0 1 .681.617c.026.093.042.186.042.278a.962.962 0 0 1-.071.362.514.514 0 0 0-.026.056c-.02.036-.03.057-.046.083l-.015.02-.031.047a.965.965 0 0 1-.448.316c-.072.02-.144.036-.222.041H73.2a.893.893 0 0 1-.423-.096l-.031-.016a.908.908 0 0 1-.434-.525.928.928 0 0 1 .04-.675c0-.016-.006-.026-.011-.036-.026-.103-.063-.19-.099-.284-.093-.247-.202-.479-.321-.741l-.124-.263-.187-.392c-.031-.072-.057-.144-.083-.216-.078-.232-.011-.407.18-.495.092-.047.329-.115.51.194z"
         style="stroke-width:.0946414"
         transform="translate(267.953 218.765)"
         id="path13" />
    </g>
    <g
       style="display:inline"
       id="g17">
      <path
         fill="teal"
         d="M73.252-37.739s7.375-5.454 7.106-10.025c-.346-5.685-5.07-6.915-7.106-6.915-2.036 0-7.03 1.23-7.107 6.915-.076 4.225 7.068 9.987 7.107 10.025z"
         style="stroke-width:.0946414"
         transform="translate(35.227 212.026)"
         id="path14" />
      <path
         d="M73.252-39.15s6.146-4.546 5.922-8.355c-.288-4.738-4.225-5.762-5.922-5.762-1.696 0-5.858 1.024-5.922 5.762-.064 3.521 5.89 8.323 5.922 8.355zm-4.13-8.42a4.14 4.14 0 0 1 4.13-4.128 4.14 4.14 0 0 1 4.13 4.129 4.14 4.14 0 0 1-4.13 4.13 4.14 4.14 0 0 1-4.13-4.13z"
         style="stroke-width:.0946414"
         transform="translate(35.227 212.026)"
         id="path15" />
      <path
         d="M75.841-48.206c-.366.212-.722.428-1.052.65-.17.113-.345.232-.505.36l-.036.032a.748.748 0 0 0-.134.119.93.93 0 0 1-.619.68.96.96 0 0 1-.64-.03c-.02-.01-.04-.021-.056-.026-.036-.021-.057-.031-.083-.047l-.02-.015-.047-.031a.964.964 0 0 1-.314-.449 1.042 1.042 0 0 1-.042-.221v-.047c0-.154.031-.294.098-.422l.016-.032a.908.908 0 0 1 .526-.433.928.928 0 0 1 .675.041c.016 0 .026-.005.036-.01.103-.026.19-.062.284-.098.247-.093.48-.201.742-.32l.263-.123.392-.186c.072-.031.144-.057.217-.082.232-.078.407-.01.495.18.046.092.113.33-.196.51z"
         style="stroke-width:.0946414"
         transform="translate(35.227 212.026)"
         id="path16" />
      <path
         d="M72.216-49.869c.212.366.43.721.652 1.05.114.17.233.345.362.505l.031.036a.748.748 0 0 0 .12.134.93.93 0 0 1 .681.617c.026.093.042.186.042.278a.962.962 0 0 1-.071.362.514.514 0 0 0-.026.056c-.02.036-.03.057-.046.083l-.015.02-.031.047a.965.965 0 0 1-.448.316c-.072.02-.144.036-.222.041H73.2a.893.893 0 0 1-.423-.096l-.031-.016a.908.908 0 0 1-.434-.525.928.928 0 0 1 .04-.675c0-.016-.006-.026-.011-.036-.026-.103-.063-.19-.099-.284-.093-.247-.202-.479-.321-.741l-.124-.263-.187-.392c-.031-.072-.057-.144-.083-.216-.078-.232-.011-.407.18-.495.092-.047.329-.115.51.194z"
         style="stroke-width:.0946414"
         transform="translate(35.227 212.026)"
         id="path17" />
    </g>
    <g
       style="display:inline"
       id="g21">
      <path
         fill="teal"
         d="M73.252-37.739s7.375-5.454 7.106-10.025c-.346-5.685-5.07-6.915-7.106-6.915-2.036 0-7.03 1.23-7.107 6.915-.076 4.225 7.068 9.987 7.107 10.025z"
         style="stroke-width:.0946414"
         transform="translate(-24.861 144.914)"
         id="path18" />
      <path
         d="M73.252-39.15s6.146-4.546 5.922-8.355c-.288-4.738-4.225-5.762-5.922-5.762-1.696 0-5.858 1.024-5.922 5.762-.064 3.521 5.89 8.323 5.922 8.355zm-4.13-8.42a4.14 4.14 0 0 1 4.13-4.128 4.14 4.14 0 0 1 4.13 4.129 4.14 4.14 0 0 1-4.13 4.13 4.14 4.14 0 0 1-4.13-4.13z"
         style="stroke-width:.0946414"
         transform="translate(-24.861 144.914)"
         id="path19" />
      <path
         d="M75.841-48.206c-.366.212-.722.428-1.052.65-.17.113-.345.232-.505.36l-.036.032a.748.748 0 0 0-.134.119.93.93 0 0 1-.619.68.96.96 0 0 1-.64-.03c-.02-.01-.04-.021-.056-.026-.036-.021-.057-.031-.083-.047l-.02-.015-.047-.031a.964.964 0 0 1-.314-.449 1.042 1.042 0 0 1-.042-.221v-.047c0-.154.031-.294.098-.422l.016-.032a.908.908 0 0 1 .526-.433.928.928 0 0 1 .675.041c.016 0 .026-.005.036-.01.103-.026.19-.062.284-.098.247-.093.48-.201.742-.32l.263-.123.392-.186c.072-.031.144-.057.217-.082.232-.078.407-.01.495.18.046.092.113.33-.196.51z"
         style="stroke-width:.0946414"
         transform="translate(-24.861 144.914)"
         id="path20" />
      <path
         d="M72.216-49.869c.212.366.43.721.652 1.05.114.17.233.345.362.505l.031.036a.748.748 0 0 0 .12.134.93.93 0 0 1 .681.617c.026.093.042.186.042.278a.962.962 0 0 1-.071.362.514.514 0 0 0-.026.056c-.02.036-.03.057-.046.083l-.015.02-.031.047a.965.965 0 0 1-.448.316c-.072.02-.144.036-.222.041H73.2a.893.893 0 0 1-.423-.096l-.031-.016a.908.908 0 0 1-.434-.525.928.928 0 0 1 .04-.675c0-.016-.006-.026-.011-.036-.026-.103-.063-.19-.099-.284-.093-.247-.202-.479-.321-.741l-.124-.263-.187-.392c-.031-.072-.057-.144-.083-.216-.078-.232-.011-.407.18-.495.092-.047.329-.115.51.194z"
         style="stroke-width:.0946414"
         transform="translate(-24.861 144.914)"
         id="path21" />
    </g>
    <g
       style="display:inline"
       id="g25">
      <path
         fill="teal"
         d="M73.252-37.739s7.375-5.454 7.106-10.025c-.346-5.685-5.07-6.915-7.106-6.915-2.036 0-7.03 1.23-7.107 6.915-.076 4.225 7.068 9.987 7.107 10.025z"
         style="stroke-width:.0946414"
         transform="translate(241.68 138.654)"
         id="path22" />
      <path
         d="M73.252-39.15s6.146-4.546 5.922-8.355c-.288-4.738-4.225-5.762-5.922-5.762-1.696 0-5.858 1.024-5.922 5.762-.064 3.521 5.89 8.323 5.922 8.355zm-4.13-8.42a4.14 4.14 0 0 1 4.13-4.128 4.14 4.14 0 0 1 4.13 4.129 4.14 4.14 0 0 1-4.13 4.13 4.14 4.14 0 0 1-4.13-4.13z"
         style="stroke-width:.0946414"
         transform="translate(241.68 138.654)"
         id="path23" />
      <path
         d="M75.841-48.206c-.366.212-.722.428-1.052.65-.17.113-.345.232-.505.36l-.036.032a.748.748 0 0 0-.134.119.93.93 0 0 1-.619.68.96.96 0 0 1-.64-.03c-.02-.01-.04-.021-.056-.026-.036-.021-.057-.031-.083-.047l-.02-.015-.047-.031a.964.964 0 0 1-.314-.449 1.042 1.042 0 0 1-.042-.221v-.047c0-.154.031-.294.098-.422l.016-.032a.908.908 0 0 1 .526-.433.928.928 0 0 1 .675.041c.016 0 .026-.005.036-.01.103-.026.19-.062.284-.098.247-.093.48-.201.742-.32l.263-.123.392-.186c.072-.031.144-.057.217-.082.232-.078.407-.01.495.18.046.092.113.33-.196.51z"
         style="stroke-width:.0946414"
         transform="translate(241.68 138.654)"
         id="path24" />
      <path
         d="M72.216-49.869c.212.366.43.721.652 1.05.114.17.233.345.362.505l.031.036a.748.748 0 0 0 .12.134.93.93 0 0 1 .681.617c.026.093.042.186.042.278a.962.962 0 0 1-.071.362.514.514 0 0 0-.026.056c-.02.036-.03.057-.046.083l-.015.02-.031.047a.965.965 0 0 1-.448.316c-.072.02-.144.036-.222.041H73.2a.893.893 0 0 1-.423-.096l-.031-.016a.908.908 0 0 1-.434-.525.928.928 0 0 1 .04-.675c0-.016-.006-.026-.011-.036-.026-.103-.063-.19-.099-.284-.093-.247-.202-.479-.321-.741l-.124-.263-.187-.392c-.031-.072-.057-.144-.083-.216-.078-.232-.011-.407.18-.495.092-.047.329-.115.51.194z"
         style="stroke-width:.0946414"
         transform="translate(241.68 138.654)"
         id="path25" />
    </g>
    <g
       style="display:inline"
       id="g29">
      <path
         fill="teal"
         d="M73.252-37.739s7.375-5.454 7.106-10.025c-.346-5.685-5.07-6.915-7.106-6.915-2.036 0-7.03 1.23-7.107 6.915-.076 4.225 7.068 9.987 7.107 10.025z"
         style="stroke-width:.0946414"
         transform="translate(155.055 138.636)"
         id="path26" />
      <path
         d="M73.252-39.15s6.146-4.546 5.922-8.355c-.288-4.738-4.225-5.762-5.922-5.762-1.696 0-5.858 1.024-5.922 5.762-.064 3.521 5.89 8.323 5.922 8.355zm-4.13-8.42a4.14 4.14 0 0 1 4.13-4.128 4.14 4.14 0 0 1 4.13 4.129 4.14 4.14 0 0 1-4.13 4.13 4.14 4.14 0 0 1-4.13-4.13z"
         style="stroke-width:.0946414"
         transform="translate(155.055 138.636)"
         id="path27" />
      <path
         d="M75.841-48.206c-.366.212-.722.428-1.052.65-.17.113-.345.232-.505.36l-.036.032a.748.748 0 0 0-.134.119.93.93 0 0 1-.619.68.96.96 0 0 1-.64-.03c-.02-.01-.04-.021-.056-.026-.036-.021-.057-.031-.083-.047l-.02-.015-.047-.031a.964.964 0 0 1-.314-.449 1.042 1.042 0 0 1-.042-.221v-.047c0-.154.031-.294.098-.422l.016-.032a.908.908 0 0 1 .526-.433.928.928 0 0 1 .675.041c.016 0 .026-.005.036-.01.103-.026.19-.062.284-.098.247-.093.48-.201.742-.32l.263-.123.392-.186c.072-.031.144-.057.217-.082.232-.078.407-.01.495.18.046.092.113.33-.196.51z"
         style="stroke-width:.0946414"
         transform="translate(155.055 138.636)"
         id="path28" />
      <path
         d="M72.216-49.869c.212.366.43.721.652 1.05.114.17.233.345.362.505l.031.036a.748.748 0 0 0 .12.134.93.93 0 0 1 .681.617c.026.093.042.186.042.278a.962.962 0 0 1-.071.362.514.514 0 0 0-.026.056c-.02.036-.03.057-.046.083l-.015.02-.031.047a.965.965 0 0 1-.448.316c-.072.02-.144.036-.222.041H73.2a.893.893 0 0 1-.423-.096l-.031-.016a.908.908 0 0 1-.434-.525.928.928 0 0 1 .04-.675c0-.016-.006-.026-.011-.036-.026-.103-.063-.19-.099-.284-.093-.247-.202-.479-.321-.741l-.124-.263-.187-.392c-.031-.072-.057-.144-.083-.216-.078-.232-.011-.407.18-.495.092-.047.329-.115.51.194z"
         style="stroke-width:.0946414"
         transform="translate(155.055 138.636)"
         id="path29" />
    </g>
  </g>
  <g
     style="display:inline"
     transform="translate(129.926 -21.6)"
     id="g32">
    <rect
       width="69.455"
       height="30.453"
       x="83.063"
       y="231.689"
       ry="5"
       style="fill:#d53f8c;fill-opacity:1;stroke:none;stroke-width:1.065;stroke-linecap:round;stroke-miterlimit:4;stroke-dasharray:none;stroke-opacity:1"
       id="rect30" />
    <g
       style="font-style:normal;font-variant:normal;font-weight:700;font-stretch:normal;font-size:19.7556px;line-height:1.25;font-family:Kameron;-inkscape-font-specification:&quot;Kameron, Bold&quot;;font-variant-ligatures:normal;font-variant-caps:normal;font-variant-numeric:normal;font-variant-east-asian:normal;fill:#fff;fill-opacity:1;stroke:none;stroke-width:.265;stroke-miterlimit:4;stroke-dasharray:none"
       id="g31">
      <text
         xml:space="preserve"
         x="95.971001"
         y="254.24699"
         style="font-style:normal;font-weight:400;font-size:19.7556px;line-height:1.25;font-family:sans-serif;letter-spacing:0;word-spacing:0;fill:#ffffff;fill-opacity:1;stroke:none;stroke-width:0.0701146"
         id="text30"><tspan
           x="95.971001"
           y="254.24699"
           style="font-style:normal;font-variant:normal;font-weight:400;font-stretch:normal;font-size:19.7556px;font-family:'Fira Sans';-inkscape-font-specification:'Fira Sans';fill:#ffffff;stroke-width:0.0701146"
           id="tspan30">v2.7</tspan></text>
    </g>
  </g>
</svg>
