<?xml version="1.0" encoding="UTF-8" standalone="no"?>
<svg
   aria-label="World map with version number"
   viewBox="0 0 370.17496 223.99967"
   version="1.1"
   id="world-map"
   sodipodi:docname="map.svg"
   inkscape:version="1.4 (e7c3feb100, 2024-10-09)"
   width="370.17496"
   height="223.99968"
   xmlns:inkscape="http://www.inkscape.org/namespaces/inkscape"
   xmlns:sodipodi="http://sodipodi.sourceforge.net/DTD/sodipodi-0.dtd"
   xmlns="http://www.w3.org/2000/svg"
   xmlns:svg="http://www.w3.org/2000/svg">
  <defs
     id="defs32" />
  <sodipodi:namedview
     id="namedview32"
     pagecolor="#ffffff"
     bordercolor="#666666"
     borderopacity="1.0"
     inkscape:showpageshadow="2"
     inkscape:pageopacity="0.0"
     inkscape:pagecheckerboard="0"
     inkscape:deskcolor="#d1d1d1"
     inkscape:zoom="1.9622222"
     inkscape:cx="224.74519"
     inkscape:cy="124.85844"
     inkscape:current-layer="world-map" />
  <path
     d="m 121.03976,0.16318297 c -2.463,0.99300003 -0.971,4.83200003 1.558,3.87600003 2.5,-0.946 0.935,-4.88200003 -1.558,-3.87600003 m 6.866,-0.02 c -2.674,0.8 -1.336,4.87500003 1.306,3.89500003 2.356,-0.874 1.138,-4.62800003 -1.306,-3.89600003 m 6.607,0.024 c -2.593,0.93900003 -1.28,4.83000003 1.314,3.87200003 2.461,-0.908 1.14,-4.76000003 -1.314,-3.87200003 m -19.844,6.59800003 c -2.622,0.68 -1.486,4.824 1.05,4.052 2.528,-0.769 1.484,-4.708 -1.05,-4.052 m 6.612,0.024 c -2.516,0.82 -1.454,4.783 1.056,4.028 2.58,-0.775 1.417,-4.833 -1.056,-4.028 m 6.617,0 c -2.47,0.827 -1.468,4.786 1.053,4.028 2.575,-0.773 1.52,-4.89 -1.053,-4.028 m 6.615,-0.001 c -2.628,0.899 -1.318,4.867 1.294,3.963 2.481,-0.858 1.219,-4.823 -1.294,-3.963 m 6.615,-0.007 c -2.555,0.932 -1.27,4.88 1.314,3.983 2.589,-0.9 1.188,-4.895 -1.314,-3.983 m -59.796,6.622 c -2.504,0.826 -1.462,4.901 1.053,4.082 2.544,-0.828 1.443,-4.905 -1.053,-4.082 m 6.876,-0.028 c -2.568,0.487 -2.056,4.495 0.527,4.185 2.692,-0.322 2.17,-4.698 -0.527,-4.185 m 19.847,0.018 c -2.545,0.594 -1.794,4.65 0.788,4.16 2.74,-0.518 1.897,-4.787 -0.788,-4.16 m 6.612,0.01 c -2.54,0.827 -1.511,4.932 1.055,4.082 2.523,-0.834 1.413,-4.886 -1.055,-4.082 m 6.879,-0.006 c -2.614,0.394 -2.061,4.575 0.527,4.153 2.618,-0.427 2.107,-4.55 -0.527,-4.153 m 6.614,-0.021 c -2.578,0.458 -2.044,4.536 0.527,4.178 2.693,-0.376 2.073,-4.64 -0.527,-4.178 m 6.615,-10e-4 c -2.754,0.523 -1.875,4.772 0.788,4.155 2.54,-0.588 1.802,-4.648 -0.788,-4.155 m 6.615,0.021 c -2.665,0.58 -1.856,4.659 0.79,4.12 2.677,-0.543 1.842,-4.693 -0.79,-4.12 m 146.313,0.007 c -2.543,0.829 -1.445,4.897 1.058,4.082 2.543,-0.828 1.445,-4.896 -1.058,-4.082 m -212.725,6.615 c -2.654,0.346 -2.168,4.605 0.525,4.205 2.632,-0.391 2.084,-4.545 -0.525,-4.205 m 6.88,0.01 c -2.645,0.036 -2.661,4.121 0,4.173 2.715,0.054 2.674,-4.208 0,-4.172 m 6.614,0.013 c -2.817,0.108 -2.44,4.37 0.263,4.177 2.528,-0.181 2.265,-4.273 -0.263,-4.177 m 13.23,-0.004 c -2.71,0.173 -2.408,4.37 0.263,4.18 2.73,-0.193 2.443,-4.352 -0.264,-4.18 m 6.615,0.01 c -2.502,0.269 -2.286,4.352 0.264,4.17 2.737,-0.194 2.519,-4.468 -0.264,-4.17 m 6.614,-0.006 c -2.488,0.315 -2.293,4.358 0.265,4.177 2.79,-0.198 2.514,-4.529 -0.265,-4.177 m 6.616,-0.03 c -2.612,0.393 -2.139,4.549 0.527,4.224 2.684,-0.328 2.12,-4.623 -0.527,-4.224 m 6.878,0.017 c -2.82,0.038 -2.447,4.384 0.263,4.19 2.536,-0.182 2.258,-4.224 -0.263,-4.19 m 6.614,0.012 c -2.766,0.14 -2.439,4.37 0.265,4.178 2.625,-0.187 2.374,-4.311 -0.265,-4.178 m 6.616,-0.003 c -2.722,0.173 -2.45,4.373 0.263,4.18 2.727,-0.193 2.485,-4.354 -0.263,-4.18 m 6.614,0.007 c -2.65,0.22 -2.4,4.363 0.264,4.174 2.734,-0.194 2.527,-4.406 -0.264,-4.174 m 133.085,-0.003 c -2.487,0.315 -2.294,4.359 0.264,4.177 2.741,-0.195 2.522,-4.53 -0.264,-4.177 m 6.614,-0.03 c -2.64,0.395 -2.172,4.644 0.527,4.18 2.622,-0.451 2.08,-4.57 -0.527,-4.18 m 6.615,0 c -2.614,0.393 -2.122,4.51 0.53,4.221 2.687,-0.294 2.118,-4.62 -0.53,-4.221 m -246.831,6.874 c -2.425,0.996 -0.807,4.736 1.557,3.839 2.513,-0.954 0.97,-4.878 -1.557,-3.84 m 6.617,0.032 c -2.362,1.045 -0.809,4.7 1.555,3.808 2.658,-1.004 1.03,-4.953 -1.555,-3.808 m 6.601,0.044 c -2.355,1.261 -0.477,4.883 1.826,3.689 2.448,-1.27 0.587,-4.98 -1.826,-3.689 m 6.616,0 c -2.36,1.279 -0.294,5.023 2.044,3.613 2.274,-1.371 0.294,-4.88 -2.044,-3.613 m 6.869,-0.074 c -2.505,0.963 -0.915,4.844 1.57,3.807 2.465,-1.027 0.92,-4.765 -1.57,-3.807 m 6.62,0 c -2.482,0.975 -0.934,4.802 1.572,3.838 2.506,-0.964 0.918,-4.816 -1.571,-3.838 m 6.614,-10e-4 c -2.439,0.976 -0.88,4.782 1.571,3.84 2.518,-0.97 0.972,-4.858 -1.57,-3.84 m 19.847,0.075 c -2.31,1.246 -0.485,4.886 1.825,3.689 2.499,-1.296 0.621,-5.008 -1.825,-3.689 m 6.628,0 c -2.327,1.296 -0.302,4.965 2.059,3.65 2.326,-1.296 0.26,-4.941 -2.059,-3.65 m 6.862,-0.074 c -2.478,0.973 -0.933,4.819 1.564,3.838 2.478,-0.973 0.933,-4.819 -1.564,-3.838 m 6.615,-10e-4 c -2.467,0.987 -0.903,4.791 1.57,3.84 2.518,-0.97 0.971,-4.858 -1.57,-3.84 m 6.63,0 c -2.386,0.994 -0.819,4.736 1.555,3.839 2.653,-1.003 0.966,-4.89 -1.555,-3.84 m 6.615,0.031 c -2.363,1.046 -0.81,4.696 1.556,3.809 2.743,-1.029 1.03,-4.953 -1.556,-3.809 m 6.601,0.045 c -2.355,1.26 -0.477,4.883 1.826,3.689 2.448,-1.27 0.587,-4.98 -1.826,-3.689 m 53.443,-0.074 c -2.478,0.973 -0.933,4.819 1.564,3.838 2.478,-0.973 0.933,-4.819 -1.564,-3.838 m 73.027,0.074 c -2.355,1.261 -0.477,4.883 1.828,3.689 2.447,-1.27 0.585,-4.98 -1.828,-3.689 m 6.617,0 c -2.363,1.28 -0.304,5.001 2.05,3.613 2.305,-1.36 0.278,-4.875 -2.05,-3.613 m 6.874,-0.074 c -2.477,0.973 -0.932,4.819 1.566,3.838 2.477,-0.973 0.931,-4.819 -1.566,-3.838 m 6.614,0 c -2.476,0.972 -0.931,4.819 1.567,3.838 2.497,-0.98 0.96,-4.83 -1.567,-3.838 m -246.31,6.645 c -2.373,1.03 -0.89,4.752 1.555,3.845 2.52,-0.936 0.957,-4.936 -1.555,-3.845 m 6.599,0.045 c -2.442,1.266 -0.49,4.924 1.826,3.688 2.357,-1.257 0.477,-4.882 -1.826,-3.688 m 6.872,-0.076 c -2.643,1 -0.963,4.912 1.534,3.84 2.379,-1.022 0.852,-4.741 -1.534,-3.84 m 6.615,0 c -2.52,0.962 -0.971,4.857 1.57,3.84 2.473,-0.99 0.874,-4.772 -1.57,-3.84 m 6.621,0 c -2.478,0.973 -0.933,4.82 1.564,3.839 2.478,-0.973 0.934,-4.82 -1.564,-3.839 m 6.615,0 c -2.481,0.974 -0.924,4.817 1.564,3.876 2.484,-0.94 0.953,-4.864 -1.564,-3.876 m 6.63,0.03 c -2.413,1.05 -0.945,4.772 1.555,3.846 2.52,-0.935 0.957,-4.936 -1.554,-3.845 m 26.706,-0.03 c -2.477,0.972 -0.933,4.818 1.565,3.838 2.477,-0.973 0.933,-4.82 -1.565,-3.839 m 6.615,0 c -2.478,0.973 -0.933,4.82 1.564,3.839 2.478,-0.973 0.933,-4.82 -1.564,-3.839 m 6.628,0 c -2.47,0.996 -0.947,4.804 1.557,3.876 2.505,-0.93 0.936,-4.881 -1.557,-3.876 m 6.617,0.03 c -2.373,1.032 -0.89,4.753 1.555,3.846 2.52,-0.936 0.956,-4.936 -1.555,-3.845 m 6.599,0.045 c -2.586,1.34 -0.298,5.036 2.048,3.611 2.211,-1.342 0.152,-4.752 -2.048,-3.611 m 93.391,-0.076 c -2.518,0.961 -0.969,4.869 1.568,3.84 2.407,-0.977 0.862,-4.767 -1.568,-3.84 m 6.621,0 c -2.47,0.97 -0.958,4.849 1.564,3.84 2.472,-0.99 0.934,-4.82 -1.564,-3.84 m 13.243,0 c -2.46,0.992 -0.915,4.793 1.557,3.876 2.523,-0.937 0.965,-4.893 -1.557,-3.876 m 6.617,0.03 c -2.374,1.032 -0.89,4.753 1.555,3.846 2.521,-0.936 0.956,-4.936 -1.555,-3.845 m 6.597,0.044 c -2.431,1.28 -0.497,4.914 1.831,3.689 2.432,-1.28 0.498,-4.914 -1.83,-3.689 m 6.873,-0.075 c -2.653,1.008 -0.957,4.92 1.556,3.809 2.368,-1.048 0.873,-4.73 -1.556,-3.809 m 6.615,0 c -2.522,0.961 -0.971,4.857 1.572,3.84 2.481,-0.994 0.904,-4.784 -1.572,-3.84 m 6.62,0 c -2.469,0.97 -0.958,4.849 1.566,3.84 2.471,-0.99 0.931,-4.82 -1.566,-3.84 m 6.614,0 c -2.484,0.976 -0.923,4.8 1.572,3.876 2.514,-0.932 0.937,-4.86 -1.572,-3.876 m 6.628,0 c -2.458,0.992 -0.915,4.791 1.559,3.876 2.616,-0.97 0.97,-4.895 -1.559,-3.876 m 6.602,0.075 c -2.43,1.279 -0.559,4.966 1.828,3.689 2.347,-1.258 0.5,-4.914 -1.828,-3.689 m 6.617,0 c -2.35,1.254 -0.5,4.913 1.828,3.689 2.432,-1.28 0.492,-4.926 -1.828,-3.689 m 13.49,-0.075 c -2.489,0.978 -0.983,4.86 1.567,3.84 2.471,-0.99 0.932,-4.82 -1.566,-3.84 m 6.614,0 c -2.476,0.973 -0.93,4.82 1.567,3.839 2.476,-0.973 0.931,-4.82 -1.567,-3.839 m -325.973,6.618 c -2.788,1.01 -1.118,4.964 1.555,3.836 2.313,-0.976 0.792,-4.686 -1.555,-3.836 m 6.615,0 c -2.745,0.994 -1.072,4.936 1.556,3.836 2.357,-0.987 0.784,-4.684 -1.556,-3.836 m 6.615,0 c -2.623,0.96 -0.977,4.856 1.571,3.836 2.45,-0.98 0.767,-4.692 -1.57,-3.836 m 20.113,-0.024 c -2.708,0.806 -1.346,4.9 1.308,3.897 2.35,-0.89 1.14,-4.624 -1.308,-3.897 m 13.223,0.024 c -2.745,0.994 -1.072,4.936 1.556,3.836 2.357,-0.987 0.785,-4.684 -1.556,-3.836 m 6.615,0 c -2.707,0.987 -1.084,4.917 1.568,3.836 2.41,-0.981 0.78,-4.692 -1.568,-3.836 m 6.622,0 c -2.502,0.936 -0.988,4.857 1.564,3.836 2.446,-0.979 0.765,-4.707 -1.564,-3.836 m 6.614,-0.003 c -2.492,0.97 -0.986,4.86 1.564,3.84 2.479,-0.993 0.904,-4.8 -1.564,-3.84 m 6.628,0.03 c -2.447,1.04 -0.957,4.797 1.558,3.846 2.507,-0.948 0.899,-4.889 -1.558,-3.845 m 33.324,-0.028 c -2.506,0.938 -0.977,4.854 1.565,3.873 2.499,-0.965 0.875,-4.787 -1.565,-3.873 m 6.615,-0.003 c -2.476,0.964 -0.948,4.846 1.564,3.876 2.486,-0.96 0.922,-4.844 -1.564,-3.876 m 6.869,0.003 c -2.66,0.95 -1.291,4.839 1.316,3.872 2.353,-0.872 1.11,-4.74 -1.316,-3.872 m 6.617,0 c -2.621,0.949 -1.305,4.838 1.314,3.872 2.503,-0.923 1.153,-4.765 -1.314,-3.872 m 6.615,0 c -2.745,0.994 -1.072,4.936 1.555,3.836 2.358,-0.986 0.785,-4.684 -1.555,-3.836 m 59.803,-0.003 c -2.476,0.964 -0.948,4.846 1.564,3.876 2.486,-0.96 0.922,-4.844 -1.564,-3.876 m 6.878,-0.02 c -2.708,0.805 -1.347,4.9 1.308,3.896 2.35,-0.89 1.14,-4.624 -1.308,-3.897 m 19.838,0.024 c -2.7,0.984 -1.082,4.94 1.555,3.836 2.39,-1 0.803,-4.696 -1.555,-3.836 m 26.73,-0.024 c -2.666,0.799 -1.36,4.905 1.306,3.897 2.349,-0.888 1.14,-4.63 -1.306,-3.897 m 6.607,0.024 c -2.612,0.945 -1.271,4.826 1.314,3.872 2.502,-0.924 1.153,-4.765 -1.314,-3.872 m 6.616,0 c -2.699,0.984 -1.082,4.94 1.555,3.836 2.355,-0.986 0.784,-4.69 -1.555,-3.836 m 6.614,0 c -2.67,0.974 -1.077,4.9 1.572,3.836 2.447,-0.984 0.767,-4.69 -1.572,-3.836 m 6.62,0 c -2.5,0.936 -0.987,4.857 1.567,3.836 2.47,-0.989 0.788,-4.717 -1.567,-3.836 m 6.615,-0.003 c -2.495,0.971 -0.977,4.857 1.566,3.876 2.485,-0.96 0.92,-4.844 -1.566,-3.876 m 6.614,0.03 c -2.46,1.027 -0.934,4.793 1.572,3.846 2.506,-0.948 0.934,-4.89 -1.572,-3.846 m 6.874,-0.027 c -2.616,0.947 -1.325,4.87 1.313,3.873 2.36,-0.893 1.143,-4.762 -1.313,-3.873 m 6.615,0 c -2.747,0.994 -1.074,4.936 1.556,3.836 2.354,-0.986 0.783,-4.683 -1.556,-3.836 m 6.614,0 c -2.698,0.984 -1.082,4.94 1.556,3.836 2.39,-1 0.802,-4.696 -1.556,-3.836 m 6.615,0 c -2.53,0.927 -0.974,4.854 1.572,3.836 2.45,-0.98 0.764,-4.693 -1.572,-3.836 m 6.62,0 c -2.506,0.941 -0.976,4.854 1.566,3.873 2.493,-0.963 0.905,-4.802 -1.566,-3.873 m 6.614,0.027 c -2.46,1.027 -0.934,4.793 1.572,3.846 2.506,-0.948 0.934,-4.89 -1.572,-3.846 m 6.63,0 c -2.412,1.049 -0.944,4.772 1.557,3.845 2.503,-0.928 0.928,-4.922 -1.556,-3.845 m -332.604,6.595 c -2.654,0.889 -1.262,4.982 1.307,4.012 2.446,-0.922 1.165,-4.84 -1.307,-4.012 m 6.616,-0.001 c -2.566,0.884 -1.222,4.947 1.313,4.013 2.56,-0.943 1.214,-4.884 -1.313,-4.013 m 6.878,-0.044 c -2.592,0.6 -1.784,4.625 0.789,4.155 2.758,-0.504 1.875,-4.77 -0.789,-4.155 m 6.614,0 c -2.638,0.611 -1.498,4.849 1.05,4.073 2.515,-0.764 1.456,-4.653 -1.05,-4.073 m 6.622,0.021 c -2.598,0.687 -1.508,4.82 1.046,4.052 2.562,-0.769 1.472,-4.717 -1.046,-4.052 m 6.608,0.024 c -2.471,0.827 -1.469,4.786 1.053,4.028 2.574,-0.773 1.519,-4.89 -1.053,-4.028 m 6.614,0 c -2.645,0.885 -1.299,4.923 1.308,3.976 2.374,-0.864 1.14,-4.796 -1.308,-3.976 m 6.615,-0.001 c -2.619,0.896 -1.241,4.971 1.307,4.013 2.534,-0.952 1.233,-4.882 -1.307,-4.013 m 6.622,0 c -2.543,0.894 -1.221,4.896 1.306,4.043 2.619,-0.883 1.241,-4.939 -1.306,-4.043 m 6.872,-0.023 c -2.619,0.679 -1.568,4.854 1.05,4.052 2.51,-0.768 1.448,-4.7 -1.05,-4.052 m 6.62,0 c -2.596,0.687 -1.504,4.828 1.045,4.052 2.523,-0.767 1.483,-4.72 -1.044,-4.052 m 6.615,0 c -2.537,0.69 -1.482,4.812 1.046,4.052 2.558,-0.768 1.532,-4.753 -1.046,-4.052 m 6.607,0.024 c -2.648,0.887 -1.28,4.969 1.308,3.954 2.347,-0.92 1.136,-4.772 -1.308,-3.954 m 33.335,0 c -2.51,0.83 -1.456,4.783 1.056,4.028 2.574,-0.773 1.483,-4.869 -1.056,-4.028 m 6.617,0 c -2.474,0.829 -1.447,4.82 1.053,4.069 2.568,-0.772 1.537,-4.936 -1.053,-4.07 m 6.615,0 c -2.654,0.89 -1.263,4.983 1.307,4.013 2.446,-0.922 1.165,-4.84 -1.307,-4.012 m 6.615,-0.008 c -2.551,0.931 -1.203,4.928 1.314,4.02 2.6,-0.94 1.229,-4.947 -1.314,-4.02 m 53.445,-0.037 c -2.465,0.571 -1.753,4.62 0.79,4.155 2.757,-0.504 1.874,-4.772 -0.79,-4.155 m 6.622,0.021 c -2.598,0.687 -1.505,4.828 1.043,4.052 2.524,-0.767 1.484,-4.72 -1.043,-4.052 m 6.605,0.024 c -2.514,0.823 -1.455,4.783 1.056,4.028 2.582,-0.775 1.494,-4.863 -1.056,-4.028 m 6.617,0 c -2.648,0.887 -1.28,4.969 1.307,3.954 2.348,-0.92 1.137,-4.772 -1.307,-3.954 m 20.109,-0.024 c -2.518,0.653 -1.803,4.627 0.788,4.135 2.76,-0.525 1.859,-4.82 -0.788,-4.135 m 13.235,0 c -2.597,0.687 -1.507,4.82 1.047,4.052 2.561,-0.769 1.472,-4.717 -1.047,-4.052 m 6.608,0.024 c -2.47,0.827 -1.468,4.786 1.053,4.028 2.575,-0.773 1.52,-4.89 -1.053,-4.028 m 6.615,-0.008 c -2.618,0.948 -1.305,4.932 1.307,3.984 2.457,-0.893 1.167,-4.88 -1.307,-3.984 m 6.616,0 c -2.598,0.94 -1.196,4.925 1.312,4.02 2.572,-0.929 1.21,-4.933 -1.312,-4.02 m 6.874,-0.037 c -2.572,0.588 -1.805,4.557 0.793,4.134 2.773,-0.451 1.868,-4.742 -0.793,-4.134 m 6.62,0.021 c -2.62,0.679 -1.57,4.854 1.047,4.052 2.511,-0.768 1.45,-4.7 -1.048,-4.052 m 6.62,0 c -2.598,0.687 -1.508,4.82 1.048,4.052 2.561,-0.769 1.471,-4.717 -1.048,-4.052 m 6.604,0.024 c -2.508,0.83 -1.455,4.783 1.059,4.028 2.574,-0.773 1.521,-4.88 -1.059,-4.028 m 6.62,0 c -2.471,0.827 -1.481,4.735 1.048,4.079 2.63,-0.682 1.54,-4.946 -1.048,-4.08 m 6.615,-0.007 c -2.598,0.94 -1.249,4.98 1.307,4.02 2.532,-0.952 1.228,-4.938 -1.307,-4.02 m 6.874,-0.037 c -2.649,0.605 -1.818,4.653 0.793,4.156 2.704,-0.516 1.884,-4.767 -0.793,-4.156 m 6.62,0.021 c -2.612,0.677 -1.599,4.872 1.047,4.053 2.509,-0.776 1.45,-4.7 -1.047,-4.053 m 6.614,0 c -2.625,0.68 -1.487,4.825 1.048,4.052 2.53,-0.769 1.484,-4.708 -1.048,-4.052 m 6.61,0.024 c -2.525,0.835 -1.49,4.794 1.058,4.028 2.574,-0.773 1.521,-4.88 -1.059,-4.028 m 6.62,-0.001 c -2.643,0.904 -1.283,4.97 1.307,3.955 2.342,-0.918 1.16,-4.799 -1.307,-3.955 m 6.615,0 c -2.463,0.842 -1.484,4.736 1.048,4.08 2.754,-0.713 1.627,-4.996 -1.048,-4.08 m 6.614,-0.007 c -2.555,0.932 -1.267,4.94 1.313,4.05 2.585,-0.89 1.22,-4.973 -1.313,-4.05 m 6.874,-0.037 c -2.574,0.589 -1.788,4.646 0.794,4.156 2.754,-0.524 1.876,-4.766 -0.794,-4.156 m -359.303,6.632 c -2.57399998,0.47 -2.05199998,4.493 0.527,4.184 2.699,-0.323 2.15,-4.674 -0.527,-4.184 m 6.615,-10e-4 c -2.568,0.487 -2.056,4.493 0.528,4.185 2.811,-0.334 2.188,-4.701 -0.528,-4.185 m 6.617,0.02 c -2.634,0.582 -1.855,4.739 0.789,4.135 2.65,-0.605 1.808,-4.707 -0.789,-4.134 m 6.615,-0.003 c -2.544,0.594 -1.794,4.65 0.789,4.16 2.74,-0.518 1.897,-4.787 -0.789,-4.16 m 6.621,0 c -2.447,0.583 -1.705,4.637 0.783,4.16 2.736,-0.522 1.894,-4.798 -0.783,-4.16 m 6.869,0.004 c -2.652,0.396 -2.103,4.616 0.529,4.154 2.609,-0.459 2.11,-4.548 -0.529,-4.154 m 6.615,-0.021 c -2.572,0.47 -2.053,4.497 0.524,4.184 2.665,-0.323 2.166,-4.676 -0.524,-4.184 m 6.615,-10e-4 c -2.568,0.487 -2.056,4.493 0.528,4.185 2.736,-0.325 2.156,-4.695 -0.528,-4.185 m 6.615,0 c -2.7,0.514 -1.897,4.688 0.79,4.142 2.674,-0.543 1.81,-4.638 -0.79,-4.142 m 6.617,0.02 c -2.63,0.58 -1.868,4.66 0.789,4.122 2.743,-0.556 1.868,-4.707 -0.789,-4.121 m 6.621,-0.003 c -2.445,0.583 -1.768,4.608 0.782,4.158 2.744,-0.484 1.896,-4.796 -0.782,-4.158 m 6.869,0.004 c -2.66,0.398 -2.075,4.651 0.53,4.157 2.595,-0.493 2.114,-4.553 -0.53,-4.157 m 6.615,-0.021 c -2.589,0.46 -2.074,4.598 0.528,4.174 2.63,-0.429 2.084,-4.638 -0.528,-4.174 m 6.615,-10e-4 c -2.568,0.487 -2.056,4.495 0.527,4.185 2.692,-0.323 2.17,-4.698 -0.527,-4.185 m 6.615,0 c -2.705,0.515 -1.884,4.766 0.791,4.155 2.65,-0.605 1.82,-4.653 -0.791,-4.155 m 26.722,0.022 c -2.66,0.397 -2.051,4.573 0.528,4.153 2.619,-0.427 2.107,-4.547 -0.528,-4.153 m 6.615,-0.021 c -2.572,0.47 -2.053,4.497 0.524,4.184 2.665,-0.323 2.166,-4.676 -0.524,-4.184 m 59.799,0.02 c -2.636,0.58 -1.859,4.658 0.789,4.158 2.724,-0.515 1.849,-4.74 -0.79,-4.158 m 6.615,0.01 c -2.629,0.682 -1.537,4.946 1.05,4.08 2.471,-0.828 1.48,-4.735 -1.05,-4.08 m 6.876,-0.009 c -2.653,0.396 -2.103,4.616 0.529,4.154 2.609,-0.459 2.11,-4.549 -0.53,-4.154 m 6.355,0.006 c -2.504,0.826 -1.462,4.9 1.053,4.082 2.543,-0.828 1.443,-4.905 -1.053,-4.082 m 6.876,-0.007 c -2.778,0.454 -1.859,4.748 0.789,4.17 2.464,-0.536 1.759,-4.587 -0.79,-4.17 m 6.616,0 c -2.69,0.586 -1.876,4.744 0.79,4.134 2.605,-0.595 1.809,-4.7 -0.79,-4.134 m 6.617,0 c -2.639,0.581 -1.847,4.737 0.788,4.17 2.656,-0.57 1.863,-4.754 -0.788,-4.17 m 6.615,-0.003 c -2.545,0.594 -1.794,4.65 0.788,4.16 2.74,-0.518 1.897,-4.787 -0.788,-4.16 m 6.611,0.024 c -2.567,0.771 -1.5,4.914 1.056,4.068 2.514,-0.832 1.435,-4.817 -1.056,-4.068 m 6.879,-0.02 c -2.66,0.397 -2.052,4.573 0.528,4.153 2.619,-0.427 2.107,-4.547 -0.528,-4.153 m 6.353,0.006 c -2.478,0.818 -1.476,4.76 1.05,4.106 2.643,-0.685 1.439,-4.926 -1.05,-4.106 m 6.877,-0.029 c -2.759,0.525 -1.867,4.771 0.788,4.193 2.544,-0.554 1.814,-4.687 -0.788,-4.193 m 6.618,0.022 c -2.635,0.58 -1.857,4.738 0.789,4.134 2.65,-0.605 1.85,-4.715 -0.789,-4.134 m 6.615,-0.003 c -2.625,0.612 -1.865,4.662 0.788,4.16 2.739,-0.517 1.897,-4.787 -0.788,-4.16 m 6.614,-0.013 c -2.63,0.681 -1.55,4.975 1.048,4.105 2.474,-0.828 1.482,-4.76 -1.048,-4.105 m 6.61,0.023 c -2.538,0.827 -1.508,4.932 1.058,4.082 2.535,-0.84 1.447,-4.897 -1.058,-4.082 m 6.879,-0.006 c -2.66,0.397 -2.05,4.573 0.53,4.153 2.618,-0.427 2.105,-4.547 -0.53,-4.153 m 6.615,-0.023 c -2.752,0.524 -1.874,4.773 0.788,4.156 2.46,-0.57 1.775,-4.642 -0.788,-4.156 m 6.614,0 c -2.76,0.525 -1.865,4.764 0.794,4.193 2.654,-0.57 1.828,-4.69 -0.794,-4.193 m 6.62,0.022 c -2.64,0.581 -1.85,4.735 0.788,4.17 2.704,-0.578 1.855,-4.753 -0.788,-4.17 m 6.615,-0.003 c -2.474,0.578 -1.794,4.613 0.788,4.158 2.746,-0.484 1.897,-4.786 -0.788,-4.158 m 6.614,0.013 c -2.63,0.682 -1.542,4.937 1.053,4.08 2.508,-0.83 1.469,-4.734 -1.053,-4.08 m 6.874,-0.01 c -2.651,0.397 -2.072,4.48 0.527,4.164 2.661,-0.323 2.11,-4.557 -0.527,-4.163 m 6.615,-10e-4 c -2.593,0.424 -2.043,4.424 0.526,4.177 2.657,-0.255 2.175,-4.619 -0.526,-4.177 m 6.614,-0.022 c -2.754,0.524 -1.876,4.766 0.794,4.156 2.603,-0.595 1.815,-4.65 -0.794,-4.156 m 6.62,0.022 c -2.638,0.58 -1.86,4.658 0.789,4.157 2.722,-0.514 1.849,-4.738 -0.789,-4.157 m 6.615,-0.003 c -2.55,0.595 -1.837,4.656 0.788,4.16 2.739,-0.517 1.897,-4.787 -0.788,-4.16 m -352.43,6.645 c -2.81,0.177 -2.442,4.373 0.264,4.18 2.665,-0.189 2.401,-4.348 -0.265,-4.18 m 13.23,0.01 c -2.601,0.28 -2.406,4.36 0.264,4.17 2.737,-0.194 2.52,-4.468 -0.264,-4.17 m 33.338,-0.01 c -2.721,0.173 -2.45,4.373 0.263,4.18 2.683,-0.19 2.44,-4.352 -0.263,-4.18 m 6.614,0.01 c -2.601,0.28 -2.406,4.36 0.264,4.17 2.738,-0.194 2.52,-4.468 -0.264,-4.17 m 33.337,-0.007 c -2.766,0.14 -2.439,4.37 0.264,4.178 2.689,-0.191 2.423,-4.314 -0.264,-4.178 m 6.616,-0.003 c -2.71,0.172 -2.408,4.37 0.263,4.18 2.727,-0.193 2.485,-4.354 -0.263,-4.18 m 53.18,0.01 c -2.501,0.27 -2.285,4.352 0.265,4.17 2.786,-0.197 2.513,-4.467 -0.265,-4.17 m 39.952,0 c -2.501,0.27 -2.285,4.352 0.265,4.17 2.786,-0.197 2.513,-4.467 -0.265,-4.17 m 26.723,-0.006 c -2.768,0.106 -2.44,4.369 0.264,4.177 2.676,-0.19 2.33,-4.276 -0.264,-4.177 m 13.233,-0.003 c -2.616,0.168 -2.33,4.364 0.26,4.18 2.735,-0.195 2.53,-4.36 -0.26,-4.18 m 13.226,0.003 c -2.622,0.335 -2.17,4.522 0.527,4.194 2.67,-0.325 2.1,-4.529 -0.527,-4.194 m 13.493,0 c -2.817,0.108 -2.44,4.369 0.264,4.177 2.676,-0.19 2.33,-4.276 -0.264,-4.177 m 6.615,-0.003 c -2.71,0.171 -2.405,4.37 0.264,4.18 2.678,-0.19 2.482,-4.355 -0.264,-4.18 m 39.952,0.002 c -2.815,0.142 -2.44,4.37 0.264,4.178 2.67,-0.19 2.387,-4.312 -0.264,-4.178 m 6.614,-0.002 c -2.709,0.171 -2.407,4.37 0.265,4.18 2.725,-0.194 2.484,-4.355 -0.265,-4.18 m 6.615,0.01 c -2.675,0.287 -2.183,4.681 0.529,4.163 2.535,-0.484 2.103,-4.445 -0.53,-4.163 m 39.956,-0.01 c -2.633,0.169 -2.413,4.37 0.262,4.18 2.733,-0.194 2.529,-4.36 -0.262,-4.18 m -346.844,0.232 c -2.356,0.987 -0.784,4.69 1.555,3.837 2.712,-0.99 1.112,-4.953 -1.555,-3.837 m 13.217,0.076 c -2.203,1.194 -0.49,4.828 1.831,3.648 2.535,-1.288 0.583,-4.956 -1.831,-3.648 m 6.628,0 c -2.28,1.278 -0.366,4.828 2,3.636 2.398,-1.208 0.373,-4.967 -2,-3.636 m 6.614,0 c -2.318,1.3 -0.221,4.897 2.06,3.648 2.354,-1.29 0.309,-4.976 -2.06,-3.648 m 6.862,-0.076 c -2.45,0.98 -0.767,4.692 1.571,3.837 2.624,-0.96 0.978,-4.856 -1.57,-3.837 m 19.847,0.076 c -2.203,1.194 -0.49,4.828 1.832,3.648 2.534,-1.288 0.582,-4.956 -1.832,-3.648 m 6.615,0 c -2.344,1.278 -0.318,4.937 2.072,3.545 2.3,-1.34 0.247,-4.81 -2.072,-3.545 m 13.49,-0.076 c -2.451,0.98 -0.767,4.693 1.57,3.837 2.53,-0.928 0.973,-4.855 -1.57,-3.837 m 33.09,0.076 c -2.306,1.292 -0.28,4.95 2.059,3.649 2.32,-1.292 0.29,-4.967 -2.06,-3.65 m 39.953,0 c -2.333,1.308 -0.312,4.878 2.059,3.612 2.34,-1.25 0.275,-4.92 -2.06,-3.611 m 20.108,-0.076 c -2.39,1 -0.803,4.696 1.555,3.837 2.7,-0.985 1.082,-4.94 -1.555,-3.837 m 6.636,0 c -2.306,1.003 -0.825,4.69 1.534,3.837 2.747,-0.995 1.097,-4.98 -1.534,-3.837 m 19.823,0.076 c -2.315,1.298 -0.287,4.864 2.06,3.611 2.366,-1.264 0.293,-4.93 -2.06,-3.611 m 6.862,-0.076 c -2.45,0.98 -0.766,4.693 1.571,3.837 2.53,-0.928 0.973,-4.855 -1.57,-3.837 m 13.245,0 c -2.358,0.987 -0.785,4.684 1.555,3.837 2.758,-0.999 1.102,-4.949 -1.555,-3.837 m 13.217,0.076 c -2.335,1.265 -0.323,4.938 2.05,3.575 2.322,-1.333 0.26,-4.828 -2.05,-3.575 m 13.242,0 c -2.305,1.292 -0.16,4.862 2.059,3.648 2.356,-1.289 0.31,-4.976 -2.059,-3.648 m 20.109,-0.045 c -2.445,1.094 -0.55,4.917 1.812,3.693 2.487,-1.29 0.683,-4.81 -1.812,-3.693 m 6.6,0.045 c -2.224,1.205 -0.491,4.869 1.832,3.688 2.535,-1.287 0.6,-5.007 -1.831,-3.688 m 6.614,0 c -2.333,1.272 -0.277,4.987 2.051,3.649 2.318,-1.33 0.325,-4.945 -2.05,-3.65 m 6.627,0 c -2.328,1.305 -0.27,4.944 2.059,3.65 2.347,-1.304 0.31,-4.977 -2.059,-3.65 m 6.615,0 c -2.313,1.297 -0.164,4.84 2.072,3.65 2.376,-1.266 0.29,-4.974 -2.072,-3.65 m 26.71,0 c -2.334,1.273 -0.286,4.991 2.05,3.613 2.302,-1.357 0.31,-4.9 -2.05,-3.612 m 6.627,0 c -2.333,1.308 -0.272,4.928 2.059,3.648 2.355,-1.293 0.31,-4.976 -2.059,-3.648 m 6.861,-0.076 c -2.463,0.987 -0.804,4.758 1.566,3.84 2.493,-0.967 0.987,-4.86 -1.566,-3.84 m 6.615,0 c -2.45,0.982 -0.768,4.69 1.571,3.837 2.678,-0.977 1.045,-4.884 -1.571,-3.837 m 6.617,0 c -2.373,0.968 -0.76,4.686 1.569,3.837 2.72,-0.992 1.114,-4.93 -1.57,-3.837 m -346.073,6.646 c -2.382,1.025 -0.783,4.7 1.568,3.808 2.61,-0.99 0.969,-4.9 -1.568,-3.808 m 6.628,0 c -2.53,1.12 -0.548,4.917 1.813,3.693 2.441,-1.266 0.613,-4.767 -1.813,-3.693 m 6.601,0.045 c -2.357,1.258 -0.477,4.882 1.826,3.688 2.47,-1.281 0.58,-4.973 -1.826,-3.688 m 6.87,-0.075 c -2.498,0.96 -0.917,4.836 1.558,3.838 2.467,-0.995 0.956,-4.805 -1.558,-3.838 m 6.621,0 c -2.478,0.973 -0.933,4.819 1.564,3.838 2.478,-0.973 0.934,-4.819 -1.564,-3.838 m 6.615,0 c -2.478,0.973 -0.933,4.819 1.564,3.838 2.497,-0.98 0.962,-4.83 -1.564,-3.838 m 6.63,-0.001 c -2.385,0.994 -0.817,4.74 1.555,3.839 2.512,-0.954 0.967,-4.89 -1.555,-3.84 m 6.615,0.032 c -2.362,1.044 -0.808,4.7 1.555,3.808 2.693,-1.017 0.97,-4.925 -1.555,-3.808 m 6.601,0.045 c -2.355,1.26 -0.477,4.882 1.826,3.688 2.448,-1.27 0.587,-4.98 -1.826,-3.688 m 6.616,0 c -2.336,1.265 -0.286,4.99 2.051,3.612 2.305,-1.36 0.279,-4.875 -2.05,-3.612 m 6.874,-0.075 c -2.478,0.973 -0.933,4.819 1.564,3.838 2.478,-0.973 0.934,-4.819 -1.564,-3.838 m 13.23,0 c -2.443,0.959 -0.847,4.77 1.57,3.838 2.525,-0.973 0.947,-4.827 -1.57,-3.838 m 6.63,-0.001 c -2.386,0.994 -0.819,4.736 1.555,3.839 2.653,-1.003 0.966,-4.89 -1.555,-3.84 m 6.599,0.077 c -2.439,1.283 -0.475,4.882 1.828,3.688 2.454,-1.273 0.562,-4.947 -1.828,-3.688 m 79.92,-0.045 c -2.528,1.117 -0.54,4.987 1.81,3.733 2.377,-1.267 0.581,-4.79 -1.81,-3.733 m 6.601,0.045 c -2.35,1.254 -0.501,4.913 1.826,3.688 2.444,-1.285 0.556,-4.96 -1.826,-3.688 m 6.616,0 c -2.36,1.278 -0.288,5.018 2.044,3.648 2.29,-1.344 0.31,-4.924 -2.044,-3.648 m 13.49,-0.075 c -2.478,0.973 -0.934,4.819 1.564,3.838 2.478,-0.973 0.933,-4.819 -1.564,-3.838 m 6.614,0 c -2.445,0.96 -0.88,4.782 1.571,3.838 2.525,-0.972 0.947,-4.827 -1.57,-3.838 m 6.63,-0.001 c -2.386,0.994 -0.819,4.736 1.555,3.839 2.653,-1.003 0.965,-4.89 -1.555,-3.84 m 6.615,0.032 c -2.537,1.122 -0.522,4.943 1.812,3.733 2.442,-1.267 0.632,-4.815 -1.812,-3.733 m 6.6,0.045 c -2.311,1.238 -0.473,4.88 1.827,3.688 2.465,-1.279 0.611,-4.995 -1.826,-3.688 m 6.876,-0.075 c -2.478,0.973 -0.933,4.819 1.564,3.838 2.478,-0.973 0.934,-4.819 -1.564,-3.838 m 6.615,0 c -2.478,0.973 -0.933,4.819 1.564,3.838 2.478,-0.973 0.933,-4.819 -1.564,-3.838 m 6.614,-0.001 c -2.467,0.988 -0.87,4.787 1.565,3.839 2.492,-0.97 0.986,-4.86 -1.565,-3.84 m 6.631,0 c -2.386,0.995 -0.818,4.74 1.555,3.84 2.603,-0.987 0.971,-4.892 -1.555,-3.84 m 6.613,0.032 c -2.526,1.118 -0.547,4.975 1.815,3.733 2.432,-1.28 0.633,-4.816 -1.815,-3.733 m 6.602,0.045 c -2.355,1.26 -0.477,4.882 1.828,3.688 2.463,-1.279 0.611,-4.993 -1.828,-3.688 m 6.617,0 c -2.342,1.269 -0.36,4.907 2.013,3.672 2.398,-1.247 0.363,-4.96 -2.013,-3.672 m 6.874,-0.075 c -2.477,0.973 -0.932,4.819 1.566,3.838 2.477,-0.973 0.931,-4.819 -1.566,-3.838 m 6.614,0 c -2.476,0.973 -0.931,4.819 1.567,3.838 2.497,-0.98 0.96,-4.83 -1.567,-3.838 m 6.615,-0.001 c -2.471,0.99 -0.873,4.771 1.572,3.839 2.518,-0.961 0.97,-4.856 -1.572,-3.84 m 6.63,0 c -2.386,0.996 -0.81,4.738 1.556,3.877 2.662,-0.969 0.987,-4.935 -1.556,-3.876 m 6.6,0.076 c -2.438,1.283 -0.474,4.882 1.83,3.688 2.453,-1.273 0.56,-4.947 -1.83,-3.688 m 6.619,0 c -2.373,1.286 -0.302,5 2.072,3.581 2.291,-1.368 0.235,-4.832 -2.072,-3.581 m 6.869,-0.075 c -2.506,0.964 -0.919,4.815 1.571,3.838 2.482,-0.975 0.934,-4.802 -1.571,-3.838 m 6.62,0 c -2.477,0.973 -0.932,4.819 1.566,3.838 2.476,-0.973 0.931,-4.819 -1.567,-3.838 m 13.232,0.03 c -2.381,1.025 -0.775,4.698 1.57,3.845 2.666,-0.97 0.983,-4.943 -1.57,-3.845 m -339.446,6.615 c -2.402,1.043 -0.914,4.756 1.555,3.845 2.667,-0.985 0.952,-4.934 -1.555,-3.845 m 20.093,-0.03 c -2.49,0.977 -0.987,4.86 1.564,3.839 2.461,-0.985 0.9,-4.808 -1.564,-3.84 m 6.614,0 c -2.478,0.973 -0.933,4.82 1.564,3.839 2.478,-0.973 0.934,-4.82 -1.564,-3.839 m 6.615,0 c -2.486,0.977 -0.925,4.801 1.57,3.876 2.513,-0.932 0.938,-4.86 -1.57,-3.876 m 6.63,0.031 c -2.401,1.043 -0.913,4.76 1.555,3.845 2.52,-0.935 0.957,-4.936 -1.555,-3.845 m 6.856,-0.028 c -2.589,0.938 -1.153,4.764 1.315,3.872 2.554,-0.923 1.143,-4.762 -1.315,-3.872 m 6.615,0 c -2.664,0.972 -0.965,4.887 1.555,3.837 2.392,-0.997 0.803,-4.696 -1.555,-3.837 m 6.622,-0.002 c -2.493,0.97 -0.987,4.86 1.564,3.839 2.44,-0.977 0.849,-4.779 -1.564,-3.84 m 19.86,0.031 c -2.414,1.048 -0.946,4.771 1.554,3.845 2.52,-0.935 0.957,-4.936 -1.554,-3.845 m 6.855,-0.028 c -2.59,0.938 -1.218,4.799 1.314,3.872 2.506,-0.916 1.152,-4.764 -1.314,-3.872 m 6.615,0 c -2.704,0.98 -0.953,4.905 1.534,3.837 2.385,-1.025 0.838,-4.695 -1.534,-3.837 m 6.615,-0.002 c -2.52,0.96 -0.971,4.856 1.571,3.839 2.445,-0.979 0.85,-4.763 -1.57,-3.84 m 59.815,0 c -2.47,0.996 -0.947,4.804 1.557,3.876 2.505,-0.93 0.936,-4.881 -1.557,-3.876 m 6.617,0.031 c -2.401,1.043 -0.913,4.76 1.555,3.845 2.52,-0.935 0.956,-4.936 -1.555,-3.845 m 13.471,-0.028 c -2.664,0.977 -0.957,4.916 1.555,3.806 2.375,-1.05 0.86,-4.69 -1.555,-3.806 m 13.236,-0.003 c -2.478,0.973 -0.933,4.82 1.564,3.839 2.478,-0.973 0.933,-4.82 -1.564,-3.839 m 6.615,0 c -2.486,0.977 -0.925,4.801 1.57,3.876 2.513,-0.932 0.938,-4.86 -1.57,-3.876 m 6.63,0 c -2.434,0.995 -0.958,4.807 1.555,3.876 2.522,-0.936 0.962,-4.905 -1.555,-3.876 m 6.863,-0.02 c -2.641,0.79 -1.275,4.849 1.307,3.896 2.5,-0.924 1.192,-4.645 -1.307,-3.896 m 6.607,0.023 c -2.581,0.935 -1.198,4.645 1.308,3.896 2.65,-0.791 1.19,-4.8 -1.308,-3.896 m 6.616,-0.002 c -2.66,1.01 -0.966,4.885 1.57,3.808 2.425,-1.029 0.84,-4.723 -1.57,-3.808 m 6.621,0 c -2.49,0.977 -0.986,4.86 1.564,3.839 2.472,-0.99 0.934,-4.82 -1.564,-3.84 m 6.615,0 c -2.478,0.973 -0.933,4.82 1.564,3.839 2.478,-0.973 0.933,-4.82 -1.564,-3.839 m 6.628,0.03 c -2.45,1.05 -0.935,4.77 1.557,3.846 2.504,-0.929 0.932,-4.911 -1.557,-3.845 m 6.6,0.045 c -2.447,1.27 -0.585,4.98 1.827,3.688 2.31,-1.239 0.474,-4.88 -1.826,-3.688 m 6.873,-0.073 c -2.585,0.935 -1.215,4.8 1.312,3.873 2.582,-0.948 1.167,-4.77 -1.312,-3.873 m 6.614,-0.002 c -2.653,1.002 -0.965,4.889 1.556,3.839 2.384,-0.995 0.818,-4.736 -1.556,-3.84 m 6.615,0 c -2.522,0.961 -0.971,4.857 1.572,3.84 2.481,-0.994 0.904,-4.784 -1.572,-3.84 m 6.62,0 c -2.49,0.978 -0.984,4.86 1.566,3.84 2.471,-0.99 0.931,-4.82 -1.566,-3.84 m 6.614,0 c -2.484,0.977 -0.923,4.8 1.572,3.876 2.514,-0.932 0.937,-4.86 -1.572,-3.876 m 6.63,0.031 c -2.412,1.048 -0.944,4.771 1.557,3.845 2.521,-0.935 0.957,-4.936 -1.556,-3.845 m 6.858,-0.028 c -2.583,0.935 -1.212,4.806 1.312,3.873 2.538,-0.938 1.175,-4.773 -1.312,-3.873 m 6.614,-0.002 c -2.693,1.017 -0.97,4.924 1.556,3.808 2.36,-1.044 0.807,-4.701 -1.556,-3.808 m 6.615,0 c -2.521,0.96 -0.971,4.856 1.572,3.839 2.47,-0.99 0.873,-4.772 -1.572,-3.84 m 19.862,0 c -2.468,0.996 -0.947,4.804 1.559,3.876 2.524,-0.936 0.965,-4.893 -1.559,-3.876 m 6.617,0.031 c -2.383,1.036 -0.923,4.759 1.556,3.845 2.667,-0.984 0.953,-4.934 -1.556,-3.845 m -312.752,6.617 c -2.47,0.99 -0.93,4.806 1.564,3.843 2.492,-0.962 0.905,-4.83 -1.564,-3.843 m 6.88,-0.054 c -2.666,0.799 -1.36,4.905 1.306,3.897 2.348,-0.888 1.14,-4.63 -1.307,-3.897 m 6.607,0.024 c -2.621,0.95 -1.303,4.842 1.314,3.872 2.366,-0.877 1.141,-4.76 -1.314,-3.872 m 6.615,0 c -2.745,0.994 -1.069,4.943 1.555,3.836 2.313,-0.976 0.791,-4.686 -1.555,-3.836 m 6.615,0 c -2.67,0.974 -1.075,4.9 1.571,3.836 2.45,-0.984 0.768,-4.689 -1.57,-3.836 m 6.62,0 c -2.506,0.937 -0.977,4.854 1.565,3.873 2.457,-0.949 0.78,-4.75 -1.564,-3.873 m 6.614,0 c -2.505,0.941 -0.977,4.854 1.564,3.873 2.494,-0.963 0.907,-4.802 -1.564,-3.873 m 13.486,0 c -2.615,0.947 -1.325,4.871 1.314,3.873 2.36,-0.892 1.142,-4.762 -1.314,-3.873 m 6.615,0 c -2.584,0.935 -1.287,4.687 1.307,3.896 2.565,-0.782 1.177,-4.795 -1.307,-3.896 m 6.616,0 c -2.695,0.983 -1.05,4.927 1.554,3.836 2.39,-1 0.803,-4.696 -1.554,-3.836 m 66.67,0 c -2.653,0.949 -1.312,4.867 1.317,3.873 2.346,-0.887 1.111,-4.74 -1.316,-3.873 m 6.617,0 c -2.621,0.95 -1.303,4.842 1.314,3.872 2.366,-0.877 1.141,-4.76 -1.314,-3.872 m 6.615,0 c -2.745,0.994 -1.072,4.936 1.555,3.836 2.358,-0.986 0.785,-4.683 -1.555,-3.836 m 6.615,0 c -2.702,0.985 -1.052,4.904 1.568,3.836 2.41,-0.982 0.78,-4.692 -1.568,-3.836 m 6.622,0 c -2.503,0.936 -0.988,4.858 1.564,3.836 2.446,-0.979 0.764,-4.707 -1.564,-3.836 m 6.614,0.03 c -2.492,0.993 -0.96,4.817 1.564,3.843 2.481,-0.958 0.803,-4.786 -1.564,-3.843 m 6.878,-0.053 c -2.713,0.787 -1.348,4.9 1.308,3.896 2.355,-0.89 1.116,-4.598 -1.308,-3.896 m 6.608,0.023 c -2.615,0.947 -1.325,4.871 1.314,3.873 2.344,-0.887 1.108,-4.75 -1.314,-3.873 m 6.615,0 c -2.735,0.99 -1.067,4.967 1.534,3.836 2.306,-1.003 0.825,-4.69 -1.534,-3.836 m 6.615,0 c -2.7,0.985 -1.082,4.94 1.555,3.836 2.39,-1 0.803,-4.696 -1.555,-3.836 m 6.615,0 c -2.53,0.927 -0.973,4.854 1.57,3.836 2.451,-0.98 0.767,-4.693 -1.57,-3.836 m 6.621,0 c -2.505,0.942 -0.977,4.854 1.564,3.873 2.484,-0.959 0.875,-4.79 -1.564,-3.873 m 6.615,0.028 c -2.46,1.026 -0.935,4.792 1.57,3.845 2.506,-0.947 0.935,-4.89 -1.57,-3.845 m 6.879,-0.052 c -2.666,0.799 -1.36,4.905 1.306,3.897 2.349,-0.888 1.14,-4.63 -1.306,-3.897 m 6.607,0.024 c -2.622,0.95 -1.305,4.838 1.314,3.872 2.502,-0.923 1.153,-4.765 -1.314,-3.872 m 6.616,0 c -2.688,0.98 -1.082,4.964 1.532,3.836 2.35,-1.013 0.82,-4.693 -1.532,-3.836 m 6.614,0 c -2.67,0.973 -1.074,4.912 1.57,3.836 2.407,-0.981 0.777,-4.692 -1.57,-3.836 m 6.615,0 c -2.535,0.929 -0.963,4.85 1.572,3.873 2.46,-0.95 0.78,-4.736 -1.572,-3.873 m 6.62,-0.003 c -2.495,0.971 -0.977,4.857 1.566,3.876 2.485,-0.96 0.92,-4.843 -1.566,-3.876 m 6.614,0.03 c -2.46,1.027 -0.934,4.793 1.572,3.846 2.506,-0.947 0.934,-4.89 -1.572,-3.845 m 6.88,-0.052 c -2.665,0.798 -1.358,4.905 1.307,3.897 2.365,-0.894 1.174,-4.64 -1.307,-3.897 m 6.609,0.024 c -2.778,1.006 -1.12,4.98 1.532,3.836 2.35,-1.013 0.82,-4.688 -1.532,-3.836 m 6.614,0 c -2.706,0.987 -1.084,4.917 1.57,3.836 2.407,-0.981 0.777,-4.692 -1.57,-3.836 m 6.615,0 c -2.53,0.927 -0.974,4.854 1.572,3.836 2.45,-0.98 0.764,-4.693 -1.572,-3.836 m 20.103,0 c -2.654,0.949 -1.312,4.867 1.318,3.873 2.347,-0.887 1.11,-4.74 -1.318,-3.873 m -299.504,6.622 c -2.471,0.827 -1.469,4.786 1.053,4.029 2.574,-0.774 1.519,-4.89 -1.053,-4.029 m 6.614,0 c -2.645,0.886 -1.299,4.923 1.308,3.976 2.374,-0.864 1.14,-4.796 -1.308,-3.976 m 6.615,0 c -2.608,0.873 -1.241,4.898 1.307,3.976 2.559,-0.926 1.192,-4.813 -1.307,-3.976 m 6.879,-0.031 c -2.638,0.542 -1.821,4.637 0.789,4.142 2.747,-0.522 1.89,-4.694 -0.789,-4.142 m 6.615,0.007 c -2.61,0.677 -1.597,4.872 1.05,4.053 2.506,-0.776 1.45,-4.7 -1.05,-4.053 m 6.614,0 c -2.622,0.68 -1.486,4.825 1.05,4.053 2.528,-0.77 1.484,-4.71 -1.05,-4.053 m 6.612,0.024 c -2.514,0.823 -1.455,4.783 1.056,4.029 2.582,-0.776 1.494,-4.864 -1.056,-4.029 m 6.617,0 c -2.644,0.886 -1.299,4.923 1.308,3.976 2.375,-0.864 1.14,-4.796 -1.308,-3.976 m 6.615,-0.001 c -2.647,0.906 -1.265,4.98 1.307,4.013 2.534,-0.952 1.233,-4.882 -1.307,-4.013 m 6.616,0 c -2.572,0.886 -1.205,4.892 1.312,4.043 2.593,-0.874 1.221,-4.916 -1.312,-4.043 m 73.288,0 c -2.647,0.906 -1.263,4.984 1.307,4.013 2.353,-0.889 1.18,-4.864 -1.307,-4.013 m 6.615,0 c -2.574,0.887 -1.256,4.96 1.314,4.013 2.561,-0.943 1.213,-4.884 -1.314,-4.013 m 6.876,-0.044 c -2.65,0.605 -1.82,4.652 0.792,4.156 2.754,-0.524 1.876,-4.765 -0.792,-4.156 m 6.617,0.021 c -2.439,0.632 -1.774,4.621 0.79,4.135 2.76,-0.525 1.858,-4.82 -0.79,-4.135 m 6.622,0 c -2.598,0.687 -1.508,4.82 1.046,4.052 2.562,-0.769 1.472,-4.717 -1.046,-4.052 m 6.605,0.024 c -2.514,0.823 -1.455,4.783 1.056,4.028 2.582,-0.775 1.494,-4.863 -1.056,-4.028 m 6.617,0 c -2.648,0.887 -1.28,4.97 1.307,3.954 2.348,-0.92 1.137,-4.772 -1.307,-3.954 m 6.615,-0.001 c -2.647,0.906 -1.265,4.98 1.307,4.013 2.534,-0.952 1.233,-4.882 -1.307,-4.013 m 6.615,-0.006 c -2.544,0.927 -1.233,4.928 1.314,4.05 2.613,-0.901 1.24,-4.982 -1.314,-4.05 m 6.879,-0.017 c -2.518,0.653 -1.803,4.627 0.788,4.135 2.76,-0.525 1.859,-4.82 -0.788,-4.135 m 6.614,0 c -2.622,0.68 -1.486,4.825 1.05,4.053 2.528,-0.77 1.484,-4.71 -1.05,-4.053 m 6.621,0 c -2.586,0.684 -1.469,4.809 1.047,4.053 2.561,-0.77 1.472,-4.718 -1.047,-4.053 m 6.608,0.024 c -2.47,0.827 -1.468,4.786 1.053,4.029 2.575,-0.774 1.52,-4.89 -1.053,-4.029 m 6.615,-0.001 c -2.638,0.903 -1.3,4.923 1.307,3.977 2.46,-0.893 1.17,-4.824 -1.307,-3.977 m 6.875,-0.044 c -2.648,0.605 -1.86,4.756 0.788,4.137 2.625,-0.612 1.86,-4.741 -0.788,-4.137 m 6.615,0 c -2.649,0.605 -1.818,4.652 0.793,4.156 2.755,-0.524 1.876,-4.765 -0.793,-4.156 m 6.62,0.021 c -2.612,0.677 -1.599,4.872 1.047,4.053 2.508,-0.776 1.45,-4.7 -1.048,-4.053 m 6.615,0 c -2.625,0.68 -1.49,4.816 1.053,4.052 2.564,-0.77 1.471,-4.706 -1.053,-4.052 m 6.61,0.024 c -2.509,0.83 -1.456,4.783 1.058,4.028 2.574,-0.773 1.521,-4.88 -1.059,-4.028 m 6.62,0 c -2.656,0.889 -1.262,4.983 1.307,4.012 2.358,-0.89 1.157,-4.837 -1.307,-4.012 m 6.615,-0.001 c -2.649,0.905 -1.265,4.98 1.307,4.013 2.532,-0.952 1.233,-4.882 -1.307,-4.013 m 6.874,-0.023 c -2.622,0.67 -1.82,4.631 0.793,4.135 2.76,-0.525 1.86,-4.813 -0.793,-4.135 m 6.62,0 c -2.612,0.677 -1.599,4.872 1.047,4.053 2.509,-0.776 1.45,-4.7 -1.047,-4.053 m -272.79,6.631 c -2.598,0.423 -2.042,4.421 0.527,4.178 2.684,-0.255 2.205,-4.623 -0.527,-4.178 m 6.615,-0.021 c -2.685,0.512 -1.85,4.758 0.79,4.155 2.65,-0.605 1.82,-4.653 -0.79,-4.155 m 6.617,0.021 c -2.584,0.57 -1.813,4.727 0.789,4.134 2.719,-0.62 1.879,-4.722 -0.789,-4.134 m 6.621,-0.003 c -2.445,0.583 -1.768,4.608 0.782,4.158 2.744,-0.484 1.896,-4.796 -0.782,-4.158 m 6.869,0.004 c -2.653,0.397 -2.142,4.668 0.53,4.157 2.587,-0.496 2.072,-4.546 -0.53,-4.157 m 6.615,0 c -2.609,0.393 -2.073,4.519 0.527,4.157 2.679,-0.373 2.098,-4.552 -0.527,-4.157 m 6.615,-0.022 c -2.754,0.523 -1.875,4.772 0.789,4.155 2.46,-0.57 1.775,-4.642 -0.789,-4.155 m 6.615,0.021 c -2.694,0.587 -1.868,4.742 0.791,4.171 2.626,-0.564 1.794,-4.734 -0.791,-4.17 m 6.617,0 c -2.635,0.58 -1.858,4.659 0.789,4.157 2.693,-0.51 1.89,-4.748 -0.789,-4.158 m 60.057,0.001 c -2.66,0.398 -2.051,4.574 0.528,4.153 2.619,-0.427 2.107,-4.547 -0.528,-4.153 m 6.615,0 c -2.603,0.392 -2.035,4.47 0.527,4.163 2.696,-0.323 2.097,-4.558 -0.527,-4.163 m 6.615,-0.021 c -2.759,0.504 -1.875,4.771 0.788,4.154 2.466,-0.57 1.754,-4.62 -0.788,-4.154 m 6.615,0.02 c -2.673,0.582 -1.834,4.735 0.79,4.171 2.656,-0.57 1.822,-4.74 -0.79,-4.17 m 6.617,0 c -2.636,0.58 -1.805,4.726 0.789,4.17 2.723,-0.583 1.891,-4.761 -0.79,-4.17 m 6.615,0.01 c -2.621,0.679 -1.56,4.973 1.05,4.08 2.462,-0.843 1.484,-4.737 -1.05,-4.08 m 6.876,-0.01 c -2.646,0.396 -2.147,4.623 0.529,4.154 2.602,-0.456 2.066,-4.543 -0.53,-4.154 m 6.616,0 c -2.609,0.393 -2.074,4.519 0.527,4.157 2.678,-0.373 2.098,-4.552 -0.527,-4.157 m 6.615,0 c -2.598,0.422 -2.042,4.42 0.527,4.177 2.684,-0.255 2.205,-4.623 -0.527,-4.178 m 6.614,0 c -2.737,0.594 -1.87,4.742 0.792,4.134 2.604,-0.595 1.808,-4.698 -0.792,-4.134 m 6.618,0 c -2.639,0.581 -1.848,4.735 0.789,4.17 2.703,-0.578 1.857,-4.753 -0.79,-4.17 m 13.227,0.02 c -2.567,0.772 -1.54,4.928 1.056,4.07 2.515,-0.832 1.435,-4.818 -1.056,-4.07 m 6.88,-0.019 c -2.614,0.394 -2.061,4.575 0.527,4.153 2.618,-0.427 2.107,-4.55 -0.528,-4.153 m 6.615,-0.021 c -2.58,0.458 -2.05,4.493 0.527,4.184 2.711,-0.325 2.07,-4.646 -0.527,-4.184 m 6.615,0.02 c -2.78,0.452 -1.86,4.741 0.79,4.17 2.58,-0.553 1.817,-4.595 -0.79,-4.17 m 6.618,0 c -2.64,0.581 -1.85,4.737 0.789,4.17 2.654,-0.57 1.86,-4.754 -0.789,-4.17 m 6.615,0 c -2.593,0.572 -1.85,4.735 0.788,4.17 2.723,-0.582 1.89,-4.761 -0.788,-4.17 m 6.61,0.02 c -2.56,0.77 -1.56,4.964 1.052,4.07 2.466,-0.843 1.453,-4.822 -1.053,-4.07 m 6.88,-0.019 c -2.652,0.397 -2.125,4.6 0.529,4.153 2.608,-0.438 2.063,-4.541 -0.53,-4.153 m 6.615,0 c -2.609,0.393 -2.082,4.4 0.519,4.178 2.698,-0.232 2.127,-4.576 -0.52,-4.178 m 6.616,-0.021 c -2.575,0.47 -2.051,4.493 0.529,4.184 2.698,-0.323 2.148,-4.674 -0.53,-4.184 m 6.615,-0.001 c -2.76,0.524 -1.865,4.763 0.794,4.192 2.654,-0.57 1.828,-4.69 -0.794,-4.192 m 6.615,0.018 c -2.657,0.612 -1.85,4.66 0.793,4.16 2.739,-0.517 1.898,-4.78 -0.793,-4.16 m 6.879,-0.028 c -2.702,0.36 -2.154,4.696 0.529,4.189 2.553,-0.484 2.077,-4.536 -0.53,-4.189 m 13.23,0.032 c -2.654,0.397 -2.072,4.474 0.53,4.163 2.695,-0.322 2.095,-4.556 -0.53,-4.163 m -286.015,6.644 c -2.814,0.141997 -2.439,4.369997 0.265,4.177997 2.56,-0.182 2.325,-4.307997 -0.265,-4.177997 m 5.85,0.229997 c -2.391,1 -0.804,4.696 1.554,3.836 2.7,-0.984 1.082,-4.939997 -1.555,-3.836 m 6.601,0.076 c -2.355,1.26 -0.5,4.854 1.826,3.648 2.449,-1.27 0.569,-4.929997 -1.826,-3.648 m 6.616,0 c -2.198,1.191 -0.485,4.846 1.825,3.648 2.5,-1.297 0.6,-4.961997 -1.825,-3.648 m 6.615,0 c -2.33,1.262 -0.26,4.975 2.072,3.582 2.29,-1.37 0.235,-4.832997 -2.072,-3.582 m 6.875,-0.076 c -2.468,0.988 -0.871,4.788 1.564,3.84 2.492,-0.971 0.987,-4.859997 -1.564,-3.84 m 6.614,0 c -2.45,0.98 -0.766,4.693 1.571,3.836 2.53,-0.927 0.973,-4.853997 -1.57,-3.836 m 73.042,0.076 c -2.323,1.302 -0.303,4.964 2.059,3.649 2.32,-1.292 0.29,-4.966997 -2.06,-3.65 m 6.863,-0.075 c -2.459,0.984 -0.867,4.796 1.564,3.84 2.49,-0.98 0.986,-4.859997 -1.564,-3.84 m 19.86,0 c -2.358,0.987 -0.786,4.684 1.555,3.836 2.758,-0.998 1.102,-4.947997 -1.556,-3.836 m 13.217,0.076 c -2.321,1.258 -0.28,5.006 2.02,3.649 2.322,-1.37 0.339,-4.926997 -2.02,-3.65 m 6.628,0 c -2.31,1.295 -0.246,4.93 2.06,3.65 2.347,-1.305 0.309,-4.976997 -2.06,-3.65 m 13.493,-0.075 c -2.392,0.997 -0.803,4.696 1.555,3.836 2.665,-0.971 0.965,-4.885997 -1.555,-3.836 m 6.615,0 c -2.358,0.987 -0.785,4.684 1.555,3.836 2.745,-0.993 1.072,-4.935997 -1.555,-3.836 m 6.6,0.076 c -2.311,1.239 -0.496,4.852 1.827,3.648 2.5,-1.296 0.606,-4.950997 -1.826,-3.648 m 6.616,0 c -2.332,1.271 -0.323,4.938 2.05,3.575 2.317,-1.33 0.291,-4.852997 -2.05,-3.575 m 6.627,0 c -2.294,1.286 -0.302,5.01 2.008,3.649 2.334,-1.377 0.38,-4.987997 -2.008,-3.65 m 6.615,0 c -2.274,1.275 -0.144,4.854 2.059,3.649 2.356,-1.289 0.31,-4.975997 -2.059,-3.648 m 6.878,-0.076 c -2.392,0.997 -0.801,4.7 1.555,3.836 2.521,-0.923 0.968,-4.886997 -1.555,-3.836 m 6.613,0 c -2.389,1.001 -0.801,4.69 1.556,3.836 2.746,-0.993 1.074,-4.934997 -1.556,-3.836 m 6.618,0.03 c -2.445,1.095 -0.55,4.918 1.812,3.694 2.455,-1.273 0.667,-4.801997 -1.812,-3.693 m 6.6,0.045 c -2.362,1.28 -0.303,5 2.051,3.612 2.305,-1.36 0.278,-4.874997 -2.05,-3.612 m 6.614,0 c -2.333,1.272 -0.285,4.99 2.051,3.612 2.302,-1.357 0.31,-4.899997 -2.05,-3.612 m 6.627,0 c -2.328,1.305 -0.238,4.925 2.059,3.649 2.35,-1.304 0.31,-4.976997 -2.059,-3.65 m 6.86,-0.075 c -2.45,0.98 -0.764,4.693 1.573,3.836 2.529,-0.927 0.973,-4.853997 -1.572,-3.836 m 6.63,0 c -2.389,1 -0.801,4.696 1.556,3.836 2.699,-0.984 1.082,-4.939997 -1.556,-3.836 m 6.615,0 c -2.355,0.987 -0.783,4.684 1.556,3.836 2.76,-0.998 1.103,-4.947997 -1.556,-3.836 m 19.846,0.076 c -2.328,1.304 -0.27,4.943 2.059,3.649 2.347,-1.304 0.31,-4.976997 -2.059,-3.65 m -286.029,6.54 c -2.403,0.957 -0.858,4.774 1.568,3.84 2.523,-0.973 0.944,-4.839 -1.568,-3.84 m 6.612,0.075 c -2.431,1.28 -0.516,4.898 1.826,3.65 2.39,-1.275 0.493,-4.87 -1.826,-3.65 m 6.617,0 c -2.355,1.261 -0.477,4.883 1.826,3.688 2.469,-1.28 0.607,-4.99 -1.826,-3.688 m 6.616,0 c -2.375,1.284 -0.3,4.971 2.072,3.65 2.338,-1.303 0.233,-4.896 -2.072,-3.65 m 6.875,-0.074 c -2.478,0.972 -0.933,4.819 1.564,3.838 2.478,-0.973 0.934,-4.819 -1.564,-3.838 m 6.615,0 c -2.478,0.972 -0.933,4.819 1.564,3.838 2.478,-0.973 0.933,-4.819 -1.564,-3.838 m 6.614,0 c -2.479,0.973 -0.872,4.77 1.571,3.838 2.528,-0.965 0.947,-4.827 -1.57,-3.838 m 113.241,0 c -2.478,0.972 -0.933,4.819 1.564,3.838 2.478,-0.973 0.933,-4.819 -1.564,-3.838 m 13.23,0 c -2.473,0.97 -0.903,4.79 1.57,3.838 2.525,-0.972 0.947,-4.827 -1.57,-3.838 m 6.63,-0.001 c -2.387,0.995 -0.81,4.737 1.555,3.876 2.66,-0.969 0.985,-4.935 -1.555,-3.876 m 13.216,0.075 c -2.456,1.316 -0.287,4.992 2.052,3.613 2.307,-1.36 0.283,-4.864 -2.052,-3.613 m 6.876,-0.074 c -2.478,0.972 -0.933,4.819 1.564,3.838 2.478,-0.973 0.934,-4.819 -1.564,-3.838 m 6.615,0 c -2.478,0.972 -0.933,4.819 1.564,3.838 2.478,-0.973 0.933,-4.819 -1.564,-3.838 m 6.614,0 c -2.472,0.97 -0.902,4.79 1.571,3.838 2.525,-0.972 0.947,-4.827 -1.57,-3.838 m 6.63,-0.001 c -2.385,0.994 -0.915,4.785 1.555,3.84 2.648,-1.015 0.965,-4.89 -1.555,-3.84 m 6.597,0.075 c -2.431,1.28 -0.497,4.914 1.831,3.69 2.432,-1.28 0.498,-4.914 -1.83,-3.69 m 6.617,0 c -2.35,1.255 -0.5,4.914 1.828,3.69 2.46,-1.295 0.58,-4.975 -1.828,-3.69 m 6.617,0 c -2.373,1.287 -0.302,4.971 2.072,3.65 2.333,-1.3 0.264,-4.917 -2.072,-3.65 m 6.874,-0.074 c -2.477,0.972 -0.932,4.819 1.566,3.838 2.477,-0.973 0.931,-4.819 -1.566,-3.838 m 6.614,0 c -2.476,0.972 -0.931,4.819 1.567,3.838 2.497,-0.98 0.96,-4.83 -1.567,-3.838 m 6.615,0.03 c -2.455,1.043 -0.92,4.767 1.572,3.808 2.516,-0.967 0.968,-4.886 -1.572,-3.809 m 13.23,0.045 c -2.4,1.264 -0.464,4.878 1.83,3.688 2.442,-1.266 0.497,-4.912 -1.83,-3.688 m 13.488,-0.074 c -2.527,0.971 -0.948,4.826 1.571,3.838 2.482,-0.975 0.934,-4.802 -1.571,-3.838 m -272.787,6.617 c -2.584,0.936 -1.249,4.812 1.315,3.873 2.549,-0.934 1.145,-4.763 -1.315,-3.873 m 6.615,0 c -2.664,0.972 -0.965,4.887 1.555,3.837 2.392,-0.997 0.803,-4.697 -1.555,-3.837 m 6.622,-0.003 c -2.493,0.97 -0.987,4.86 1.564,3.84 2.468,-0.988 0.87,-4.788 -1.564,-3.84 m 19.86,0.03 c -2.414,1.05 -0.946,4.772 1.554,3.846 2.52,-0.935 0.957,-4.936 -1.554,-3.845 m 79.888,-0.03 c -2.486,0.975 -0.925,4.8 1.57,3.875 2.513,-0.932 0.938,-4.86 -1.57,-3.876 m 6.63,0.03 c -2.373,1.032 -0.89,4.753 1.555,3.846 2.52,-0.936 0.956,-4.936 -1.555,-3.845 m 6.856,-0.028 c -2.585,0.936 -1.25,4.812 1.315,3.873 2.549,-0.934 1.144,-4.763 -1.315,-3.873 m 13.237,-0.003 c -2.493,0.97 -0.987,4.86 1.564,3.84 2.44,-0.977 0.849,-4.78 -1.564,-3.84 m 13.229,0.03 c -2.461,1.027 -0.935,4.794 1.57,3.846 2.506,-0.947 0.934,-4.89 -1.57,-3.845 m 6.63,-0.03 c -2.433,0.994 -0.958,4.806 1.555,3.875 2.522,-0.936 0.962,-4.905 -1.555,-3.876 m 6.856,0.003 c -2.584,0.936 -1.247,4.818 1.314,3.873 2.502,-0.924 1.152,-4.766 -1.314,-3.873 m 6.615,0 c -2.542,0.927 -1.16,4.766 1.314,3.872 2.588,-0.935 1.162,-4.775 -1.314,-3.872 m 13.236,-0.003 c -2.49,0.978 -0.986,4.86 1.564,3.84 2.472,-0.99 0.934,-4.82 -1.564,-3.84 m 6.615,0 c -2.478,0.973 -0.933,4.82 1.564,3.839 2.478,-0.973 0.933,-4.82 -1.564,-3.839 m 6.614,0.03 c -2.466,1.03 -0.911,4.766 1.571,3.846 2.51,-0.931 0.935,-4.89 -1.57,-3.845 m 6.614,0.045 c -2.448,1.27 -0.587,4.98 1.826,3.688 2.356,-1.26 0.477,-4.882 -1.826,-3.688 m 6.873,-0.073 c -2.593,0.938 -1.223,4.793 1.312,3.872 2.588,-0.939 1.167,-4.77 -1.312,-3.872 m 6.614,-0.003 c -2.661,1.005 -0.968,4.869 1.57,3.84 2.402,-0.976 0.793,-4.733 -1.57,-3.84 m 6.615,0 c -2.522,0.961 -0.971,4.857 1.572,3.84 2.481,-0.994 0.904,-4.784 -1.572,-3.84 m 6.62,0 c -2.49,0.978 -0.984,4.86 1.566,3.84 2.471,-0.99 0.931,-4.82 -1.566,-3.84 m 6.614,0 c -2.484,0.977 -0.923,4.801 1.572,3.876 2.514,-0.932 0.937,-4.86 -1.572,-3.876 m 6.628,0.03 c -2.447,1.05 -0.934,4.77 1.559,3.846 2.521,-0.935 0.96,-4.924 -1.559,-3.845 m 6.602,0.045 c -2.448,1.27 -0.585,4.98 1.828,3.688 2.355,-1.26 0.476,-4.882 -1.828,-3.688 m -246.069,6.542 c -2.707,0.987 -1.084,4.917 1.568,3.836 2.41,-0.981 0.78,-4.692 -1.568,-3.836 m 6.622,0 c -2.507,0.937 -0.978,4.854 1.564,3.873 2.457,-0.949 0.78,-4.75 -1.564,-3.873 m 26.715,0 c -2.745,0.994 -1.069,4.943 1.555,3.836 2.313,-0.976 0.792,-4.686 -1.555,-3.836 m 66.682,-0.016 c -2.575,0.695 -1.587,4.593 1.043,3.963 2.58,-0.618 1.507,-4.652 -1.043,-3.963 m 6.605,0.017 c -2.661,0.932 -1.312,4.866 1.316,3.872 2.353,-0.89 1.086,-4.714 -1.316,-3.872 m 6.617,-10e-4 c -2.621,0.949 -1.303,4.842 1.314,3.872 2.366,-0.877 1.141,-4.76 -1.314,-3.872 m 6.615,0 c -2.745,0.994 -1.072,4.936 1.555,3.836 2.358,-0.986 0.785,-4.684 -1.555,-3.836 m 6.615,0 c -2.702,0.985 -1.052,4.904 1.568,3.836 2.41,-0.982 0.78,-4.692 -1.568,-3.836 m 6.622,0 c -2.507,0.937 -0.978,4.854 1.564,3.873 2.457,-0.949 0.78,-4.75 -1.564,-3.873 m 6.614,0 c -2.505,0.942 -0.977,4.854 1.564,3.873 2.484,-0.959 0.875,-4.79 -1.564,-3.873 m 6.878,-0.017 c -2.56,0.709 -1.55,4.579 1.047,3.964 2.612,-0.617 1.557,-4.686 -1.047,-3.964 m 6.608,0.017 c -2.621,0.95 -1.303,4.842 1.314,3.872 2.351,-0.872 1.107,-4.749 -1.314,-3.872 m 6.615,0 c -2.594,0.939 -1.281,4.83 1.314,3.872 2.502,-0.923 1.152,-4.765 -1.314,-3.872 m 6.615,0 c -2.7,0.984 -1.082,4.94 1.555,3.836 2.39,-1 0.803,-4.696 -1.555,-3.836 m 6.622,0 c -2.507,0.937 -0.978,4.854 1.564,3.873 2.457,-0.949 0.78,-4.75 -1.564,-3.873 m 6.614,0 c -2.505,0.942 -0.977,4.854 1.564,3.873 2.484,-0.959 0.875,-4.79 -1.564,-3.873 m 13.494,-0.024 c -2.666,0.799 -1.36,4.905 1.306,3.897 2.349,-0.888 1.14,-4.63 -1.306,-3.897 m 6.607,0.024 c -2.594,0.939 -1.28,4.834 1.314,3.872 2.352,-0.872 1.107,-4.749 -1.314,-3.872 m 6.616,0 c -2.747,0.994 -1.074,4.936 1.555,3.836 2.39,-1 0.802,-4.69 -1.555,-3.836 m 19.849,0.03 c -2.49,0.997 -0.958,4.817 1.566,3.843 2.482,-0.958 0.87,-4.818 -1.566,-3.843 m 6.879,-0.054 c -2.71,0.806 -1.347,4.9 1.307,3.897 2.35,-0.89 1.14,-4.624 -1.307,-3.897 m 6.61,0.024 c -2.617,0.947 -1.326,4.87 1.312,3.873 2.344,-0.887 1.108,-4.75 -1.313,-3.873 m 6.615,0 c -2.76,0.998 -1.103,4.948 1.556,3.836 2.354,-0.986 0.783,-4.684 -1.556,-3.836 m -239.45,6.598 c -2.439,0.633 -1.773,4.621 0.79,4.135 2.76,-0.525 1.858,-4.82 -0.79,-4.135 m 6.613,0.024 c -2.538,0.826 -1.47,4.864 1.055,4.042 2.55,-0.83 1.43,-4.851 -1.055,-4.042 m 6.617,0 c -2.482,0.818 -1.445,4.82 1.053,4.069 2.574,-0.774 1.43,-4.888 -1.053,-4.069 m 73.29,-0.024 c -2.612,0.677 -1.557,4.86 1.05,4.053 2.506,-0.777 1.45,-4.7 -1.05,-4.053 m 6.611,0.024 c -2.531,0.824 -1.49,4.793 1.056,4.029 2.58,-0.775 1.417,-4.834 -1.056,-4.029 m 6.618,0 c -2.475,0.82 -1.467,4.786 1.053,4.029 2.582,-0.776 1.49,-4.872 -1.053,-4.029 m 6.614,-0.001 c -2.643,0.905 -1.257,5.003 1.294,4.013 2.337,-0.906 1.205,-4.868 -1.294,-4.013 m 6.877,-0.03 c -2.672,0.542 -1.864,4.684 0.79,4.145 2.673,-0.543 1.865,-4.685 -0.79,-4.145 m 6.617,-0.014 c -2.616,0.605 -1.831,4.654 0.789,4.156 2.753,-0.523 1.875,-4.772 -0.79,-4.156 m 6.615,0.022 c -2.44,0.632 -1.734,4.615 0.79,4.134 2.759,-0.526 1.858,-4.82 -0.79,-4.134 m 6.612,0.023 c -2.526,0.823 -1.552,4.836 1.053,4.029 2.534,-0.785 1.434,-4.838 -1.053,-4.029 m 6.615,0 c -2.514,0.823 -1.455,4.783 1.056,4.029 2.582,-0.776 1.494,-4.864 -1.056,-4.029 m 13.232,0 c -2.647,0.905 -1.265,4.98 1.307,4.013 2.534,-0.953 1.233,-4.883 -1.307,-4.014 m 6.876,-0.03 c -2.67,0.542 -1.822,4.676 0.791,4.145 2.692,-0.548 1.899,-4.692 -0.79,-4.145 m 6.617,0.008 c -2.518,0.652 -1.803,4.626 0.788,4.134 2.76,-0.524 1.859,-4.82 -0.788,-4.134 m 26.458,0.023 c -2.654,0.89 -1.263,4.982 1.307,4.013 2.483,-0.936 1.18,-4.846 -1.307,-4.013 m 26.719,0 c -2.538,0.827 -1.469,4.865 1.058,4.042 2.548,-0.83 1.429,-4.851 -1.058,-4.042 m 6.614,0 c -2.532,0.83 -1.468,4.828 1.059,4.07 2.574,-0.774 1.51,-4.91 -1.059,-4.07 m -212.724,6.609 c -2.61,0.393 -2.079,4.475 0.527,4.163 2.696,-0.323 2.097,-4.559 -0.527,-4.163 m 73.29,0 c -2.655,0.397 -2.144,4.738 0.528,4.17 2.563,-0.546 2.088,-4.562 -0.529,-4.17 m 6.615,0 c -2.646,0.395 -2.124,4.519 0.525,4.164 2.656,-0.356 2.112,-4.559 -0.525,-4.164 m 6.615,0 c -2.608,0.392 -2.03,4.44 0.527,4.194 2.694,-0.26 2.112,-4.592 -0.527,-4.194 m 6.615,0 c -2.603,0.404 -2.039,4.42 0.527,4.176 2.691,-0.255 2.182,-4.598 -0.527,-4.177 m 6.615,0.02 c -2.718,0.518 -1.857,4.72 0.79,4.15 2.651,-0.569 1.886,-4.659 -0.79,-4.15 m 6.617,-0.02 c -2.636,0.58 -1.805,4.726 0.789,4.17 2.703,-0.579 1.857,-4.753 -0.79,-4.17 m 6.876,0 c -2.643,0.396 -2.158,4.666 0.528,4.157 2.548,-0.482 2.079,-4.547 -0.528,-4.156 m 6.615,0 c -2.646,0.395 -2.147,4.622 0.529,4.153 2.609,-0.457 2.11,-4.548 -0.53,-4.153 m 6.616,0 c -2.604,0.392 -2.131,4.516 0.528,4.164 2.689,-0.356 2.097,-4.56 -0.528,-4.164 m 6.615,0 c -2.78,0.432 -1.86,4.746 0.789,4.17 2.469,-0.539 1.776,-4.57 -0.79,-4.17 m 13.233,-0.002 c -2.639,0.582 -1.847,4.738 0.788,4.171 2.656,-0.57 1.863,-4.755 -0.788,-4.17 m 60.056,0 c -2.645,0.396 -2.145,4.623 0.53,4.154 2.608,-0.457 2.108,-4.548 -0.53,-4.154 m 6.615,0 c -2.654,0.397 -2.072,4.475 0.53,4.164 2.695,-0.323 2.095,-4.556 -0.53,-4.164 m -206.893,6.875 c -2.446,0.979 -0.764,4.707 1.565,3.836 2.502,-0.936 0.988,-4.858 -1.565,-3.836 m 6.631,0 c -2.391,0.997 -0.802,4.696 1.555,3.836 2.668,-0.973 1.039,-4.919 -1.555,-3.836 m 6.615,0 c -2.357,0.986 -0.785,4.683 1.555,3.836 2.745,-0.994 1.072,-4.936 -1.555,-3.836 m 6.601,0.075 c -2.29,1.227 -0.45,4.869 1.826,3.688 2.499,-1.295 0.625,-5.001 -1.826,-3.688 m 6.616,0 c -2.345,1.279 -0.283,4.99 2.072,3.582 2.286,-1.366 0.265,-4.857 -2.072,-3.582 m 39.952,0 c -2.202,1.193 -0.469,4.857 1.831,3.688 2.534,-1.287 0.602,-5.006 -1.831,-3.688 m 6.628,0 c -2.329,1.305 -0.269,4.97 2.059,3.582 2.278,-1.359 0.26,-4.882 -2.06,-3.582 m 6.863,-0.075 c -2.459,0.983 -0.867,4.795 1.564,3.839 2.49,-0.98 0.986,-4.86 -1.564,-3.84 m 6.614,0 c -2.45,0.981 -0.767,4.692 1.571,3.837 2.623,-0.96 0.978,-4.856 -1.57,-3.836 m 6.63,0 c -2.392,0.997 -0.803,4.695 1.555,3.836 2.702,-0.986 0.98,-4.893 -1.555,-3.836 m 6.601,0.075 c -2.355,1.26 -0.5,4.854 1.826,3.648 2.466,-1.278 0.594,-4.943 -1.826,-3.648 m 6.616,0 c -2.203,1.194 -0.49,4.828 1.831,3.648 2.535,-1.287 0.583,-4.956 -1.831,-3.648 m 6.628,0 c -2.295,1.278 -0.36,4.901 2,3.673 2.391,-1.244 0.356,-4.985 -2,-3.673 m 6.614,0 c -2.328,1.305 -0.239,4.925 2.06,3.65 2.347,-1.304 0.309,-4.978 -2.06,-3.65 m 6.862,-0.075 c -2.44,0.976 -0.78,4.747 1.564,3.839 2.494,-0.966 0.987,-4.86 -1.564,-3.84 m 6.631,0 c -2.392,0.998 -0.803,4.697 1.555,3.837 2.665,-0.972 0.965,-4.886 -1.555,-3.836 m 73.026,0.075 c -2.328,1.305 -0.27,4.943 2.059,3.65 2.347,-1.305 0.31,-4.978 -2.059,-3.65 m 13.478,-0.075 c -2.41,0.979 -0.778,4.692 1.57,3.836 2.674,-0.976 1.042,-4.896 -1.57,-3.836 m 6.628,0 c -2.355,0.986 -0.783,4.683 1.556,3.836 2.746,-0.994 1.074,-4.936 -1.556,-3.836 m 19.846,0.075 c -2.328,1.305 -0.27,4.943 2.059,3.65 2.32,-1.29 0.29,-4.968 -2.059,-3.65 m -239.428,6.54 c -2.388,1.007 -0.842,4.74 1.534,3.875 2.66,-0.968 0.959,-4.925 -1.534,-3.875 m 6.578,0.075 c -2.432,1.28 -0.5,4.914 1.828,3.689 2.445,-1.286 0.563,-4.948 -1.828,-3.689 m 6.872,-0.075 c -2.496,0.962 -0.966,4.913 1.534,3.84 2.375,-1.02 0.912,-4.782 -1.534,-3.84 m 6.621,0 c -2.477,0.973 -0.933,4.82 1.565,3.839 2.477,-0.973 0.933,-4.82 -1.565,-3.839 m 6.615,0 c -2.468,0.969 -0.9,4.807 1.564,3.839 2.478,-0.974 0.933,-4.82 -1.564,-3.839 m 39.952,0 c -2.478,0.973 -0.933,4.82 1.564,3.839 2.478,-0.973 0.933,-4.82 -1.564,-3.839 m 6.628,0 c -2.457,0.99 -0.924,4.794 1.557,3.839 2.517,-0.969 0.946,-4.848 -1.557,-3.839 m 6.617,0 c -2.384,0.993 -0.914,4.788 1.555,3.839 2.507,-0.966 0.967,-4.89 -1.555,-3.84 m 6.615,0.031 c -2.528,1.118 -0.54,4.987 1.81,3.734 2.377,-1.268 0.581,-4.791 -1.81,-3.734 m 6.601,0.045 c -2.35,1.255 -0.501,4.913 1.826,3.689 2.444,-1.286 0.556,-4.96 -1.826,-3.689 m 6.87,-0.075 c -2.516,0.968 -0.942,4.86 1.555,3.839 2.419,-0.99 0.935,-4.797 -1.555,-3.839 m 6.621,0 c -2.478,0.973 -0.933,4.82 1.564,3.839 2.478,-0.973 0.933,-4.82 -1.564,-3.839 m 6.615,0 c -2.478,0.973 -0.934,4.82 1.564,3.839 2.478,-0.973 0.933,-4.82 -1.564,-3.839 m 6.627,0 c -2.418,0.993 -0.868,4.774 1.558,3.839 2.509,-0.967 0.97,-4.878 -1.558,-3.84 m 6.618,0.031 c -2.528,1.118 -0.54,4.988 1.81,3.734 2.341,-1.25 0.568,-4.785 -1.81,-3.734 m 73.272,-0.03 c -2.476,0.973 -0.931,4.82 1.567,3.839 2.497,-0.98 0.96,-4.83 -1.567,-3.839 m 6.615,0 c -2.437,0.975 -0.878,4.782 1.572,3.839 2.518,-0.97 0.97,-4.857 -1.572,-3.84 m 6.654,0 c -2.381,1.022 -0.846,4.742 1.532,3.876 2.651,-0.965 0.984,-4.957 -1.532,-3.876 m 33.298,10e-4 c -2.482,0.975 -0.934,4.803 1.572,3.839 2.526,-0.972 0.947,-4.827 -1.572,-3.839 m 6.63,0.03 c -2.526,1.118 -0.534,4.995 1.81,3.734 2.3,-1.236 0.574,-4.787 -1.81,-3.734 m -259.554,6.615 c -2.414,1.049 -0.946,4.772 1.554,3.845 2.503,-0.928 0.928,-4.923 -1.554,-3.845 m 6.855,-0.027 c -2.584,0.935 -1.247,4.817 1.314,3.872 2.502,-0.924 1.153,-4.765 -1.314,-3.872 m 6.616,0 c -2.665,0.972 -0.966,4.886 1.554,3.836 2.392,-0.997 0.803,-4.696 -1.554,-3.836 m 6.614,-0.003 c -2.613,0.99 -0.977,4.859 1.571,3.839 2.444,-0.978 0.783,-4.732 -1.57,-3.84 m 6.62,0 c -2.493,0.968 -0.987,4.86 1.565,3.84 2.482,-0.994 0.872,-4.785 -1.565,-3.84 m 6.615,0 c -2.481,0.975 -0.924,4.818 1.564,3.876 2.484,-0.94 0.953,-4.864 -1.564,-3.875 m 6.628,0.03 c -2.45,1.05 -0.935,4.769 1.557,3.845 2.504,-0.928 0.932,-4.91 -1.557,-3.845 m 6.858,-0.027 c -2.584,0.935 -1.247,4.817 1.314,3.872 2.502,-0.924 1.153,-4.765 -1.314,-3.872 m 46.567,0 c -2.584,0.935 -1.247,4.817 1.314,3.872 2.502,-0.924 1.152,-4.765 -1.314,-3.872 m 6.615,0 c -2.665,0.972 -0.965,4.886 1.555,3.836 2.392,-0.997 0.802,-4.696 -1.555,-3.836 m 6.622,-0.003 c -2.493,0.97 -0.987,4.86 1.564,3.839 2.44,-0.977 0.849,-4.779 -1.564,-3.84 m 6.614,0 c -2.47,0.97 -0.958,4.85 1.564,3.84 2.472,-0.99 0.934,-4.82 -1.564,-3.84 m 6.615,0.032 c -2.464,1.018 -0.935,4.792 1.57,3.845 2.514,-0.951 0.903,-4.869 -1.57,-3.845 m 6.614,0.044 c -2.499,1.296 -0.618,5.012 1.825,3.688 2.22,-1.203 0.487,-4.886 -1.825,-3.688 m 86.518,-0.024 c -2.609,1.163 -0.627,5.042 1.826,3.712 2.227,-1.207 0.534,-4.762 -1.826,-3.712 m 39.952,-0.02 c -2.466,1.028 -0.91,4.764 1.572,3.844 2.53,-0.938 0.963,-4.902 -1.572,-3.845 m -252.684,6.594 c -2.634,0.901 -1.322,4.863 1.314,3.866 2.348,-0.888 1.107,-4.694 -1.314,-3.866 m 6.615,-0.006 c -2.595,0.939 -1.32,4.694 1.307,3.895 2.615,-0.794 1.168,-4.791 -1.307,-3.895 m 6.616,0 c -2.504,0.912 -1.2,4.792 1.306,3.968 2.618,-0.86 1.22,-4.89 -1.306,-3.968 m 6.62,0 c -2.603,0.972 -0.931,5.007 1.565,3.907 2.4,-1.058 0.805,-4.792 -1.564,-3.907 m 6.871,-0.016 c -2.601,0.673 -1.571,4.59 1.05,3.963 2.592,-0.62 1.442,-4.609 -1.05,-3.963 m 6.615,-0.007 c -2.588,0.735 -1.457,4.813 1.053,4.059 2.564,-0.77 1.571,-4.805 -1.053,-4.06 m 6.614,0.03 c -2.457,0.841 -1.498,4.706 1.053,4.008 2.594,-0.708 1.533,-4.893 -1.053,-4.008 m 6.615,-0.006 c -2.588,0.937 -1.303,4.858 1.314,3.873 2.494,-0.939 1.155,-4.767 -1.314,-3.873 m 46.567,0 c -2.745,0.994 -1.072,4.936 1.555,3.836 2.358,-0.986 0.785,-4.684 -1.555,-3.836 m 6.615,0 c -2.512,0.916 -1.14,4.745 1.313,3.969 2.65,-0.839 1.203,-4.887 -1.313,-3.969 m 6.878,-0.037 c -2.623,0.607 -1.533,4.787 1.05,4.036 2.532,-0.735 1.439,-4.613 -1.05,-4.036 m 6.358,0.067 c -2.491,0.998 -0.912,4.969 1.564,3.877 2.43,-1.07 0.89,-4.859 -1.564,-3.877 m 6.878,-0.046 c -2.565,0.69 -1.55,4.577 1.047,3.963 2.62,-0.62 1.533,-4.659 -1.047,-3.963 m 112.977,0.016 c -2.505,0.937 -0.976,4.854 1.567,3.873 2.455,-0.949 0.78,-4.75 -1.567,-3.873 m 6.615,0.03 c -2.49,0.997 -0.958,4.817 1.566,3.843 2.49,-0.962 0.902,-4.83 -1.566,-3.843 m 13.488,-0.03 c -2.616,0.947 -1.325,4.87 1.313,3.873 2.344,-0.887 1.108,-4.75 -1.313,-3.873 m -246.066,6.593 c -2.748,0.521 -1.89,4.695 0.788,4.142 2.594,-0.534 1.862,-4.645 -0.788,-4.142 m 6.617,-0.003 c -2.634,0.542 -1.835,4.679 0.789,4.145 2.69,-0.547 1.898,-4.698 -0.789,-4.145 m 6.615,0.008 c -2.518,0.652 -1.803,4.627 0.788,4.134 2.76,-0.524 1.86,-4.82 -0.788,-4.134 m 6.62,0 c -2.605,0.69 -1.483,4.9 1.045,4.065 2.477,-0.817 1.461,-4.728 -1.044,-4.065 m 6.605,0.024 c -2.516,0.82 -1.454,4.783 1.056,4.028 2.58,-0.775 1.417,-4.833 -1.056,-4.028 m 6.617,0 c -2.481,0.83 -1.426,4.89 1.053,4.082 2.54,-0.828 1.547,-4.953 -1.053,-4.082 m 60.06,-0.032 c -2.633,0.542 -1.834,4.679 0.79,4.145 2.69,-0.547 1.897,-4.698 -0.79,-4.145 m 6.622,0.008 c -2.593,0.686 -1.593,4.949 1.044,4.066 2.47,-0.828 1.464,-4.73 -1.044,-4.066 m 6.615,0 c -2.598,0.687 -1.505,4.828 1.043,4.052 2.524,-0.768 1.484,-4.72 -1.043,-4.052 m 6.608,0.024 c -2.482,0.818 -1.446,4.82 1.053,4.069 2.573,-0.774 1.43,-4.888 -1.053,-4.07 m 100.008,-0.03 c -2.736,0.554 -1.892,4.696 0.789,4.144 2.637,-0.542 1.878,-4.685 -0.789,-4.145 m 6.615,0 c -2.67,0.543 -1.82,4.677 0.793,4.145 2.691,-0.547 1.898,-4.691 -0.793,-4.145 m 6.62,0.008 c -2.44,0.633 -1.776,4.621 0.788,4.135 2.76,-0.525 1.857,-4.821 -0.788,-4.135 m 6.614,0 c -2.632,0.682 -1.508,4.963 1.048,4.106 2.49,-0.834 1.516,-4.77 -1.048,-4.106 m 6.61,0.024 c -2.527,0.837 -1.469,4.828 1.058,4.069 2.566,-0.772 1.5,-4.915 -1.059,-4.07 m 6.88,-0.028 c -2.75,0.523 -1.879,4.745 0.788,4.121 2.463,-0.575 1.762,-4.605 -0.788,-4.12 m 6.355,0.028 c -2.654,0.888 -1.273,4.953 1.307,4.043 2.503,-0.884 1.188,-4.88 -1.307,-4.043 m -246.065,6.627 c -2.661,0.514 -1.836,4.714 0.789,4.15 2.648,-0.569 1.885,-4.665 -0.789,-4.15 m 6.876,-0.03 c -2.55,0.27 -2.29,4.4 0.264,4.217 2.748,-0.196 2.516,-4.513 -0.264,-4.217 m 6.614,0.01 c -2.643,0.396 -2.159,4.665 0.528,4.157 2.548,-0.482 2.079,-4.547 -0.528,-4.157 m 6.616,0 c -2.61,0.393 -2.126,4.488 0.524,4.195 2.655,-0.294 2.126,-4.594 -0.524,-4.195 m 6.614,0 c -2.607,0.393 -2.037,4.42 0.527,4.177 2.707,-0.257 2.103,-4.573 -0.527,-4.177 m 59.799,-0.004 c -2.624,0.612 -1.81,4.73 0.789,4.174 2.7,-0.579 1.868,-4.794 -0.79,-4.174 m 6.876,0.004 c -2.643,0.396 -2.159,4.665 0.528,4.157 2.548,-0.482 2.079,-4.547 -0.528,-4.157 m 6.615,0 c -2.663,0.399 -2.086,4.692 0.529,4.167 2.577,-0.517 2.08,-4.558 -0.53,-4.167 m 6.616,0 c -2.602,0.392 -2.132,4.52 0.525,4.164 2.655,-0.356 2.112,-4.561 -0.525,-4.164 m 93.133,0 c -2.781,0.433 -1.858,4.747 0.788,4.17 2.471,-0.538 1.778,-4.57 -0.788,-4.17 m 6.614,0.02 c -2.765,0.526 -1.85,4.717 0.794,4.15 2.646,-0.569 1.844,-4.65 -0.794,-4.15 m 6.62,-0.024 c -2.627,0.613 -1.852,4.74 0.788,4.174 2.72,-0.582 1.903,-4.802 -0.788,-4.174 m 6.615,0.013 c -2.443,0.633 -1.763,4.707 0.788,4.161 2.725,-0.585 1.884,-4.853 -0.788,-4.16 m 6.873,-0.01 c -2.643,0.396 -2.159,4.662 0.53,4.157 2.59,-0.487 2.071,-4.546 -0.53,-4.157 m 6.615,0 c -2.654,0.397 -2.074,4.426 0.527,4.177 2.67,-0.256 2.116,-4.572 -0.527,-4.177 m 6.615,0 c -2.781,0.433 -1.858,4.747 0.788,4.17 2.471,-0.538 1.778,-4.57 -0.788,-4.17 m 6.614,-0.022 c -2.757,0.524 -1.865,4.77 0.789,4.192 2.593,-0.563 1.817,-4.687 -0.789,-4.192 m -246.828,6.927 c -2.491,1.106 -0.538,4.912 1.812,3.693 2.44,-1.265 0.643,-4.783 -1.812,-3.693 m 6.602,0.045 c -2.198,1.191 -0.463,4.875 1.825,3.688 2.5,-1.296 0.618,-5.012 -1.825,-3.688 m 6.615,0 c -2.348,1.272 -0.29,4.963 2.072,3.612 2.319,-1.326 0.248,-4.87 -2.072,-3.612 m 6.875,-0.075 c -2.472,0.989 -0.934,4.82 1.564,3.839 2.49,-0.978 0.987,-4.86 -1.564,-3.84 m 66.41,0.076 c -2.397,1.266 -0.488,4.85 1.83,3.648 2.466,-1.279 0.599,-4.93 -1.83,-3.648 m 6.619,0 c -2.199,1.191 -0.485,4.846 1.825,3.648 2.5,-1.296 0.599,-4.961 -1.825,-3.648 m 6.614,0 c -2.348,1.273 -0.282,4.96 2.073,3.65 2.334,-1.301 0.265,-4.917 -2.073,-3.65 m 13.49,-0.075 c -2.44,0.976 -0.78,4.747 1.564,3.839 2.494,-0.967 0.987,-4.86 -1.564,-3.84 m 86.518,0 c -2.44,0.977 -0.78,4.748 1.566,3.84 2.493,-0.967 0.987,-4.86 -1.566,-3.84 m 6.617,0 c -2.41,0.978 -0.778,4.693 1.57,3.837 2.708,-0.988 0.983,-4.872 -1.57,-3.836 m 6.628,0 c -2.355,0.986 -0.783,4.683 1.556,3.836 2.746,-0.994 1.071,-4.936 -1.556,-3.836 m 6.604,0.075 c -2.22,1.204 -0.487,4.887 1.826,3.688 2.497,-1.295 0.616,-5.012 -1.826,-3.688 m 6.615,0 c -2.347,1.272 -0.291,4.963 2.071,3.612 2.32,-1.326 0.249,-4.87 -2.071,-3.612 m 6.627,0 c -2.323,1.302 -0.301,4.964 2.059,3.65 2.347,-1.308 0.31,-4.978 -2.059,-3.65 m 6.861,-0.075 c -2.45,0.98 -0.881,4.79 1.566,3.839 2.493,-0.97 0.985,-4.86 -1.566,-3.84 m 6.617,0 c -2.41,0.978 -0.778,4.693 1.57,3.837 2.672,-0.974 0.968,-4.865 -1.57,-3.836 m -246.328,6.69 c -2.395,1.26 -0.49,4.908 1.828,3.689 2.433,-1.28 0.5,-4.914 -1.828,-3.69 m 6.872,-0.074 c -2.59,0.992 -0.996,4.817 1.533,3.85 2.457,-0.94 0.98,-4.812 -1.533,-3.85 m 6.621,0 c -2.477,0.973 -0.933,4.82 1.565,3.839 2.477,-0.973 0.933,-4.82 -1.565,-3.84 m 73.028,0.076 c -2.35,1.255 -0.501,4.913 1.826,3.689 2.444,-1.286 0.557,-4.961 -1.826,-3.69 m 6.616,0 c -2.341,1.27 -0.314,4.987 2.072,3.65 2.33,-1.307 0.266,-4.916 -2.072,-3.65 m 6.875,-0.074 c -2.478,0.973 -0.933,4.82 1.564,3.839 2.478,-0.973 0.933,-4.82 -1.564,-3.84 m 13.242,0 c -2.47,0.997 -0.947,4.805 1.558,3.876 2.523,-0.936 0.965,-4.892 -1.558,-3.875 m 86.505,0 c -2.495,0.98 -0.863,4.767 1.572,3.875 2.534,-0.928 0.968,-4.871 -1.572,-3.875 m 6.63,0 c -2.386,0.994 -0.81,4.736 1.556,3.875 2.662,-0.968 0.987,-4.934 -1.556,-3.876 m 20.093,0 c -2.477,0.974 -0.931,4.82 1.566,3.84 2.477,-0.973 0.932,-4.82 -1.566,-3.84 m 6.614,0 c -2.476,0.974 -0.93,4.82 1.567,3.84 2.476,-0.973 0.931,-4.82 -1.567,-3.84 m 6.615,0 c -2.482,0.976 -0.934,4.803 1.572,3.84 2.526,-0.972 0.947,-4.827 -1.572,-3.84 m 26.718,0 c -2.527,0.972 -0.948,4.828 1.571,3.84 2.482,-0.975 0.934,-4.803 -1.571,-3.84 m -272.787,6.619 c -2.584,0.935 -1.247,4.817 1.314,3.872 2.502,-0.924 1.153,-4.765 -1.314,-3.872 m 6.615,0 c -2.75,0.995 -0.97,4.888 1.555,3.836 2.393,-0.997 0.804,-4.69 -1.555,-3.836 m 6.615,-0.003 c -2.511,0.953 -0.967,4.89 1.555,3.839 2.385,-0.995 0.818,-4.74 -1.555,-3.84 m 79.904,0.004 c -2.665,0.972 -0.965,4.886 1.555,3.836 2.392,-0.997 0.802,-4.696 -1.555,-3.836 m 6.615,-0.003 c -2.52,0.96 -0.972,4.856 1.57,3.839 2.446,-0.979 0.851,-4.763 -1.57,-3.84 m 133.09,0 c -2.492,0.97 -0.983,4.86 1.567,3.84 2.477,-0.992 0.902,-4.8 -1.566,-3.84 m 6.614,0.031 c -2.46,1.026 -0.934,4.793 1.572,3.846 2.506,-0.948 0.934,-4.89 -1.572,-3.846 m 26.718,-0.03 c -2.51,0.953 -0.968,4.89 1.556,3.839 2.384,-0.994 0.817,-4.74 -1.556,-3.84 m -266.172,6.618 c -2.584,0.936 -1.244,4.809 1.307,3.969 2.539,-0.836 1.208,-4.88 -1.307,-3.969 m 6.616,0 c -2.547,0.929 -1.253,4.794 1.312,3.969 2.616,-0.84 1.18,-4.878 -1.312,-3.969 m 259.556,0 c -2.63,0.962 -1.021,5.054 1.572,3.908 2.4,-1.063 0.807,-4.778 -1.572,-3.908 m -265.91,6.593 c -2.728,0.519 -1.856,4.687 0.788,4.143 2.638,-0.543 1.821,-4.638 -0.788,-4.143 m 6.617,0.019 c -2.615,0.61 -1.83,4.657 0.789,4.124 2.691,-0.548 1.887,-4.749 -0.789,-4.124 m -6.354,6.645 c -2.762,0.175 -2.44,4.373 0.264,4.18 2.666,-0.189 2.402,-4.349 -0.264,-4.18 m 6.616,0 c -2.71,0.172 -2.408,4.37 0.263,4.18 2.727,-0.193 2.485,-4.355 -0.263,-4.18 m -0.783,6.923 c -2.436,1.286 -0.499,4.855 1.828,3.648 2.45,-1.27 0.575,-4.917 -1.828,-3.648 z"
     style="display:inline;fill:#008080;fill-opacity:1;stroke:none;stroke-width:0.264583;stroke-opacity:1"
     id="path1" />
  <g
     style="display:inline"
     id="g30"
     transform="translate(-2.3997654e-4,1.8296125e-4)">
    <path
       fill="#008080"
       d="m 73.252,-37.739 c 0,0 7.375,-5.454 7.106,-10.025 -0.346,-5.685 -5.07,-6.915 -7.106,-6.915 -2.036,0 -7.03,1.23 -7.107,6.915 -0.076,4.225 7.068,9.987 7.107,10.025 z"
       style="stroke-width:0.0946414"
       transform="translate(101.502,112.28)"
       id="path2" />
    <path
       d="m 73.252,-39.15 c 0,0 6.146,-4.546 5.922,-8.355 -0.288,-4.738 -4.225,-5.762 -5.922,-5.762 -1.696,0 -5.858,1.024 -5.922,5.762 -0.064,3.521 5.89,8.323 5.922,8.355 z m -4.13,-8.42 a 4.14,4.14 0 0 1 4.13,-4.128 4.14,4.14 0 0 1 4.13,4.129 4.14,4.14 0 0 1 -4.13,4.13 4.14,4.14 0 0 1 -4.13,-4.13 z"
       style="stroke-width:0.0946414"
       transform="translate(101.502,112.28)"
       id="path3" />
    <path
       d="m 75.841,-48.206 c -0.366,0.212 -0.722,0.428 -1.052,0.65 -0.17,0.113 -0.345,0.232 -0.505,0.36 l -0.036,0.032 a 0.748,0.748 0 0 0 -0.134,0.119 0.93,0.93 0 0 1 -0.619,0.68 0.96,0.96 0 0 1 -0.64,-0.03 c -0.02,-0.01 -0.04,-0.021 -0.056,-0.026 -0.036,-0.021 -0.057,-0.031 -0.083,-0.047 l -0.02,-0.015 -0.047,-0.031 a 0.964,0.964 0 0 1 -0.314,-0.449 1.042,1.042 0 0 1 -0.042,-0.221 v -0.047 c 0,-0.154 0.031,-0.294 0.098,-0.422 l 0.016,-0.032 a 0.908,0.908 0 0 1 0.526,-0.433 0.928,0.928 0 0 1 0.675,0.041 c 0.016,0 0.026,-0.005 0.036,-0.01 0.103,-0.026 0.19,-0.062 0.284,-0.098 0.247,-0.093 0.48,-0.201 0.742,-0.32 l 0.263,-0.123 0.392,-0.186 c 0.072,-0.031 0.144,-0.057 0.217,-0.082 0.232,-0.078 0.407,-0.01 0.495,0.18 0.046,0.092 0.113,0.33 -0.196,0.51 z"
       style="stroke-width:0.0946414"
       transform="translate(101.502,112.28)"
       id="path4" />
    <path
       d="m 72.216,-49.869 c 0.212,0.366 0.43,0.721 0.652,1.05 0.114,0.17 0.233,0.345 0.362,0.505 l 0.031,0.036 a 0.748,0.748 0 0 0 0.12,0.134 0.93,0.93 0 0 1 0.681,0.617 c 0.026,0.093 0.042,0.186 0.042,0.278 a 0.962,0.962 0 0 1 -0.071,0.362 0.514,0.514 0 0 0 -0.026,0.056 c -0.02,0.036 -0.03,0.057 -0.046,0.083 l -0.015,0.02 -0.031,0.047 a 0.965,0.965 0 0 1 -0.448,0.316 c -0.072,0.02 -0.144,0.036 -0.222,0.041 H 73.2 a 0.893,0.893 0 0 1 -0.423,-0.096 l -0.031,-0.016 a 0.908,0.908 0 0 1 -0.434,-0.525 0.928,0.928 0 0 1 0.04,-0.675 c 0,-0.016 -0.006,-0.026 -0.011,-0.036 -0.026,-0.103 -0.063,-0.19 -0.099,-0.284 -0.093,-0.247 -0.202,-0.479 -0.321,-0.741 l -0.124,-0.263 -0.187,-0.392 c -0.031,-0.072 -0.057,-0.144 -0.083,-0.216 -0.078,-0.232 -0.011,-0.407 0.18,-0.495 0.092,-0.047 0.329,-0.115 0.51,0.194 z"
       style="stroke-width:0.0946414"
       transform="translate(101.502,112.28)"
       id="path5" />
    <g
       style="display:inline"
       id="g9">
      <path
         fill="#008080"
         d="m 73.252,-37.739 c 0,0 7.375,-5.454 7.106,-10.025 -0.346,-5.685 -5.07,-6.915 -7.106,-6.915 -2.036,0 -7.03,1.23 -7.107,6.915 -0.076,4.225 7.068,9.987 7.107,10.025 z"
         style="stroke-width:0.0946414"
         transform="translate(128.215,198.622)"
         id="path6" />
      <path
         d="m 73.252,-39.15 c 0,0 6.146,-4.546 5.922,-8.355 -0.288,-4.738 -4.225,-5.762 -5.922,-5.762 -1.696,0 -5.858,1.024 -5.922,5.762 -0.064,3.521 5.89,8.323 5.922,8.355 z m -4.13,-8.42 a 4.14,4.14 0 0 1 4.13,-4.128 4.14,4.14 0 0 1 4.13,4.129 4.14,4.14 0 0 1 -4.13,4.13 4.14,4.14 0 0 1 -4.13,-4.13 z"
         style="stroke-width:0.0946414"
         transform="translate(128.215,198.622)"
         id="path7" />
      <path
         d="m 75.841,-48.206 c -0.366,0.212 -0.722,0.428 -1.052,0.65 -0.17,0.113 -0.345,0.232 -0.505,0.36 l -0.036,0.032 a 0.748,0.748 0 0 0 -0.134,0.119 0.93,0.93 0 0 1 -0.619,0.68 0.96,0.96 0 0 1 -0.64,-0.03 c -0.02,-0.01 -0.04,-0.021 -0.056,-0.026 -0.036,-0.021 -0.057,-0.031 -0.083,-0.047 l -0.02,-0.015 -0.047,-0.031 a 0.964,0.964 0 0 1 -0.314,-0.449 1.042,1.042 0 0 1 -0.042,-0.221 v -0.047 c 0,-0.154 0.031,-0.294 0.098,-0.422 l 0.016,-0.032 a 0.908,0.908 0 0 1 0.526,-0.433 0.928,0.928 0 0 1 0.675,0.041 c 0.016,0 0.026,-0.005 0.036,-0.01 0.103,-0.026 0.19,-0.062 0.284,-0.098 0.247,-0.093 0.48,-0.201 0.742,-0.32 l 0.263,-0.123 0.392,-0.186 c 0.072,-0.031 0.144,-0.057 0.217,-0.082 0.232,-0.078 0.407,-0.01 0.495,0.18 0.046,0.092 0.113,0.33 -0.196,0.51 z"
         style="stroke-width:0.0946414"
         transform="translate(128.215,198.622)"
         id="path8" />
      <path
         d="m 72.216,-49.869 c 0.212,0.366 0.43,0.721 0.652,1.05 0.114,0.17 0.233,0.345 0.362,0.505 l 0.031,0.036 a 0.748,0.748 0 0 0 0.12,0.134 0.93,0.93 0 0 1 0.681,0.617 c 0.026,0.093 0.042,0.186 0.042,0.278 a 0.962,0.962 0 0 1 -0.071,0.362 0.514,0.514 0 0 0 -0.026,0.056 c -0.02,0.036 -0.03,0.057 -0.046,0.083 l -0.015,0.02 -0.031,0.047 a 0.965,0.965 0 0 1 -0.448,0.316 c -0.072,0.02 -0.144,0.036 -0.222,0.041 H 73.2 a 0.893,0.893 0 0 1 -0.423,-0.096 l -0.031,-0.016 a 0.908,0.908 0 0 1 -0.434,-0.525 0.928,0.928 0 0 1 0.04,-0.675 c 0,-0.016 -0.006,-0.026 -0.011,-0.036 -0.026,-0.103 -0.063,-0.19 -0.099,-0.284 -0.093,-0.247 -0.202,-0.479 -0.321,-0.741 l -0.124,-0.263 -0.187,-0.392 c -0.031,-0.072 -0.057,-0.144 -0.083,-0.216 -0.078,-0.232 -0.011,-0.407 0.18,-0.495 0.092,-0.047 0.329,-0.115 0.51,0.194 z"
         style="stroke-width:0.0946414"
         transform="translate(128.215,198.622)"
         id="path9" />
    </g>
    <g
       style="display:inline"
       id="g13">
      <path
         fill="#008080"
         d="m 73.252,-37.739 c 0,0 7.375,-5.454 7.106,-10.025 -0.346,-5.685 -5.07,-6.915 -7.106,-6.915 -2.036,0 -7.03,1.23 -7.107,6.915 -0.076,4.225 7.068,9.987 7.107,10.025 z"
         style="stroke-width:0.0946414"
         transform="translate(267.953,218.765)"
         id="path10" />
      <path
         d="m 73.252,-39.15 c 0,0 6.146,-4.546 5.922,-8.355 -0.288,-4.738 -4.225,-5.762 -5.922,-5.762 -1.696,0 -5.858,1.024 -5.922,5.762 -0.064,3.521 5.89,8.323 5.922,8.355 z m -4.13,-8.42 a 4.14,4.14 0 0 1 4.13,-4.128 4.14,4.14 0 0 1 4.13,4.129 4.14,4.14 0 0 1 -4.13,4.13 4.14,4.14 0 0 1 -4.13,-4.13 z"
         style="stroke-width:0.0946414"
         transform="translate(267.953,218.765)"
         id="path11" />
      <path
         d="m 75.841,-48.206 c -0.366,0.212 -0.722,0.428 -1.052,0.65 -0.17,0.113 -0.345,0.232 -0.505,0.36 l -0.036,0.032 a 0.748,0.748 0 0 0 -0.134,0.119 0.93,0.93 0 0 1 -0.619,0.68 0.96,0.96 0 0 1 -0.64,-0.03 c -0.02,-0.01 -0.04,-0.021 -0.056,-0.026 -0.036,-0.021 -0.057,-0.031 -0.083,-0.047 l -0.02,-0.015 -0.047,-0.031 a 0.964,0.964 0 0 1 -0.314,-0.449 1.042,1.042 0 0 1 -0.042,-0.221 v -0.047 c 0,-0.154 0.031,-0.294 0.098,-0.422 l 0.016,-0.032 a 0.908,0.908 0 0 1 0.526,-0.433 0.928,0.928 0 0 1 0.675,0.041 c 0.016,0 0.026,-0.005 0.036,-0.01 0.103,-0.026 0.19,-0.062 0.284,-0.098 0.247,-0.093 0.48,-0.201 0.742,-0.32 l 0.263,-0.123 0.392,-0.186 c 0.072,-0.031 0.144,-0.057 0.217,-0.082 0.232,-0.078 0.407,-0.01 0.495,0.18 0.046,0.092 0.113,0.33 -0.196,0.51 z"
         style="stroke-width:0.0946414"
         transform="translate(267.953,218.765)"
         id="path12" />
      <path
         d="m 72.216,-49.869 c 0.212,0.366 0.43,0.721 0.652,1.05 0.114,0.17 0.233,0.345 0.362,0.505 l 0.031,0.036 a 0.748,0.748 0 0 0 0.12,0.134 0.93,0.93 0 0 1 0.681,0.617 c 0.026,0.093 0.042,0.186 0.042,0.278 a 0.962,0.962 0 0 1 -0.071,0.362 0.514,0.514 0 0 0 -0.026,0.056 c -0.02,0.036 -0.03,0.057 -0.046,0.083 l -0.015,0.02 -0.031,0.047 a 0.965,0.965 0 0 1 -0.448,0.316 c -0.072,0.02 -0.144,0.036 -0.222,0.041 H 73.2 a 0.893,0.893 0 0 1 -0.423,-0.096 l -0.031,-0.016 a 0.908,0.908 0 0 1 -0.434,-0.525 0.928,0.928 0 0 1 0.04,-0.675 c 0,-0.016 -0.006,-0.026 -0.011,-0.036 -0.026,-0.103 -0.063,-0.19 -0.099,-0.284 -0.093,-0.247 -0.202,-0.479 -0.321,-0.741 l -0.124,-0.263 -0.187,-0.392 c -0.031,-0.072 -0.057,-0.144 -0.083,-0.216 -0.078,-0.232 -0.011,-0.407 0.18,-0.495 0.092,-0.047 0.329,-0.115 0.51,0.194 z"
         style="stroke-width:0.0946414"
         transform="translate(267.953,218.765)"
         id="path13" />
    </g>
    <g
       style="display:inline"
       id="g17">
      <path
         fill="#008080"
         d="m 73.252,-37.739 c 0,0 7.375,-5.454 7.106,-10.025 -0.346,-5.685 -5.07,-6.915 -7.106,-6.915 -2.036,0 -7.03,1.23 -7.107,6.915 -0.076,4.225 7.068,9.987 7.107,10.025 z"
         style="stroke-width:0.0946414"
         transform="translate(35.227,212.026)"
         id="path14" />
      <path
         d="m 73.252,-39.15 c 0,0 6.146,-4.546 5.922,-8.355 -0.288,-4.738 -4.225,-5.762 -5.922,-5.762 -1.696,0 -5.858,1.024 -5.922,5.762 -0.064,3.521 5.89,8.323 5.922,8.355 z m -4.13,-8.42 a 4.14,4.14 0 0 1 4.13,-4.128 4.14,4.14 0 0 1 4.13,4.129 4.14,4.14 0 0 1 -4.13,4.13 4.14,4.14 0 0 1 -4.13,-4.13 z"
         style="stroke-width:0.0946414"
         transform="translate(35.227,212.026)"
         id="path15" />
      <path
         d="m 75.841,-48.206 c -0.366,0.212 -0.722,0.428 -1.052,0.65 -0.17,0.113 -0.345,0.232 -0.505,0.36 l -0.036,0.032 a 0.748,0.748 0 0 0 -0.134,0.119 0.93,0.93 0 0 1 -0.619,0.68 0.96,0.96 0 0 1 -0.64,-0.03 c -0.02,-0.01 -0.04,-0.021 -0.056,-0.026 -0.036,-0.021 -0.057,-0.031 -0.083,-0.047 l -0.02,-0.015 -0.047,-0.031 a 0.964,0.964 0 0 1 -0.314,-0.449 1.042,1.042 0 0 1 -0.042,-0.221 v -0.047 c 0,-0.154 0.031,-0.294 0.098,-0.422 l 0.016,-0.032 a 0.908,0.908 0 0 1 0.526,-0.433 0.928,0.928 0 0 1 0.675,0.041 c 0.016,0 0.026,-0.005 0.036,-0.01 0.103,-0.026 0.19,-0.062 0.284,-0.098 0.247,-0.093 0.48,-0.201 0.742,-0.32 l 0.263,-0.123 0.392,-0.186 c 0.072,-0.031 0.144,-0.057 0.217,-0.082 0.232,-0.078 0.407,-0.01 0.495,0.18 0.046,0.092 0.113,0.33 -0.196,0.51 z"
         style="stroke-width:0.0946414"
         transform="translate(35.227,212.026)"
         id="path16" />
      <path
         d="m 72.216,-49.869 c 0.212,0.366 0.43,0.721 0.652,1.05 0.114,0.17 0.233,0.345 0.362,0.505 l 0.031,0.036 a 0.748,0.748 0 0 0 0.12,0.134 0.93,0.93 0 0 1 0.681,0.617 c 0.026,0.093 0.042,0.186 0.042,0.278 a 0.962,0.962 0 0 1 -0.071,0.362 0.514,0.514 0 0 0 -0.026,0.056 c -0.02,0.036 -0.03,0.057 -0.046,0.083 l -0.015,0.02 -0.031,0.047 a 0.965,0.965 0 0 1 -0.448,0.316 c -0.072,0.02 -0.144,0.036 -0.222,0.041 H 73.2 a 0.893,0.893 0 0 1 -0.423,-0.096 l -0.031,-0.016 a 0.908,0.908 0 0 1 -0.434,-0.525 0.928,0.928 0 0 1 0.04,-0.675 c 0,-0.016 -0.006,-0.026 -0.011,-0.036 -0.026,-0.103 -0.063,-0.19 -0.099,-0.284 -0.093,-0.247 -0.202,-0.479 -0.321,-0.741 l -0.124,-0.263 -0.187,-0.392 c -0.031,-0.072 -0.057,-0.144 -0.083,-0.216 -0.078,-0.232 -0.011,-0.407 0.18,-0.495 0.092,-0.047 0.329,-0.115 0.51,0.194 z"
         style="stroke-width:0.0946414"
         transform="translate(35.227,212.026)"
         id="path17" />
    </g>
    <g
       style="display:inline"
       id="g21">
      <path
         fill="#008080"
         d="m 73.252,-37.739 c 0,0 7.375,-5.454 7.106,-10.025 -0.346,-5.685 -5.07,-6.915 -7.106,-6.915 -2.036,0 -7.03,1.23 -7.107,6.915 -0.076,4.225 7.068,9.987 7.107,10.025 z"
         style="stroke-width:0.0946414"
         transform="translate(-24.861,144.914)"
         id="path18" />
      <path
         d="m 73.252,-39.15 c 0,0 6.146,-4.546 5.922,-8.355 -0.288,-4.738 -4.225,-5.762 -5.922,-5.762 -1.696,0 -5.858,1.024 -5.922,5.762 -0.064,3.521 5.89,8.323 5.922,8.355 z m -4.13,-8.42 a 4.14,4.14 0 0 1 4.13,-4.128 4.14,4.14 0 0 1 4.13,4.129 4.14,4.14 0 0 1 -4.13,4.13 4.14,4.14 0 0 1 -4.13,-4.13 z"
         style="stroke-width:0.0946414"
         transform="translate(-24.861,144.914)"
         id="path19" />
      <path
         d="m 75.841,-48.206 c -0.366,0.212 -0.722,0.428 -1.052,0.65 -0.17,0.113 -0.345,0.232 -0.505,0.36 l -0.036,0.032 a 0.748,0.748 0 0 0 -0.134,0.119 0.93,0.93 0 0 1 -0.619,0.68 0.96,0.96 0 0 1 -0.64,-0.03 c -0.02,-0.01 -0.04,-0.021 -0.056,-0.026 -0.036,-0.021 -0.057,-0.031 -0.083,-0.047 l -0.02,-0.015 -0.047,-0.031 a 0.964,0.964 0 0 1 -0.314,-0.449 1.042,1.042 0 0 1 -0.042,-0.221 v -0.047 c 0,-0.154 0.031,-0.294 0.098,-0.422 l 0.016,-0.032 a 0.908,0.908 0 0 1 0.526,-0.433 0.928,0.928 0 0 1 0.675,0.041 c 0.016,0 0.026,-0.005 0.036,-0.01 0.103,-0.026 0.19,-0.062 0.284,-0.098 0.247,-0.093 0.48,-0.201 0.742,-0.32 l 0.263,-0.123 0.392,-0.186 c 0.072,-0.031 0.144,-0.057 0.217,-0.082 0.232,-0.078 0.407,-0.01 0.495,0.18 0.046,0.092 0.113,0.33 -0.196,0.51 z"
         style="stroke-width:0.0946414"
         transform="translate(-24.861,144.914)"
         id="path20" />
      <path
         d="m 72.216,-49.869 c 0.212,0.366 0.43,0.721 0.652,1.05 0.114,0.17 0.233,0.345 0.362,0.505 l 0.031,0.036 a 0.748,0.748 0 0 0 0.12,0.134 0.93,0.93 0 0 1 0.681,0.617 c 0.026,0.093 0.042,0.186 0.042,0.278 a 0.962,0.962 0 0 1 -0.071,0.362 0.514,0.514 0 0 0 -0.026,0.056 c -0.02,0.036 -0.03,0.057 -0.046,0.083 l -0.015,0.02 -0.031,0.047 a 0.965,0.965 0 0 1 -0.448,0.316 c -0.072,0.02 -0.144,0.036 -0.222,0.041 H 73.2 a 0.893,0.893 0 0 1 -0.423,-0.096 l -0.031,-0.016 a 0.908,0.908 0 0 1 -0.434,-0.525 0.928,0.928 0 0 1 0.04,-0.675 c 0,-0.016 -0.006,-0.026 -0.011,-0.036 -0.026,-0.103 -0.063,-0.19 -0.099,-0.284 -0.093,-0.247 -0.202,-0.479 -0.321,-0.741 l -0.124,-0.263 -0.187,-0.392 c -0.031,-0.072 -0.057,-0.144 -0.083,-0.216 -0.078,-0.232 -0.011,-0.407 0.18,-0.495 0.092,-0.047 0.329,-0.115 0.51,0.194 z"
         style="stroke-width:0.0946414"
         transform="translate(-24.861,144.914)"
         id="path21" />
    </g>
    <g
       style="display:inline"
       id="g25">
      <path
         fill="#008080"
         d="m 73.252,-37.739 c 0,0 7.375,-5.454 7.106,-10.025 -0.346,-5.685 -5.07,-6.915 -7.106,-6.915 -2.036,0 -7.03,1.23 -7.107,6.915 -0.076,4.225 7.068,9.987 7.107,10.025 z"
         style="stroke-width:0.0946414"
         transform="translate(241.68,138.654)"
         id="path22" />
      <path
         d="m 73.252,-39.15 c 0,0 6.146,-4.546 5.922,-8.355 -0.288,-4.738 -4.225,-5.762 -5.922,-5.762 -1.696,0 -5.858,1.024 -5.922,5.762 -0.064,3.521 5.89,8.323 5.922,8.355 z m -4.13,-8.42 a 4.14,4.14 0 0 1 4.13,-4.128 4.14,4.14 0 0 1 4.13,4.129 4.14,4.14 0 0 1 -4.13,4.13 4.14,4.14 0 0 1 -4.13,-4.13 z"
         style="stroke-width:0.0946414"
         transform="translate(241.68,138.654)"
         id="path23" />
      <path
         d="m 75.841,-48.206 c -0.366,0.212 -0.722,0.428 -1.052,0.65 -0.17,0.113 -0.345,0.232 -0.505,0.36 l -0.036,0.032 a 0.748,0.748 0 0 0 -0.134,0.119 0.93,0.93 0 0 1 -0.619,0.68 0.96,0.96 0 0 1 -0.64,-0.03 c -0.02,-0.01 -0.04,-0.021 -0.056,-0.026 -0.036,-0.021 -0.057,-0.031 -0.083,-0.047 l -0.02,-0.015 -0.047,-0.031 a 0.964,0.964 0 0 1 -0.314,-0.449 1.042,1.042 0 0 1 -0.042,-0.221 v -0.047 c 0,-0.154 0.031,-0.294 0.098,-0.422 l 0.016,-0.032 a 0.908,0.908 0 0 1 0.526,-0.433 0.928,0.928 0 0 1 0.675,0.041 c 0.016,0 0.026,-0.005 0.036,-0.01 0.103,-0.026 0.19,-0.062 0.284,-0.098 0.247,-0.093 0.48,-0.201 0.742,-0.32 l 0.263,-0.123 0.392,-0.186 c 0.072,-0.031 0.144,-0.057 0.217,-0.082 0.232,-0.078 0.407,-0.01 0.495,0.18 0.046,0.092 0.113,0.33 -0.196,0.51 z"
         style="stroke-width:0.0946414"
         transform="translate(241.68,138.654)"
         id="path24" />
      <path
         d="m 72.216,-49.869 c 0.212,0.366 0.43,0.721 0.652,1.05 0.114,0.17 0.233,0.345 0.362,0.505 l 0.031,0.036 a 0.748,0.748 0 0 0 0.12,0.134 0.93,0.93 0 0 1 0.681,0.617 c 0.026,0.093 0.042,0.186 0.042,0.278 a 0.962,0.962 0 0 1 -0.071,0.362 0.514,0.514 0 0 0 -0.026,0.056 c -0.02,0.036 -0.03,0.057 -0.046,0.083 l -0.015,0.02 -0.031,0.047 a 0.965,0.965 0 0 1 -0.448,0.316 c -0.072,0.02 -0.144,0.036 -0.222,0.041 H 73.2 a 0.893,0.893 0 0 1 -0.423,-0.096 l -0.031,-0.016 a 0.908,0.908 0 0 1 -0.434,-0.525 0.928,0.928 0 0 1 0.04,-0.675 c 0,-0.016 -0.006,-0.026 -0.011,-0.036 -0.026,-0.103 -0.063,-0.19 -0.099,-0.284 -0.093,-0.247 -0.202,-0.479 -0.321,-0.741 l -0.124,-0.263 -0.187,-0.392 c -0.031,-0.072 -0.057,-0.144 -0.083,-0.216 -0.078,-0.232 -0.011,-0.407 0.18,-0.495 0.092,-0.047 0.329,-0.115 0.51,0.194 z"
         style="stroke-width:0.0946414"
         transform="translate(241.68,138.654)"
         id="path25" />
    </g>
    <g
       style="display:inline"
       id="g29">
      <path
         fill="#008080"
         d="m 73.252,-37.739 c 0,0 7.375,-5.454 7.106,-10.025 -0.346,-5.685 -5.07,-6.915 -7.106,-6.915 -2.036,0 -7.03,1.23 -7.107,6.915 -0.076,4.225 7.068,9.987 7.107,10.025 z"
         style="stroke-width:0.0946414"
         transform="translate(155.055,138.636)"
         id="path26" />
      <path
         d="m 73.252,-39.15 c 0,0 6.146,-4.546 5.922,-8.355 -0.288,-4.738 -4.225,-5.762 -5.922,-5.762 -1.696,0 -5.858,1.024 -5.922,5.762 -0.064,3.521 5.89,8.323 5.922,8.355 z m -4.13,-8.42 a 4.14,4.14 0 0 1 4.13,-4.128 4.14,4.14 0 0 1 4.13,4.129 4.14,4.14 0 0 1 -4.13,4.13 4.14,4.14 0 0 1 -4.13,-4.13 z"
         style="stroke-width:0.0946414"
         transform="translate(155.055,138.636)"
         id="path27" />
      <path
         d="m 75.841,-48.206 c -0.366,0.212 -0.722,0.428 -1.052,0.65 -0.17,0.113 -0.345,0.232 -0.505,0.36 l -0.036,0.032 a 0.748,0.748 0 0 0 -0.134,0.119 0.93,0.93 0 0 1 -0.619,0.68 0.96,0.96 0 0 1 -0.64,-0.03 c -0.02,-0.01 -0.04,-0.021 -0.056,-0.026 -0.036,-0.021 -0.057,-0.031 -0.083,-0.047 l -0.02,-0.015 -0.047,-0.031 a 0.964,0.964 0 0 1 -0.314,-0.449 1.042,1.042 0 0 1 -0.042,-0.221 v -0.047 c 0,-0.154 0.031,-0.294 0.098,-0.422 l 0.016,-0.032 a 0.908,0.908 0 0 1 0.526,-0.433 0.928,0.928 0 0 1 0.675,0.041 c 0.016,0 0.026,-0.005 0.036,-0.01 0.103,-0.026 0.19,-0.062 0.284,-0.098 0.247,-0.093 0.48,-0.201 0.742,-0.32 l 0.263,-0.123 0.392,-0.186 c 0.072,-0.031 0.144,-0.057 0.217,-0.082 0.232,-0.078 0.407,-0.01 0.495,0.18 0.046,0.092 0.113,0.33 -0.196,0.51 z"
         style="stroke-width:0.0946414"
         transform="translate(155.055,138.636)"
         id="path28" />
      <path
         d="m 72.216,-49.869 c 0.212,0.366 0.43,0.721 0.652,1.05 0.114,0.17 0.233,0.345 0.362,0.505 l 0.031,0.036 a 0.748,0.748 0 0 0 0.12,0.134 0.93,0.93 0 0 1 0.681,0.617 c 0.026,0.093 0.042,0.186 0.042,0.278 a 0.962,0.962 0 0 1 -0.071,0.362 0.514,0.514 0 0 0 -0.026,0.056 c -0.02,0.036 -0.03,0.057 -0.046,0.083 l -0.015,0.02 -0.031,0.047 a 0.965,0.965 0 0 1 -0.448,0.316 c -0.072,0.02 -0.144,0.036 -0.222,0.041 H 73.2 a 0.893,0.893 0 0 1 -0.423,-0.096 l -0.031,-0.016 a 0.908,0.908 0 0 1 -0.434,-0.525 0.928,0.928 0 0 1 0.04,-0.675 c 0,-0.016 -0.006,-0.026 -0.011,-0.036 -0.026,-0.103 -0.063,-0.19 -0.099,-0.284 -0.093,-0.247 -0.202,-0.479 -0.321,-0.741 l -0.124,-0.263 -0.187,-0.392 c -0.031,-0.072 -0.057,-0.144 -0.083,-0.216 -0.078,-0.232 -0.011,-0.407 0.18,-0.495 0.092,-0.047 0.329,-0.115 0.51,0.194 z"
         style="stroke-width:0.0946414"
         transform="translate(155.055,138.636)"
         id="path29" />
    </g>
  </g>
</svg>
