<?xml version="1.0" encoding="UTF-8" standalone="no"?>
<svg
   inkscape:version="1.4 (e7c3feb100, 2024-10-09)"
   inkscape:export-ydpi="48.711296"
   inkscape:export-xdpi="48.711296"
   sodipodi:docname="yasumi_logo_globe.svg"
   aria-label="Yasumi logo"
   id="svg851"
   version="1.1"
   width="90"
   height="90"
   xmlns:inkscape="http://www.inkscape.org/namespaces/inkscape"
   xmlns:sodipodi="http://sodipodi.sourceforge.net/DTD/sodipodi-0.dtd"
   xmlns="http://www.w3.org/2000/svg"
   xmlns:svg="http://www.w3.org/2000/svg"
   xmlns:rdf="http://www.w3.org/1999/02/22-rdf-syntax-ns#"
   xmlns:cc="http://creativecommons.org/ns#"
   xmlns:dc="http://purl.org/dc/elements/1.1/">
  <metadata
     id="metadata857">
    <rdf:RDF>
      <cc:Work
         rdf:about="">
        <dc:format>image/svg+xml</dc:format>
        <dc:type
           rdf:resource="http://purl.org/dc/dcmitype/StillImage" />
      </cc:Work>
    </rdf:RDF>
  </metadata>
  <defs
     id="defs855" />
  <sodipodi:namedview
     inkscape:current-layer="g849"
     inkscape:window-maximized="1"
     inkscape:window-y="0"
     inkscape:window-x="0"
     inkscape:cy="58.078867"
     inkscape:cx="35.835897"
     inkscape:zoom="4.8554666"
     showgrid="false"
     id="namedview853"
     inkscape:window-height="831"
     inkscape:window-width="1440"
     inkscape:pageshadow="2"
     inkscape:pageopacity="0"
     guidetolerance="10"
     gridtolerance="10"
     objecttolerance="10"
     borderopacity="1"
     bordercolor="#666666"
     pagecolor="#ffffff"
     inkscape:showpageshadow="2"
     inkscape:pagecheckerboard="0"
     inkscape:deskcolor="#d1d1d1" />
  <rect
     style="display:none;fill:#008080;stroke:#cccccc"
     id="rect1"
     width="117.37864"
     height="117.6699"
     x="-11.650485"
     y="-6.4077668" />
  <g
     id="g849"
     transform="translate(.366 94.865) scale(.27475)">
    <path
       id="path833"
       d="M162.455-299.07h-.324c-74.416.194-134.624 60.532-134.624 134.948 0 74.416 60.208 134.754 134.624 134.948h.324c74.546 0 134.949-60.402 134.949-134.948S237-299.07 162.455-299.07zm5.385 80.774a200.062 200.062 0 0041.653-5.515c4.022 15.896 6.552 34.256 6.942 54.369H167.84zm0-10.835v-58.261c14.533 4.022 29.325 23.421 38.668 53.2-12.457 2.985-25.368 4.672-38.668 5.061zm-10.77-58.391v58.456c-13.43-.39-26.47-2.141-38.992-5.19 9.472-29.974 24.33-49.503 38.992-53.266zm0 69.226v48.789h-48.918c.389-20.113 2.92-38.473 6.942-54.369 13.494 3.244 27.573 5.19 41.976 5.58zm-59.818 48.789h-58.78c1.167-27.768 11.548-53.2 28.092-73.313 12.003 6.617 24.784 12.067 38.149 16.09-4.412 17.193-7.007 36.591-7.461 57.223zm0 10.77c.39 20.566 2.984 40.03 7.396 57.223a202.037 202.037 0 00-38.149 16.09c-16.544-20.112-26.86-45.545-28.092-73.313zm10.9 0h48.918v48.724a198.91 198.91 0 00-41.976 5.644c-4.023-15.895-6.553-34.256-6.942-54.368zm48.918 59.559v58.52c-14.662-3.827-29.52-23.291-38.992-53.265 12.522-3.114 25.562-4.866 38.992-5.255zm10.77 58.326v-58.391c13.3.39 26.211 2.14 38.733 5.125-9.408 29.845-24.135 49.243-38.733 53.266zm0-69.161v-48.724h48.595c-.39 20.047-2.92 38.408-6.943 54.304-13.43-3.244-27.314-5.19-41.652-5.58zm59.43-48.724h59.169c-1.168 27.768-11.548 53.136-28.093 73.313a199.506 199.506 0 00-38.473-16.22c4.412-17.193 7.007-36.527 7.396-57.093zm0-10.77c-.39-20.567-2.985-39.966-7.332-57.159a201.08 201.08 0 0038.408-16.154c16.545 20.112 26.925 45.545 28.093 73.378h-59.17zm23.68-81.618c-10.77 5.71-22.059 10.446-33.932 14.014-6.293-20.307-15.181-36.851-25.627-47.751 22.967 5.515 43.47 17.452 59.56 33.737zm-117.82-33.607c-10.446 10.835-19.27 27.379-25.498 47.556a184.32 184.32 0 01-33.607-13.949c15.896-16.22 36.268-28.092 59.105-33.607zM73.96-77.184c10.64-5.71 21.93-10.38 33.608-13.95 6.293 20.243 15.116 36.722 25.562 47.622-22.837-5.515-43.21-17.388-59.17-33.672zm117.431 33.802c10.51-10.9 19.334-27.444 25.692-47.816 11.873 3.568 23.162 8.304 33.932 14.014-16.09 16.35-36.657 28.287-59.624 33.802z"
       style="stroke:none;stroke-opacity:1;fill:#ffffff;fill-opacity:1" />
    <circle
       id="circle835"
       r="138.461"
       stroke-linecap="round"
       stroke-width="10"
       stroke="#000"
       fill="none"
       cx="162.455"
       cy="-164.122"
       style="stroke:#cccccc;stroke-opacity:1" />
    <circle
       id="circle837"
       stroke-linecap="round"
       stroke-width="7.273"
       stroke="#000"
       fill="teal"
       cx="110.842"
       cy="-230.849"
       r="18.536" />
    <circle
       id="circle839"
       stroke-linecap="round"
       stroke-width="7.273"
       stroke="#000"
       fill="teal"
       r="18.536"
       cy="-104.969"
       cx="161.371" />
    <path
       id="path841"
       fill="teal"
       d="M223.49-163.337s77.929-57.635 75.088-105.934c-3.653-60.07-53.576-73.058-75.087-73.058-21.512 0-74.276 12.988-75.088 73.058-.811 44.646 74.682 105.528 75.088 105.934z"
       style="fill:#008080;fill-opacity:1" />
    <path
       id="path843"
       d="M223.496-178.253s64.94-48.03 62.573-88.279c-3.044-50.058-44.646-60.881-62.573-60.881-17.926 0-61.896 10.823-62.572 60.881-.677 37.206 62.234 87.94 62.572 88.279zm-43.631-88.955c0-24.015 19.617-43.632 43.631-43.632 24.015 0 43.632 19.617 43.632 43.632 0 24.014-19.617 43.632-43.632 43.632-24.014 0-43.631-19.618-43.631-43.632z" />
    <path
       id="path845"
       d="M250.85-273.936c-3.868 2.234-7.628 4.521-11.114 6.865-1.799 1.199-3.65 2.45-5.34 3.814l-.38.328a7.899 7.899 0 00-1.416 1.254 9.819 9.819 0 01-6.538 7.193c-.98.271-1.961.435-2.944.435-1.306 0-2.615-.271-3.814-.761-.219-.11-.435-.219-.6-.274-.38-.219-.599-.328-.87-.49l-.22-.164c-.163-.11-.327-.217-.49-.326-1.525-1.2-2.67-2.834-3.323-4.74a11.015 11.015 0 01-.436-2.341v-.49c0-1.635.326-3.106 1.035-4.467l.164-.328c1.254-2.234 3.215-3.87 5.556-4.578a9.802 9.802 0 017.136.435c.165 0 .272-.054.381-.109 1.09-.273 2.016-.654 2.996-1.035 2.615-.98 5.066-2.125 7.845-3.379l2.78-1.306c1.36-.652 2.778-1.307 4.14-1.96.763-.33 1.525-.6 2.288-.874 2.451-.816 4.305-.11 5.23 1.908.495.976 1.202 3.482-2.065 5.39z" />
    <path
       id="path847"
       d="M212.55-291.51c2.242 3.865 4.537 7.62 6.888 11.1 1.203 1.796 2.46 3.645 3.826 5.33l.33.38a7.9 7.9 0 001.256 1.414 9.819 9.819 0 017.208 6.523c.273.98.44 1.96.441 2.942a10.16 10.16 0 01-.753 3.816 5.432 5.432 0 00-.272.6c-.218.381-.327.6-.488.872l-.164.22c-.109.164-.216.328-.325.49-1.196 1.528-2.828 2.676-4.732 3.335-.761.22-1.525.384-2.34.44l-.491.001c-1.635.005-3.106-.319-4.469-1.025l-.328-.163c-2.237-1.25-3.876-3.206-4.59-5.546a9.802 9.802 0 01.42-7.137c0-.165-.056-.272-.11-.381-.277-1.09-.66-2.014-1.042-2.993-.987-2.613-2.136-5.062-3.396-7.838l-1.313-2.776c-.655-1.36-1.313-2.777-1.97-4.136-.33-.763-.603-1.524-.878-2.287-.822-2.45-.119-4.304 1.897-5.234.975-.497 3.479-1.21 5.394 2.054z" />
  </g>
</svg>
